<?xml version="1.0" standalone="no"?><!DOCTYPE svg PUBLIC "-//W3C//DTD SVG 1.1//EN" "http://www.w3.org/Graphics/SVG/1.1/DTD/svg11.dtd"><svg t="1539165346613" class="icon" style="" viewBox="0 0 1024 1024" version="1.1" xmlns="http://www.w3.org/2000/svg" p-id="7167" xmlns:xlink="http://www.w3.org/1999/xlink" width="420" height="420"><defs><style type="text/css"></style></defs><path d="M896 64h-128c-38.4 0-64 25.6-64 64s25.6 64 64 64h64v640h-64c-38.4 0-64 25.6-64 64s25.6 64 64 64h128c38.4 0 64-25.6 64-64V128c0-38.4-25.6-64-64-64zM288 576H704c38.4 0 64-25.6 64-64s-25.6-64-64-64H288l76.8-76.8c25.6-25.6 25.6-70.4 0-96s-70.4-25.6-96 0L83.2 460.8c-19.2 19.2-25.6 51.2-12.8 76.8 6.4 6.4 6.4 12.8 12.8 19.2l185.6 185.6c25.6 25.6 70.4 25.6 96 0 25.6-25.6 25.6-70.4 0-96L288 576z" p-id="7168"></path></svg>