<?xml version="1.0" encoding="UTF-8"?>
<svg width="18px" height="22px" viewBox="0 0 18 22" version="1.1" xmlns="http://www.w3.org/2000/svg" xmlns:xlink="http://www.w3.org/1999/xlink">
    <!-- Generator: Sketch 52.5 (67469) - http://www.bohemiancoding.com/sketch -->
    <title>weituo</title>
    <desc>Created with Sketch.</desc>
    <g id="页面-1" stroke="none" stroke-width="1" fill="none" fill-rule="evenodd">
        <g id="1" transform="translate(-294.000000, -779.000000)" fill="#007AFF" fill-rule="nonzero">
            <g id="weituo" transform="translate(294.000000, 779.000000)">
                <path d="M17.1442123,2.20333839 L14.3096115,2.20333839 L14.3096115,1.63581183 C14.3096115,0.734446122 13.5582715,0 12.6361724,0 C11.7140733,0 10.9285816,0.734446122 10.9285816,1.63581183 L10.9285816,2.20333839 L7.10357802,2.20333839 L7.10357802,1.63581183 C7.10357802,0.734446122 6.35223804,0 5.43013897,0 C4.5080399,0 3.72254809,0.734446122 3.72254809,1.63581183 L3.72254809,2.20333839 L0.887947261,2.20333839 C0.37567,2.20333839 0,2.60394537 0,3.07132019 L0,21.1320182 C0,21.6327769 0.409821809,22 0.887947261,22 L17.1100605,22 C17.6223378,22 17.9980078,21.599393 17.9980078,21.1320182 L17.9980078,3.07132019 C18.0321596,2.60394537 17.6223378,2.20333839 17.1442123,2.20333839 Z M15.7781396,18.2276176 C15.7781396,18.6616085 15.4024696,19.0288316 14.958496,19.0288316 L3.07366357,19.0288316 C2.62968995,19.0288316 2.25401995,18.6616085 2.25401995,18.2276176 L2.25401995,18.1942337 C2.25401995,17.7602428 2.62968995,17.3930197 3.07366357,17.3930197 L14.9243442,17.3930197 C15.4024697,17.3930197 15.7781396,17.7602428 15.7781396,18.2276176 Z M15.7781396,13.1866464 C15.7781396,13.6206373 15.4024696,13.9878604 14.958496,13.9878604 L3.07366357,13.9878604 C2.62968995,13.9878604 2.25401995,13.6206373 2.25401995,13.1866464 L2.25401995,13.1532625 C2.25401995,12.7192716 2.62968995,12.3520485 3.07366357,12.3520485 L14.9243442,12.3520485 C15.4024697,12.3520485 15.7781396,12.7192716 15.7781396,13.1866464 Z M15.7781396,8.11229135 C15.7781396,8.54628223 15.4024696,8.91350531 14.958496,8.91350531 L3.07366357,8.91350531 C2.62968995,8.91350531 2.25401995,8.54628223 2.25401995,8.11229135 L2.25401995,8.07890744 C2.25401995,7.64491655 2.62968995,7.27769348 3.07366357,7.27769348 L14.9243442,7.27769348 C15.4024697,7.27769348 15.7781396,7.64491655 15.7781396,8.11229135 Z" id="形状"></path>
            </g>
        </g>
    </g>
</svg>