<?xml version="1.0" standalone="no"?><!DOCTYPE svg PUBLIC "-//W3C//DTD SVG 1.1//EN" "http://www.w3.org/Graphics/SVG/1.1/DTD/svg11.dtd"><svg t="1540189459782" class="icon" style="" viewBox="0 0 1024 1024" version="1.1" xmlns="http://www.w3.org/2000/svg" p-id="5667" xmlns:xlink="http://www.w3.org/1999/xlink" width="200" height="200"><defs><style type="text/css"></style></defs><path d="M511.9 283.4c-47.3 0-85.6-38.2-85.6-85.6 0-47.3 38.2-85.6 85.6-85.6 47.4 0 85.6 38.2 85.6 85.6 0 47.3-38.3 85.6-85.6 85.6z m399.3 342.3c0 63.3-50.8 114.1-114.1 114.1h-57C676.8 739.7 626 689 626 625.7l114.1-228.2h-57c-31.4 0-57-25.7-57-57h-57v456.4c24 0 57 25.7 57 57.1h57c24 0 57 25.7 57 57H283.7c0-31.4 33.1-57 57-57h57c0-31.4 33.1-57.1 57-57.1h1.7l-1.7-456.4h-57c0 31.4-25.7 57-57 57h-57l114.1 228.2c0 63.3-50.8 114.1-114.1 114.1h-57.1c-63.3 0-114.1-50.8-114.1-114.1l114.1-228.2h-57v-57h171.1c0-31.4 25.7-57 57-57H626c31.4 0 57 25.7 57 57h171.1v57H797l114.2 228.2z m-656-171.2l-85.6 171.1h171.1l-85.5-171.1z m599 171.2l-85.6-171.1L683 625.7h171.2z m0 0" p-id="5668"></path></svg>