<?xml version="1.0" standalone="no"?><!DOCTYPE svg PUBLIC "-//W3C//DTD SVG 1.1//EN" "http://www.w3.org/Graphics/SVG/1.1/DTD/svg11.dtd"><svg t="1537955989134" class="icon" style="" viewBox="0 0 1092 1024" version="1.1" xmlns="http://www.w3.org/2000/svg" p-id="6010" xmlns:xlink="http://www.w3.org/1999/xlink" width="136.5" height="128"><defs><style type="text/css"></style></defs><path d="M1009.472 32H78.52800031C50.624 32 32 51.584 32 80.96v734.08000031c0 29.44000031 18.55999969 48.96 46.52800031 48.96h930.94399969c27.90400031 0 46.52800031-19.584 46.52800031-48.96V80.96c0-29.44000031-18.55999969-48.96-46.52800031-48.96zM992 800H96.00000031V96.00000031h895.99999969v703.99999969z m-177.28000031 127.99999969H273.27999969c-29.568 0-49.27999969 12.79999969-49.27999969 32.00000062s19.71199969 31.99999969 49.27999969 31.99999969h541.44c29.568 0 49.27999969-12.79999969 49.28000062-31.99999969s-19.71199969-31.99999969-49.28000062-32.00000062z" p-id="6011"></path></svg>