<?xml version="1.0" standalone="no"?><!DOCTYPE svg PUBLIC "-//W3C//DTD SVG 1.1//EN" "http://www.w3.org/Graphics/SVG/1.1/DTD/svg11.dtd"><svg t="1536738315040" class="icon" style="" viewBox="0 0 1025 1024" version="1.1" xmlns="http://www.w3.org/2000/svg" p-id="24296" xmlns:xlink="http://www.w3.org/1999/xlink" width="128.125" height="128"><defs><style type="text/css"></style></defs><path d="M380.796797 759.031031h262.918919v121.977978H380.796797z" fill="#989898" p-id="24297"></path><path d="M803.107107 954.298298H221.917918c0-47.151151 38.438438-85.58959 85.58959-85.589589h410.01001c47.663664 0 85.58959 38.438438 85.589589 85.589589z" fill="#CECECE" p-id="24298"></path><path d="M857.945946 759.031031H167.079079c-71.751752 0-129.665666-57.913914-129.665666-129.665666h949.685686c0.512513 71.239239-57.913914 129.665666-129.153153 129.665666z" fill="#CBCBCB" p-id="24299"></path><path d="M37.413413 109.165165v519.687688h950.710711V109.165165c0-22.038038-17.937938-39.975976-39.975976-39.975976H76.876877c-22.038038 0.512513-39.463463 17.937938-39.463464 39.975976z m883.059059 459.211211H104.552553V130.178178h815.919919v438.198198z" fill="#2B3A49" p-id="24300"></path><path d="M104.552553 130.178178h815.919919v438.198198H104.552553z" fill="#4371AD" p-id="24301"></path><path d="M564.788789 281.369369h57.401401v271.631632h-57.401401z" fill="#8FC090" p-id="24302"></path><path d="M664.728729 199.367367h57.401401v353.633634h-57.401401z" fill="#FFFFF3" p-id="24303"></path><path d="M764.156156 339.283283h57.401402v213.717718h-57.401402z" fill="#F0BD4D" p-id="24304"></path><path d="M334.158158 360.808809m-127.103103 0a127.103103 127.103103 0 1 0 254.206206 0 127.103103 127.103103 0 1 0-254.206206 0Z" fill="#B4DDBC" p-id="24305"></path><path d="M460.748749 360.808809c0 70.214214-56.888889 127.103103-127.103103 127.103103V360.808809h127.103103z" fill="#FFFFFF" p-id="24306"></path><path d="M334.158158 360.808809H461.261261c0-70.214214-56.888889-127.103103-127.103103-127.103103-31.775776 0-60.476476 11.787788-82.514514 30.75075-1.537538 1.537538-3.075075 2.562563-4.612613 4.100101l87.127127 92.252252z" fill="#F0BD4D" p-id="24307"></path></svg>