<?xml version="1.0" standalone="no"?><!DOCTYPE svg PUBLIC "-//W3C//DTD SVG 1.1//EN" "http://www.w3.org/Graphics/SVG/1.1/DTD/svg11.dtd"><svg t="1536114814985" class="icon" style="" viewBox="0 0 1024 1024" version="1.1" xmlns="http://www.w3.org/2000/svg" p-id="4695" xmlns:xlink="http://www.w3.org/1999/xlink" width="128" height="128"><defs><style type="text/css"></style></defs><path d="M697.163835 99.780512c0-55.08924 44.291349-99.780512 98.980668-99.780512 54.589338 0 98.880687 44.691271 98.880687 99.780512 0 55.08924-44.291349 99.780512-98.880687 99.780511-54.689318 0-98.980668-44.691271-98.980668-99.780511z m9.598126 151.070494L500.002343 459.410271l38.792424 39.092365 168.067174-169.466901v290.543253H544.693615v0.199961l-288.643625 380.925601h-79.284515v23.095489h215.357938v-23.095489l200.660809-263.448545 302.240968 0.899824V250.851006H706.761961zM63.087678 505.70123v518.19879l437.214607-518.19879H63.087678z m437.214607-35.493068L71.98594 116.077329l82.883812 354.130833h345.432533z" fill="#6DC7D9" p-id="4696"></path></svg>