<?xml version="1.0" standalone="no"?><!DOCTYPE svg PUBLIC "-//W3C//DTD SVG 1.1//EN" "http://www.w3.org/Graphics/SVG/1.1/DTD/svg11.dtd"><svg t="1536737918529" class="icon" style="" viewBox="0 0 1024 1024" version="1.1" xmlns="http://www.w3.org/2000/svg" p-id="11116" xmlns:xlink="http://www.w3.org/1999/xlink" width="128" height="128"><defs><style type="text/css"></style></defs><path d="M864.2 572.4c1.4-9.5 1.4-20.4 1.4-31.2 0-35.3-5.4-69.2-14.9-103.2-4.1-14.9-19-23.1-33.9-17.7-14.9 4.1-23.1 19-17.7 33.9 8.1 28.5 13.6 58.4 13.6 88.3v14.9c-8.1-2.7-14.9-2.7-21.7-2.7-85.5 0-156.1 70.6-156.1 156.1 0 32.6 10.9 63.8 27.2 88.3-44.8 27.2-96.4 40.7-149.4 40.7s-104.6-13.6-149.4-40.7c17.7-25.8 27.2-55.7 27.2-88.3 0-85.5-70.6-156.1-156.1-156.1-6.8 0-13.6 0-20.4 1.4v-14.9c0-111.3 59.7-210.5 156.1-262.1 19 65.2 78.8 112.7 149.4 112.7 69.2 0 126.3-44.8 148-105.9 12.2 6.8 24.4 16.3 35.3 24.4 5.4 4.1 10.9 6.8 17.7 6.8 8.1 0 14.9-2.7 20.4-9.5 9.5-12.2 8.1-28.5-4.1-38-19-16.3-40.7-29.9-62.5-40.7-2.7-82.8-72-149.4-154.8-149.4-81.5 0-148 62.5-154.8 141.2-124.9 58.4-205 181.9-205 320.4 0 10.9 0 21.7 1.4 31.2-48.9 27.2-82.8 78.8-82.8 138.5 0 85.5 70.6 156.1 156.1 156.1 32.6 0 63.8-10.9 89.6-28.5 55.7 36.7 120.8 55.7 188.7 55.7 67.9 0 133.1-19 188.7-55.7 25.8 17.7 55.7 28.5 89.6 28.5 85.5 0 156.1-70.6 156.1-156.1 0-59.6-34-111.2-82.9-138.4zM519.4 133.8c55.7 0 101.8 46.2 101.8 101.8 0 55.7-46.2 101.8-101.8 101.8-55.7 0-101.8-46.2-101.8-101.8-0.1-55.6 46.1-101.8 101.8-101.8z m-387 577.1c0-55.7 46.2-101.8 101.8-101.8 55.7 0 101.8 46.2 101.8 101.8 0 55.7-46.2 101.8-101.8 101.8-55.6 0-101.8-46.1-101.8-101.8z m658.5 101.8c-55.7 0-101.8-46.2-101.8-101.8 0-55.7 46.2-101.8 101.8-101.8 55.7 0 101.8 46.2 101.8 101.8 0.1 55.7-46.1 101.8-101.8 101.8z m0 0" fill="#3ABBCD" p-id="11117"></path><path d="M404 541.2c0 59.7 48.9 108.6 108.6 108.6 59.7 0 108.6-48.9 108.6-108.6 0-59.7-48.9-108.6-108.6-108.6-59.8 0-108.6 48.8-108.6 108.6z m162.9 0c0 29.9-24.4 54.3-54.3 54.3s-54.3-24.4-54.3-54.3 24.4-54.3 54.3-54.3c29.8 0 54.3 24.4 54.3 54.3z m0 0" fill="#FF6626" p-id="11118"></path></svg>