<?xml version="1.0" standalone="no"?><!DOCTYPE svg PUBLIC "-//W3C//DTD SVG 1.1//EN" "http://www.w3.org/Graphics/SVG/1.1/DTD/svg11.dtd"><svg t="1536737967263" class="icon" style="" viewBox="0 0 1197 1024" version="1.1" xmlns="http://www.w3.org/2000/svg" p-id="14119" xmlns:xlink="http://www.w3.org/1999/xlink" width="149.625" height="128"><defs><style type="text/css"></style></defs><path d="M169.750919 656.476458l-20.948182-11.704572 301.317685-538.410285 20.948182 11.704572-301.317685 538.410285z" fill="#595B5B" p-id="14120"></path><path d="M159.727004 662.598849l-0.900352-24.009377 442.552847-16.20633 0.900351 24.009377-442.552846 16.20633z" fill="#595B5B" p-id="14121"></path><path d="M703.539399 943.688633l-549.754716-282.4103 10.98429-21.368346 549.754716 282.4103-10.98429 21.368346z" fill="#595B5B" p-id="14122"></path><path d="M697.717125 937.086054l-107.20187-298.616629 22.628838-8.103165L720.345963 928.98289l-22.628838 8.103164z" fill="#595B5B" p-id="14123"></path><path d="M718.845377 939.907156l-19.687689-13.745368 346.455313-495.553547 19.68769 13.745369-346.455314 495.553546zM166.929817 659.83777l-15.305978-18.48722 717.70031-593.631853 15.305978 18.487221-717.70031 593.631852z" fill="#595B5B" p-id="14124"></path><path d="M462.125111 124.12854l-3.121219-23.829306 416.442648-55.221568 3.121219 23.829307-416.442648 55.221567z" fill="#595B5B" p-id="14125"></path><path d="M1044.592603 442.552906l-178.449697-380.488606 21.728487-10.203985 178.50972 380.488606-21.78851 10.203985z" fill="#595B5B" p-id="14126"></path><path d="M720.82615 935.285351l-23.589213-4.501758L865.182531 54.74144l23.589213 4.501758-167.945594 876.042153z" fill="#595B5B" p-id="14127"></path><path d="M612.663906 639.549847l-21.668463-10.324033 275.147463-577.425523 21.668463 10.324033-275.147463 577.425523z" fill="#595B5B" p-id="14128"></path><path d="M1049.754619 448.01504L454.80225 122.748001l11.524502-21.068228 594.892345 325.267038-11.464478 21.068229z" fill="#595B5B" p-id="14129"></path><path d="M590.215138 637.50905L452.101196 117.045774l23.229072-6.182414 138.113943 520.463275-23.229073 6.182415z" fill="#595B5B" p-id="14130"></path><path d="M606.601538 645.432144l-9.543727-22.028604 453.657183-196.936916 9.543727 22.028603-453.657183 196.936917z" fill="#595B5B" p-id="14131"></path><path d="M318.489011 650.59416a159.242195 159.242195 0 1 1-159.242195-159.182171 159.242195 159.242195 0 0 1 159.242195 159.182171M519.327452 112.243899a58.762951 58.762951 0 1 1-58.762951-58.762951 58.762951 58.762951 0 0 1 58.762951 58.762951M680.190279 634.387831a78.390617 78.390617 0 1 1-78.390616-78.030477 78.390617 78.390617 0 0 1 78.390616 78.030477" fill="#3578B5" p-id="14132"></path><path d="M799.997072 933.00446a90.99554 90.99554 0 1 1-90.99554-90.99554 90.99554 90.99554 0 0 1 90.99554 90.99554" fill="#3578B5" p-id="14133"></path><path d="M1197.172195 437.450914a141.715349 141.715349 0 1 1-141.715349-141.655326 141.715349 141.715349 0 0 1 141.715349 141.655326" fill="#3578B5" p-id="14134"></path><path d="M933.969397 56.962308A57.022271 57.022271 0 1 1 877.00715 0.00006a56.962248 56.962248 0 0 1 56.962247 56.962248" fill="#3578B5" p-id="14135"></path></svg>