<?xml version="1.0" standalone="no"?><!DOCTYPE svg PUBLIC "-//W3C//DTD SVG 1.1//EN" "http://www.w3.org/Graphics/SVG/1.1/DTD/svg11.dtd"><svg t="1536737404213" class="icon" style="" viewBox="0 0 1024 1024" version="1.1" xmlns="http://www.w3.org/2000/svg" p-id="2407" xmlns:xlink="http://www.w3.org/1999/xlink" width="128" height="128"><defs><style type="text/css"></style></defs><path d="M513.599 997.3c-28.607 0-57.24-2.613-85.689-7.838-14.788-2.717-24.575-16.906-21.858-31.697 2.717-14.788 16.906-24.574 31.697-21.858 48.519 8.911 97.632 9.243 145.98 0.984 49.845-8.516 97.484-25.963 141.598-51.857 0.068-0.038 0.135-0.077 0.202-0.117 50.854-29.265 94.402-67.576 129.429-113.865 33.811-44.68 58.313-94.882 72.835-149.212 14.468-54.138 18.286-109.619 11.349-164.9-7.179-57.182-25.618-111.65-54.805-161.893-27.577-47.277-60.927-86.414-101.932-119.611-11.686-9.46-13.491-26.602-4.029-38.29 9.46-11.685 26.601-13.492 38.29-4.030 46.217 37.416 83.746 81.425 114.728 134.538 32.904 56.638 53.678 118.026 61.773 182.503 7.819 62.29 3.523 124.782-12.771 185.739-16.347 61.163-43.941 117.69-82.017 168.008-39.432 52.11-88.409 95.221-145.578 128.139-49.785 29.207-103.581 48.893-159.899 58.515-26.293 4.493-52.783 6.74-79.299 6.74zM195.299 869.064c-6.653 0-13.321-2.424-18.57-7.323-35.765-33.381-63.385-68.979-84.423-108.81-32.715-56.461-53.394-117.678-61.466-181.97-7.819-62.29-3.523-124.78 12.769-185.739 16.346-61.164 43.942-117.69 82.017-168.008 39.455-52.145 88.473-95.277 145.69-128.205 80.273-46.472 172.636-68.628 267.012-64.017 15.018 0.731 26.598 13.501 25.867 28.517-0.734 15.018-13.511 26.597-28.517 25.866-83.891-4.091-165.897 15.546-237.141 56.792-50.916 29.301-94.463 67.612-129.49 113.901-33.811 44.68-58.313 94.883-72.835 149.213-14.469 54.137-18.286 109.617-11.348 164.899 7.178 57.182 25.618 111.649 54.804 161.89 0.191 0.329 0.374 0.66 0.551 0.996 18.182 34.548 42.277 65.58 73.659 94.869 10.993 10.26 11.586 27.486 1.326 38.478-5.359 5.743-12.626 8.65-19.909 8.65zM513.599 1002.743c-28.871 0-58.033-2.667-86.673-7.929-8.583-1.576-16.038-6.401-20.993-13.585-4.954-7.183-6.815-15.866-5.239-24.449 1.577-8.583 6.401-16.038 13.585-20.991 7.183-4.955 15.866-6.815 24.449-5.24 47.886 8.797 96.361 9.123 144.078 0.97 49.19-8.403 96.213-25.624 139.758-51.186l0.291-0.166c50.173-28.875 93.172-66.701 127.755-112.406 33.383-44.116 57.578-93.686 71.915-147.333 14.285-53.455 18.056-108.234 11.205-162.817-7.087-56.455-25.293-110.231-54.11-159.835-27.241-46.701-60.166-85.34-100.651-118.114-14.003-11.335-16.17-31.948-4.835-45.948 11.335-14.002 31.947-16.168 45.948-4.836 46.742 37.841 84.687 82.334 116.006 136.027 33.269 57.266 54.286 119.361 62.471 184.57 7.906 62.991 3.562 126.185-12.911 187.822-16.531 61.848-44.434 119.006-82.936 169.887-39.873 52.694-89.4 96.288-147.203 129.573-50.317 29.518-104.734 49.431-161.699 59.164-26.473 4.524-53.464 6.817-80.214 6.817zM432.785 940.898c-4.373 0-8.64 1.32-12.319 3.855-4.789 3.303-8.005 8.274-9.056 13.995-1.052 5.721 0.189 11.511 3.491 16.297 3.303 4.79 8.273 8.005 13.994 9.057 27.993 5.143 56.492 7.749 84.704 7.749 26.139 0 52.51-2.241 78.381-6.661 55.663-9.51 108.844-28.972 158.061-57.844 56.573-32.575 105.003-75.205 143.992-126.729 37.65-49.755 64.935-105.649 81.1-166.13 16.108-60.275 20.356-122.067 12.626-183.655-8.002-63.749-28.551-124.459-61.078-180.446-30.639-52.524-67.748-96.047-113.446-133.042-9.33-7.556-23.074-6.109-30.631 3.226-7.556 9.334-6.11 23.075 3.225 30.631 41.528 33.619 75.288 73.23 103.211 121.1 29.562 50.882 48.233 106.043 55.503 163.958 7.028 55.983 3.162 112.164-11.489 166.984-14.702 55.014-39.517 105.85-73.753 151.092-35.468 46.874-79.562 85.666-131.053 115.3l-0.131 0.074c-44.717 26.247-92.978 43.921-143.469 52.546-48.981 8.364-98.737 8.031-147.88-0.994-1.33-0.243-2.662-0.365-3.983-0.365zM195.299 874.508c-8.297 0-16.213-3.121-22.286-8.788-36.192-33.78-64.152-69.813-85.474-110.155-33.051-57.067-53.945-118.948-62.102-183.928-7.907-62.988-3.562-126.182 12.91-187.823 16.527-61.844 44.43-119.003 82.936-169.887 39.9-52.729 89.464-96.347 147.316-129.639 81.201-47.010 174.557-69.399 269.995-64.738 17.993 0.877 31.915 16.228 31.039 34.221-0.854 17.452-15.325 31.077-32.611 31.078-0.535 0-1.070-0.012-1.611-0.038-82.844-4.043-163.816 15.348-234.145 56.065-50.272 28.93-93.291 66.77-127.875 112.475-33.383 44.113-57.578 93.683-71.915 147.333-14.287 53.452-18.057 108.232-11.204 162.815 7.086 56.452 25.291 110.227 54.11 159.833 0.232 0.401 0.452 0.796 0.662 1.198 17.892 33.994 41.625 64.554 72.553 93.421 6.379 5.954 10.057 14.037 10.36 22.757 0.3 8.722-2.814 17.038-8.767 23.416-6.155 6.601-14.862 10.381-23.89 10.381zM513.891 29.837c-84.868 0-167.318 21.893-239.848 63.883-56.591 32.568-105.061 75.219-144.074 126.778-37.652 49.758-64.937 105.651-81.098 166.129-16.108 60.278-20.357 122.069-12.626 183.655 7.979 63.56 28.426 124.093 60.773 179.918l0.103 0.187c20.75 39.288 48.006 74.41 83.323 107.373 4.050 3.777 9.323 5.858 14.856 5.858 6.107 0 11.763-2.458 15.926-6.918 3.97-4.255 6.045-9.797 5.845-15.614-0.2-5.813-2.653-11.202-6.906-15.171-31.837-29.711-56.29-61.217-74.762-96.315-0.143-0.273-0.291-0.54-0.444-0.804-29.555-50.871-48.227-106.031-55.495-163.941-7.029-55.986-3.164-112.168 11.488-166.984 14.705-55.016 39.518-105.851 73.754-151.093 35.469-46.876 79.583-85.681 131.114-115.335 72.137-41.763 155.18-61.654 240.121-57.511 11.979 0.588 22.23-8.697 22.816-20.693 0.585-11.995-8.698-22.23-20.693-22.814-8.071-0.395-16.138-0.59-24.172-0.59zM487 416.801l-93.759-100.010c-12.502-12.502-10.418-33.336 2.084-45.837v0c12.502-12.502 33.337-10.418 45.837 2.084l93.759 100.009c12.502 12.502 10.418 33.336-2.084 45.837v0c-14.586 10.418-33.336 10.418-45.837-2.083zM510.327 431.855c-10.049 0-19.74-3.765-27.178-11.204l-0.123-0.127-93.701-99.948c-14.117-14.194-13.162-38.159 2.147-53.473 14.186-14.186 38.203-13.252 53.537 2.083l0.122 0.127 93.702 99.948c14.117 14.194 13.161 38.159-2.147 53.473l-0.319 0.319-0.366 0.262c-8.001 5.716-16.971 8.541-25.674 8.541zM490.908 413.010c10.104 10.046 25.471 10.712 38.391 1.706 10.603-10.921 11.447-28.142 1.771-37.818l-0.123-0.127-93.697-99.944c-10.905-10.843-28.323-11.778-38.077-2.023-10.901 10.902-11.854 28.365-2.084 38.137l0.123 0.127 93.695 99.943zM491.167 373.046l100.009-93.759c12.502-12.502 33.336-10.418 45.837 2.084v0c10.418 12.502 10.418 31.254-2.083 43.754l-100.010 93.759c-12.502 12.502-33.337 12.502-45.837 0v0c-12.502-12.502-10.418-33.338 2.084-45.838zM512.001 433.705c-10.188 0-19.694-3.896-26.767-10.971-7.047-7.047-10.57-16.675-9.919-27.108 0.612-9.781 4.985-19.413 12.002-26.429l0.126-0.122 99.949-93.702c14.195-14.118 38.161-13.162 53.473 2.147l0.334 0.365c12.611 15.135 11.571 37.098-2.415 51.090l-0.127 0.123-99.948 93.701c-7.070 7.034-16.549 10.907-26.708 10.907zM494.956 376.957c-5.13 5.159-8.328 12.207-8.774 19.349-0.454 7.27 1.944 13.921 6.75 18.729 5.018 5.019 11.79 7.782 19.068 7.782 7.278 0 14.051-2.763 19.070-7.782l0.127-0.122 99.943-93.697c9.865-9.927 10.646-25.416 1.849-36.169-10.913-10.735-28.242-11.628-37.96-1.909l-0.127 0.122-99.945 93.697zM791.193 108.439l141.679 27.086c16.669 4.167 29.169 20.835 25.001 37.503v2.084c-4.167 16.669-20.835 29.169-37.503 25.001l-141.679-27.086c-16.669-4.167-29.169-20.835-25.001-37.503v-2.083c4.167-16.669 20.836-29.17 37.503-25.002zM926.951 204.194c-2.436 0-4.875-0.294-7.281-0.888l-141.771-27.109c-8.888-2.221-16.982-7.827-22.208-15.373-5.455-7.882-7.321-16.988-5.267-25.69v-2.094l0.098-0.389c4.807-19.225 23.743-31.751 41.372-27.402l141.77 27.109c8.889 2.222 16.982 7.827 22.208 15.374 5.455 7.882 7.321 16.987 5.267 25.689v2.094l-0.098 0.389c-2.221 8.888-7.827 16.982-15.373 22.208-5.792 4.010-12.249 6.079-18.719 6.080zM779.398 169.836l141.767 27.108c6.974 1.745 14.355 0.249 20.788-4.203 6.153-4.261 10.75-10.82 12.655-18.041v-2.073l0.098-0.389c1.743-6.971 0.25-14.355-4.203-20.788-4.32-6.238-10.998-10.875-18.334-12.731l-141.767-27.108c-14.112-3.528-29.339 6.639-33.444 22.243v2.074l-0.098 0.389c-1.743 6.972-0.25 14.355 4.204 20.788 4.32 6.238 10.998 10.874 18.334 12.731zM80.71 796.002l141.679 27.086c16.669 4.167 29.169 20.835 25.001 37.503v2.084c-4.167 16.669-20.835 29.169-37.503 25.001l-141.678-27.085c-16.669-4.167-29.169-20.835-25.001-37.503v-2.083c2.081-16.671 20.834-29.172 37.502-25.003zM216.327 891.734c-2.38 0-4.769-0.279-7.138-0.863l-141.77-27.109c-19.111-4.778-31.606-23.517-27.477-41.063l0.025-2.1c1.090-8.723 6.309-16.874 14.321-22.364 8.266-5.666 18.147-7.641 27.124-5.427l141.771 27.11c8.888 2.221 16.982 7.827 22.208 15.374 5.455 7.882 7.321 16.987 5.267 25.69v2.093l-0.097 0.389c-4.16 16.641-18.909 28.265-34.234 28.266zM68.917 857.4l141.765 27.108c14.115 3.528 29.338-6.639 33.443-22.244v-2.073l0.097-0.389c1.745-6.97 0.251-14.355-4.203-20.788-4.32-6.238-10.998-10.875-18.335-12.732l-141.766-27.109c-7.189-1.797-15.185-0.173-21.938 4.455-6.408 4.392-10.593 10.795-11.505 17.591v2.275l-0.097 0.389c-3.549 14.201 6.766 29.531 22.539 33.521zM666.184 485.556h-306.278c-16.669 0-29.169-12.502-29.169-29.169v-6.25c0-16.669 12.502-29.169 29.169-29.169h306.278c16.669 0 29.169 12.502 29.169 29.169v6.25c-0.001 16.669-12.502 29.169-29.169 29.169zM666.184 491.002h-306.279c-19.733 0-34.614-14.88-34.614-34.614v-6.249c0-19.734 14.88-34.614 34.614-34.614h306.279c19.734 0 34.614 14.88 34.614 34.614v6.249c-0.001 19.733-14.88 34.614-34.614 34.614zM359.904 426.412c-13.747 0-23.724 9.978-23.724 23.724v6.249c0 13.747 9.978 23.724 23.724 23.724h306.279c13.747 0 23.723-9.978 23.724-23.725v-6.249c0-13.747-9.978-23.724-23.724-23.724l-306.279 0.001zM482.834 710.578v-231.271c0-16.669 12.502-29.169 29.169-29.169h6.249c16.669 0 29.169 12.502 29.169 29.169v233.355c0 16.669-12.502 29.169-29.169 29.169h-8.333c-14.586-2.084-27.085-14.585-27.085-31.254zM518.251 747.276l-9.103-0.056c-18.107-2.588-31.759-18.341-31.759-36.644v-231.27c0-19.734 14.88-34.614 34.614-34.614h6.249c19.734 0 34.614 14.88 34.614 34.614v233.355c0 19.734-14.879 34.614-34.614 34.614zM510.325 736.387h7.927c13.748 0 23.724-9.978 23.724-23.724v-233.355c0-13.747-9.978-23.724-23.724-23.724h-6.249c-13.748 0-23.724 9.978-23.724 23.724v231.271c0 12.794 9.451 23.825 22.047 25.807zM666.184 631.404h-306.278c-16.669 0-29.169-12.502-29.169-29.169v-6.25c0-16.669 12.502-29.169 29.169-29.169h306.278c16.669 0 29.169 12.502 29.169 29.169v6.25c-0.001 16.669-12.502 29.169-29.169 29.169zM666.184 636.851h-306.279c-19.733 0-34.614-14.88-34.614-34.614v-6.25c0-19.734 14.88-34.614 34.614-34.614h306.279c19.734 0 34.614 14.88 34.614 34.614v6.25c-0.001 19.733-14.88 34.614-34.614 34.614zM359.904 572.258c-13.747 0-23.724 9.978-23.724 23.724v6.25c0 13.748 9.978 23.724 23.724 23.724h306.279c13.747 0 23.723-9.978 23.724-23.724v-6.25c0-13.748-9.978-23.724-23.724-23.724h-306.279z" fill="#11B0F2" p-id="2408"></path></svg>