<?xml version="1.0" standalone="no"?><!DOCTYPE svg PUBLIC "-//W3C//DTD SVG 1.1//EN" "http://www.w3.org/Graphics/SVG/1.1/DTD/svg11.dtd"><svg t="1537956227067" class="icon" style="" viewBox="0 0 1024 1024" version="1.1" xmlns="http://www.w3.org/2000/svg" p-id="8699" xmlns:xlink="http://www.w3.org/1999/xlink" width="128" height="128"><defs><style type="text/css"></style></defs><path d="M508.468966 256c-104.165517 0-190.675862 84.744828-190.675863 188.910345S404.303448 635.586207 508.468966 635.586207s190.675862-84.744828 190.675862-188.910345c0-105.931034-84.744828-190.675862-190.675862-190.675862z m3.531034 337.213793c-81.213793 0-148.303448-67.089655-148.303448-148.303448 0-81.213793 67.089655-148.303448 148.303448-148.303448 81.213793 0 148.303448 67.089655 148.303448 148.303448 0 82.97931-67.089655 150.068966-148.303448 148.303448zM508.468966 192.441379c19.42069 0 35.310345-15.889655 35.310344-35.310345s-15.889655-35.310345-35.310344-35.310344-35.310345 15.889655-35.310345 35.310344 15.889655 35.310345 35.310345 35.310345zM813.903448 997.517241c0-7.062069-1.765517-12.358621-5.296551-17.655172l5.296551 17.655172z" p-id="8700"></path><path d="M709.737931 723.862069l17.655172 47.668965c56.496552-35.310345 105.931034-84.744828 141.24138-143.006896 38.841379-63.558621 58.262069-137.710345 58.262069-211.862069 0-56.496552-10.593103-111.227586-33.544828-162.427586-21.186207-47.668966-51.2-93.572414-88.275862-132.413793s-82.97931-68.855172-132.413793-88.275862C623.227586 12.358621 568.496552 0 513.765517 0c-56.496552 0-112.993103 10.593103-164.193103 33.544828-49.434483 21.186207-93.572414 51.2-132.413793 88.275862C180.082759 158.896552 150.068966 203.034483 130.648276 252.468966c-44.137931 104.165517-44.137931 220.689655 0 324.855172 21.186207 49.434483 51.2 93.572414 88.275862 132.413793s82.97931 68.855172 132.413793 88.275862c10.593103 5.296552 21.186207 8.827586 33.544828 14.124138l-54.731035 162.427586H236.57931c-10.593103-3.531034-22.951724 3.531034-26.482758 14.124138 0 1.765517-1.765517 5.296552 0 7.062069 0 15.889655 10.593103 28.248276 26.482758 28.248276H787.42069c14.124138 0 26.482759-12.358621 28.248276-26.482759l-5.296552-17.655172c-3.531034-3.531034-8.827586-7.062069-14.124138-7.062069h-95.337931L644.413793 808.606897c26.482759-8.827586 51.2-19.42069 74.151724-33.544828 3.531034-1.765517 7.062069-3.531034 10.593104-7.062069L709.737931 723.862069c-5.296552 3.531034-8.827586 7.062069-14.124138 8.827586-54.731034 31.77931-118.289655 49.434483-181.848276 49.434483-201.268966 1.765517-365.462069-162.427586-367.227586-363.696552 0-97.103448 38.841379-192.441379 107.696552-261.296552C321.324138 88.275862 414.896552 49.434483 512 49.434483c201.268966 0 365.462069 164.193103 365.462069 365.462069 0 65.324138-15.889655 128.882759-49.434483 183.613793-30.013793 51.2-68.855172 93.572414-118.289655 125.351724z m-120.055172 98.868965l51.2 157.131035H381.351724l54.731035-153.6c51.2 8.827586 104.165517 7.062069 153.6-3.531035z" p-id="8701"></path></svg>