<?xml version="1.0" standalone="no"?><!DOCTYPE svg PUBLIC "-//W3C//DTD SVG 1.1//EN" "http://www.w3.org/Graphics/SVG/1.1/DTD/svg11.dtd"><svg t="1539339398864" class="icon" style="" viewBox="0 0 1024 1024" version="1.1" xmlns="http://www.w3.org/2000/svg" p-id="4549" xmlns:xlink="http://www.w3.org/1999/xlink" width="128" height="128"><defs><style type="text/css"></style></defs><path d="M396.633974 565.644108h-75.975919c-2.335377-7.018824-3.515758-16.893409-3.515758-29.712601a150.073383 150.073383 0 0 1 0.863074-15.77649 116.76887 116.76887 0 0 1 2.652684-14.849954h125.83115L285.703548 222.191322q11.423042-1.751533 24.876846-2.538454t25.854151-0.913843q12.209962 0 25.384537 0.863074a236.634654 236.634654 0 0 1 23.620312 2.538454l124.777691 229.933136 78.374758-78.425527 80.786289-151.507609c7.526515-1.167689 15.230722-2.030763 23.150698-2.538454s15.878028-0.863074 24.013772-0.863074 16.28418 0.291922 24.432617 0.863074c0.545768 0 1.066151 0.076154 1.611918 0.126923l99.266232-99.278924A510.000733 510.000733 0 0 0 511.994003 0.00047C229.273722 0.00047 0.038661 229.222839 0.000584 511.993889A510.026117 510.026117 0 0 0 120.399443 841.878639zM903.588563 182.109138l-266.156871 266.156871-31.832209 56.988285h132.799205a136.327656 136.327656 0 0 1 2.538454 27.922991 170.622165 170.622165 0 0 1-2.538454 32.352592H570.632283v76.940532h167.766405a135.464582 135.464582 0 0 1 2.538454 27.922991 170.25409 170.25409 0 0 1-2.538454 32.352592H570.632283v137.317653c-7.069594 1.11692-14.291494 2.030763-21.881471 2.639992s-15.230722 0.913843-22.731852 0.913843-15.116492-0.304614-22.693776-0.913843-14.862646-1.472303-21.881471-2.639992V702.872915h-98.631619L182.109252 903.588449a509.975348 509.975348 0 0 0 329.884751 120.398859c282.796434 0 512.018804-229.209677 512.018803-512.018804a509.975348 509.975348 0 0 0-120.424243-329.859366z" p-id="4550"></path><path d="M481.443713 604.253988l-38.330651 38.330651h38.330651v-38.330651z" p-id="4551"></path></svg>
