<?xml version="1.0" standalone="no"?><!DOCTYPE svg PUBLIC "-//W3C//DTD SVG 1.1//EN" "http://www.w3.org/Graphics/SVG/1.1/DTD/svg11.dtd"><svg t="1539339049292" class="icon" style="" viewBox="0 0 1024 1024" version="1.1" xmlns="http://www.w3.org/2000/svg" p-id="3093" xmlns:xlink="http://www.w3.org/1999/xlink" width="128" height="128"><defs><style type="text/css"></style></defs><path d="M473.5 289.625c-10.625 0-19.125 8.5-19.125 19.125l0 150c-50.75 22.125-86.25 72.875-86.25 131.875 0 79.5 64.375 143.875 143.875 143.875 79.5 0 143.875-64.375 143.875-143.875 0-59-35.5-109.625-86.25-131.875l0-150c0-10.5-8.5-19.125-19.125-19.125L473.5 289.625 473.5 289.625zM473.5 289.625" p-id="3094"></path><path d="M992 384l-96 0c-1.625 0-3.25 0.25-4.875 0.5-5.875-17.375-12.875-34.25-20.875-50.375 1.25-1 2.625-2 3.75-3.125l67.875-67.875c12.5-12.5 12.5-32.75 0-45.25L806.125 82.125c-12.5-12.5-32.75-12.5-45.25 0l-67.875 67.875c-1.125 1.125-2.125 2.5-3 3.75-16.25-8-33-15-50.375-20.875 0.25-1.625 0.5-3.25 0.5-4.875L640.125 32c0-17.625-14.375-32-32-32L416 0c-17.625 0-32 14.375-32 32l0 96c0 1.625 0.25 3.25 0.5 4.875-17.375 5.875-34.25 12.875-50.375 20.875-1-1.25-1.875-2.625-3.125-3.75l-67.875-67.875c-12.5-12.5-32.75-12.5-45.25 0l-135.75 135.75c-12.5 12.5-12.5 32.75 0 45.25l67.875 67.875c1.125 1.125 2.5 2.125 3.75 3.125-8 16.25-15 33-20.875 50.375-1.625-0.25-3.25-0.5-4.875-0.5L32 384c-17.625 0-32 14.375-32 32L0 608c0 17.625 14.375 32 32 32l96 0c1.625 0 3.25-0.25 4.875-0.5 5.875 17.375 12.875 34.25 20.875 50.375-1.25 1-2.625 1.875-3.75 3l-67.875 67.875c-12.5 12.5-12.5 32.75 0 45.25l135.75 135.75c12.5 12.5 32.75 12.5 45.25 0l67.875-67.875c1.125-1.125 2.125-2.5 3.125-3.75 16.25 8.125 33 15 50.375 20.875-0.25 1.625-0.5 3.25-0.5 4.875L384 992c0 17.625 14.375 32 32 32L608 1024c17.625 0 32-14.375 32-32l0-96c0-1.625-0.25-3.25-0.5-4.875 17.375-5.875 34.25-12.75 50.375-20.875 1 1.25 1.875 2.625 3 3.75l67.875 67.875c12.5 12.5 32.75 12.5 45.25 0l135.75-135.75c12.5-12.5 12.5-32.75 0-45.25l-67.875-67.875c-1.125-1.125-2.5-2.125-3.75-3 8.125-16.25 15-33 20.875-50.375 1.625 0.25 3.25 0.5 4.875 0.5L992 640.125c17.625 0 32-14.375 32-32L1024 416C1024 398.375 1009.625 384 992 384L992 384zM512 800c-159 0-288-129-288-288 0-159 129-288 288-288 159.125 0 288 129 288 288C800 671 671.125 800 512 800L512 800zM512 800" p-id="3095"></path></svg>