<?xml version="1.0" encoding="UTF-8"?>
<svg width="50px" height="50px" viewBox="0 0 50 50" version="1.1" xmlns="http://www.w3.org/2000/svg" xmlns:xlink="http://www.w3.org/1999/xlink">
    <!-- Generator: Sketch 52.5 (67469) - http://www.bohemiancoding.com/sketch -->
    <title>集中交易系统</title>
    <desc>Created with Sketch.</desc>
    <g id="页面-1" stroke="none" stroke-width="1" fill="none" fill-rule="evenodd">
        <g id="1" transform="translate(-299.000000, -325.000000)">
            <g id="集中交易系统" transform="translate(299.000000, 325.000000)">
                <circle id="椭圆形" fill="#1376FF" opacity="0.304547991" cx="25" cy="25" r="25"></circle>
                <circle id="椭圆形" fill="#1376FF" cx="25" cy="25" r="22"></circle>
                <g id="分组-3" transform="translate(11.000000, 11.000000)" fill="#FFFFFF">
                    <path d="M26.2258103,7.17390984 C25.9198062,6.62744751 25.577412,6.10217453 25.2009437,5.60164364 L26.2887122,5.99755374 C26.8076763,6.18644692 27.3814803,5.91884044 27.5703422,5.39993884 C27.7592354,4.881006 27.4916602,4.30720196 26.9727273,4.11830878 L21.3349612,2.06635702 C20.8159971,1.87746384 20.2421931,2.14503907 20.0533311,2.66397191 C19.9948312,2.82408705 19.9784546,2.99654801 20.0057719,3.16481226 C20.0406133,3.45088621 20.1980711,3.71977385 20.4597405,3.88729351 C23.9277193,6.10754613 25.998201,9.88800329 25.998201,14 C25.998201,20.6158235 20.6158235,25.998201 14,25.998201 C13.4472258,25.998201 12.9991005,26.4463263 12.9991005,26.9991005 C12.9991005,27.5518748 13.4472258,28 14,28 C15.8895567,28 17.7230861,27.6297131 19.4497479,26.8993887 C21.116945,26.1942187 22.6140914,25.1849135 23.8994712,23.8994712 C25.1849135,22.6140602 26.1942187,21.116945 26.8993887,19.4497479 C27.6297444,17.7230861 28,15.8895567 28,14 C28,11.6090717 27.38648,9.24864128 26.2258103,7.17390984 Z M7.54022824,24.1127065 C4.07224946,21.8924539 2.00179898,18.1119967 2.00179898,14 C2.00179898,7.38417654 7.38417654,2.00179898 14,2.00179898 C14.5527742,2.00179898 15.0008995,1.55367374 15.0008995,1.00089949 C15.0008995,0.448125241 14.5527742,0 14,0 C12.1104433,0 10.2769139,0.370286877 8.5502521,1.10061134 C6.88302372,1.8057813 5.38590856,2.81508646 4.10049751,4.10049751 C2.81508646,5.38590856 1.80575005,6.88302372 1.10058009,8.5502521 C0.370286877,10.2768826 0,12.1104433 0,14 C0,16.3909596 0.613488799,18.7513587 1.77418973,20.8260589 C2.08017973,21.3725228 2.42256358,21.897796 2.79902507,22.3983251 L1.71128783,22.002415 C1.19232375,21.8135218 0.618519701,22.0811283 0.429657769,22.6000612 C0.240795838,23.1189628 0.508339825,23.692798 1.02727267,23.8816912 L6.6650388,25.9336742 C7.18397164,26.1225362 7.75777569,25.8549609 7.94666887,25.3360281 C8.00535911,25.1753994 8.02164254,25.0023516 7.99394685,24.8335941 C7.95876178,24.5481139 7.80139767,24.2798824 7.54022824,24.1127065 Z" id="形状" fill-rule="nonzero"></path>
                    <path d="M13,20.017292 C13,20.5600539 13.4476875,21 14,21 C14.5523125,21 15,20.5600539 15,20.017292 L15,17.0691679 L19,17.0691679 C19.5522813,17.0691679 20,16.6292219 20,16.0864599 C20,15.543698 19.5522813,15.1037519 19,15.1037519 L15,15.1037519 L15,13.1383359 L19,13.1383359 C19.5522813,13.1383359 20,12.6983591 20,12.1556279 C20,11.6128967 19.5522813,11.1729199 19,11.1729199 L16.6329687,11.1729199 L19.1721875,8.67760926 C19.5626875,8.29383107 19.5627187,7.67162335 19.1721875,7.28784516 C18.7816563,6.90403626 18.1484687,6.90406697 17.7579687,7.28784516 L14.015625,10.9654763 L10.3045313,7.31855478 C9.91403125,6.93477659 9.28084375,6.93474588 8.8903125,7.31855478 C8.49978125,7.70233297 8.4998125,8.32454069 8.8903125,8.70831888 L11.3982813,11.1729199 L9,11.1729199 C8.44771875,11.1729199 8,11.6128967 8,12.1556279 C8,12.6983591 8.44771875,13.1383359 9,13.1383359 L13,13.1383359 L13,15.1037519 L9,15.1037519 C8.44771875,15.1037519 8,15.543698 8,16.0864599 C8,16.6292219 8.44771875,17.0691679 9,17.0691679 L13,17.0691679 L13,20.017292 Z" id="路径"></path>
                </g>
            </g>
        </g>
    </g>
</svg>