<?xml version="1.0" standalone="no"?><!DOCTYPE svg PUBLIC "-//W3C//DTD SVG 1.1//EN" "http://www.w3.org/Graphics/SVG/1.1/DTD/svg11.dtd"><svg t="1537956773711" class="icon" style="" viewBox="0 0 1152 1024" version="1.1" xmlns="http://www.w3.org/2000/svg" p-id="12845" xmlns:xlink="http://www.w3.org/1999/xlink" width="144" height="128"><defs><style type="text/css"></style></defs><path d="M301.2352 603.5456c-24.1152 0-43.7248-19.456-43.7248-43.3664 0-266.4704-203.3152-478.0032-205.44-480.128a43.1872 43.1872 0 0 1 1.024-61.3376A44.0064 44.0064 0 0 1 114.8672 19.712c2.3808 2.4832 58.7008 60.5952 115.1488 155.648 33.2288 55.9104 59.6992 113.152 78.6944 170.4192 23.9616 72.1152 36.1984 144.384 36.1984 214.4a43.52 43.52 0 0 1-43.6992 43.3664z m269.6192 231.3984c-24.0896 0-43.6992-19.456-43.6992-43.392V44.032c0-23.936 19.6096-43.392 43.6992-43.392 24.1152 0 43.7248 19.456 43.7248 43.392v747.6736c0 23.9104-19.4816 43.264-43.7248 43.264z" p-id="12846"></path><path d="M570.9824 876.0832c-12.2368 0-24.3456-2.2272-36.096-6.6816a43.6736 43.6736 0 0 1-14.7456-9.2928l-148.608-142.4128a43.1872 43.1872 0 0 1-1.1264-61.3376 44.0064 44.0064 0 0 1 61.824-1.1264l138.752 132.864 129.28-131.8656a43.8784 43.8784 0 0 1 61.7984-0.8704c17.3568 16.7424 17.7408 44.1344 0.8704 61.3376l-139.1104 142.0288c-4.2496 4.352-9.2416 7.68-14.8736 9.9328-12.2368 4.9408-25.088 7.424-37.9648 7.424z m-271.2576-261.632a84.224 84.224 0 0 1-30.592-5.6832 43.5968 43.5968 0 0 1-14.7456-9.2928L145.7408 495.36a43.1872 43.1872 0 0 1-1.1264-61.3376 44.0064 44.0064 0 0 1 61.824-1.1264l92.928 88.9856 86.272-88.1152a43.8784 43.8784 0 0 1 61.824-0.8704c17.3824 16.7424 17.7408 44.1344 0.8704 61.3632l-101.632 103.7312c-4.2496 4.3264-9.2672 7.68-14.8736 9.9072-10.24 4.4544-21.248 6.5536-32.1024 6.5536z m534.8864-10.9056c-24.0896 0-43.6992-19.456-43.6992-43.3664 0-70.144 12.2368-142.2848 36.224-214.4 18.9696-57.1392 45.44-114.5088 78.6688-170.4192C962.2528 80.3072 1018.5728 22.1952 1020.928 19.712A44.0064 44.0064 0 0 1 1082.7776 18.688c17.3568 16.6144 17.7408 44.1088 0.9984 61.3376-0.512 0.512-52.5824 54.656-103.7824 141.4144a795.5712 795.5712 0 0 0-70.3232 152.832c-20.8384 62.9504-31.3344 125.5168-31.3344 185.856 0 24.064-19.4816 43.392-43.7248 43.392z" p-id="12847"></path><path d="M836.1216 614.4512a85.76 85.76 0 0 1-32.2304-6.2976 44.5696 44.5696 0 0 1-14.848-9.9328l-101.5552-103.7312a43.0848 43.0848 0 0 1 0.896-61.3376 43.8784 43.8784 0 0 1 61.824 0.8704l86.272 88.1152 92.928-88.9856a44.0064 44.0064 0 0 1 61.824 1.1264 43.1872 43.1872 0 0 1-1.1264 61.3376l-108.6464 104.0896c-4.2496 4.096-9.2416 7.1936-14.7456 9.2928-9.856 3.4816-20.224 5.4528-30.592 5.4528z" p-id="12848"></path><path d="M878.208 1022.464H253.1584a252.2112 252.2112 0 0 1-178.8416-73.7536A248.5504 248.5504 0 0 1 0 771.2512v-239.2064c0-23.9104 19.6096-43.3664 43.6992-43.3664 24.1152 0 43.7248 19.456 43.7248 43.3664v239.2064c0 43.7248 17.3568 84.992 48.6912 116.1216A165.1712 165.1712 0 0 0 253.184 935.68h625.0496a165.248 165.248 0 0 0 117.0176-48.3328 162.9184 162.9184 0 0 0 48.7168-116.1216v-239.2064c0-23.9104 19.6096-43.3664 43.6992-43.3664 24.1152 0 43.6992 19.456 43.6992 43.3664v239.2064c0 66.9184-26.3424 129.8688-74.2912 177.4592a252.2112 252.2112 0 0 1-178.8416 73.728z" p-id="12849"></path></svg>