<?xml version="1.0" standalone="no"?><!DOCTYPE svg PUBLIC "-//W3C//DTD SVG 1.1//EN" "http://www.w3.org/Graphics/SVG/1.1/DTD/svg11.dtd"><svg t="1537957247273" class="icon" style="" viewBox="0 0 1024 1024" version="1.1" xmlns="http://www.w3.org/2000/svg" p-id="17592" xmlns:xlink="http://www.w3.org/1999/xlink" width="128" height="128"><defs><style type="text/css"></style></defs><path d="M429.824 896.256a32 32 0 0 1-31.168-39.424l168-707.84a32 32 0 1 1 62.272 14.784l-168 707.84a32 32 0 0 1-31.104 24.64zM338.944 770.944a32 32 0 0 1-22.208-8.96l-242.688-233.6a32 32 0 0 1-0.128-45.952l242.688-235.776a32 32 0 1 1 44.608 45.888l-218.88 212.736 218.816 210.624a32 32 0 0 1-22.208 55.04zM686.144 770.944a32 32 0 0 1-22.144-55.04l218.816-210.624-218.944-212.672a32 32 0 0 1 44.608-45.952l242.688 235.776a32 32 0 0 1-0.128 45.952l-242.688 233.6a32 32 0 0 1-22.208 8.96z" p-id="17593"></path></svg>