<?xml version="1.0" standalone="no"?><!DOCTYPE svg PUBLIC "-//W3C//DTD SVG 1.1//EN" "http://www.w3.org/Graphics/SVG/1.1/DTD/svg11.dtd"><svg t="1537956062720" class="icon" style="" viewBox="0 0 1024 1024" version="1.1" xmlns="http://www.w3.org/2000/svg" p-id="6814" xmlns:xlink="http://www.w3.org/1999/xlink" width="128" height="128"><defs><style type="text/css"></style></defs><path d="M520.864638 453.976915c-51.576076 0-94.018888 41.905561-94.018888 92.944386s42.442812 92.944386 94.018888 92.944386 94.018888-41.905561 94.018888-92.944386-42.442812-92.944386-94.018888-92.944386z m281.519412 92.944386c0-153.116474-126.791186-278.295908-281.519412-278.295908C366.136411 268.625393 239.345226 393.804827 239.345226 546.921301c0 102.07765 56.411333 192.335782 140.759706 241.225604l46.740818-81.124869c-56.411333-32.235047-94.018888-90.258132-94.018887-160.100735 0-102.07765 84.348374-185.351522 187.500524-185.351521s187.500525 83.273872 187.500525 185.351521c0 69.842602-37.607555 127.865687-94.018888 160.100735l46.740819 81.124869c85.422875-48.889822 141.834208-139.147954 141.834207-241.225604zM520.864638 82.736621c-257.880378 0-469.019937 208.990556-469.019937 464.18468 0 171.920252 93.481637 320.201469 234.241343 401.326338l46.740819-81.124869c-112.285414-65.007345-187.500525-183.202518-187.500525-320.201469 0-204.155299 168.696747-371.240294 375.001049-371.240294s375.001049 167.084995 375.00105 371.240294c0 136.998951-75.21511 257.343127-187.500525 320.201469l46.740818 81.124869c140.759706-81.124869 234.241343-229.943337 234.241343-401.326338 1.074502-255.194124-210.065058-464.18468-467.945435-464.18468z" p-id="6815"></path></svg>
