<?xml version="1.0" standalone="no"?><!DOCTYPE svg PUBLIC "-//W3C//DTD SVG 1.1//EN" "http://www.w3.org/Graphics/SVG/1.1/DTD/svg11.dtd"><svg t="1536561322094" class="icon" style="" viewBox="0 0 1024 1024" version="1.1" xmlns="http://www.w3.org/2000/svg" p-id="1865" xmlns:xlink="http://www.w3.org/1999/xlink" width="128" height="128"><defs><style type="text/css"></style></defs><path d="M643.85024 1021.46048c-9.37984 0-23.42912-2.58048-37.51936-14.58176-6.71744-5.98016-12.0832-12.41088-16.01536-19.33312-2.33472-2.6624-4.17792-5.77536-5.36576-9.13408-5.69344-16.1792-15.36-29.85984-29.57312-41.82016-24.86272-21.13536-60.57984-21.87264-87.69536 0.32768-14.82752 12.0832-24.73984 25.3952-30.39232 40.79616-6.67648 16.01536-16.42496 27.11552-29.53216 34.32448-21.87264 12.12416-48.25088 11.83744-78.52032 3.03104-13.14816-3.76832-26.37824-8.43776-39.64928-14.09024-13.9264-5.9392-26.86976-13.1072-38.37952-21.34016-12.16512-8.6016-21.9136-17.94048-28.83584-27.68896-6.84032-9.54368-10.6496-20.72576-11.30496-33.13664-0.65536-11.91936 2.70336-25.27232 10.6496-41.984 5.24288-11.01824 7.168-23.47008 5.9392-38.37952-1.10592-13.312-7.08608-25.64096-18.26816-37.72416-5.28384-5.69344-11.42784-9.216-19.29216-10.97728-8.88832-2.00704-17.53088-3.03104-25.64096-3.03104l-5.16096 0.16384c-11.79648 0.53248-24.04352 2.78528-36.70016 6.84032-18.67776 5.3248-34.11968 3.76832-50.25792-3.072-12.16512-4.3008-24.3712-14.62272-34.73408-30.14656-7.41376-11.22304-14.1312-23.87968-20.19328-37.76512-5.9392-13.76256-10.52672-28.13952-13.7216-42.72128-3.64544-16.75264-4.38272-30.80192-2.37568-43.008 4.75136-34.97984 27.60704-48.128 40.83712-52.71552 14.90944-5.98016 29.32736-16.5888 42.76224-31.90784 11.50976-13.14816 17.12128-27.2384 17.12128-43.008 0-16.34304-5.24288-29.65504-16.5888-41.82016-13.43488-14.49984-28.0576-24.7808-44.6464-31.49824-7.5776-2.37568-21.17632-10.0352-31.08864-29.0816C3.2768 394.56768 0 381.66528 0 368.64 0 357.1712 1.6384 345.00608 5.03808 331.3664c3.03104-12.288 7.24992-24.61696 12.45184-36.70016 5.16096-11.79648 11.264-22.97856 18.26816-33.30048 8.51968-12.36992 18.10432-21.79072 28.71296-28.13952 9.0112-5.65248 19.00544-8.68352 29.2864-8.68352 1.31072 0 5.16096 0.24576 6.47168 0.4096 6.88128 0.90112 14.49984 2.70336 22.81472 5.44768C141.14816 237.568 156.54912 239.16544 173.71136 236.83072 189.6448 234.65984 203.48928 227.77856 215.98208 215.81824 220.20096 211.59936 223.6416 205.70112 225.97632 198.36928c3.19488-10.24 5.12-19.70176 5.85728-28.71296 0.94208-9.87136 0.94208-18.432 0.08192-25.84576C231.2192 136.15104 230.48192 130.58048 229.94944 126.81216 228.51584 122.14272 227.20512 116.89984 226.14016 111.0016 223.88736 99.16416 225.28 87.57248 230.1952 77.45536c5.85728-13.76256 17.08032-26.74688 32.768-37.23264 12.36992-8.3968 26.05056-15.52384 40.5504-21.17632 13.7216-5.28384 27.48416-9.37984 40.96-12.20608 13.88544-2.8672 25.02656-4.25984 34.16064-4.25984 17.8176 0 33.09568 6.59456 44.15488 19.08736 7.86432 8.92928 13.55776 18.55488 16.95744 28.672 4.9152 11.8784 14.17216 23.87968 27.52512 34.85696C491.52 104.98048 529.16224 103.50592 554.72128 85.03296c13.68064-9.8304 22.97856-21.79072 28.38528-36.61824 5.5296-11.50976 11.59168-19.74272 20.02944-28.13952 14.49984-14.62272 29.65504-17.69472 39.81312-17.69472 12.20608 0 25.23136 1.67936 38.78912 4.99712 12.94336 3.11296 26.0096 7.53664 38.54336 13.06624 13.39392 5.7344 26.17344 13.47584 37.60128 22.89664 11.6736 9.4208 21.42208 20.31616 28.79488 32.19456 7.70048 12.12416 10.15808 26.25536 7.08608 40.63232-2.12992 9.78944-4.13696 16.22016-6.79936 21.42208-5.85728 13.02528-7.7824 27.89376-5.3248 44.032 2.4576 15.31904 9.4208 28.672 21.34016 40.67328 11.10016 11.0592 24.65792 17.08032 41.3696 18.26816 18.55488 1.31072 36.00384-1.59744 52.0192-9.05216 5.98016-4.096 16.95744-7.12704 29.04064-7.12704 0.94208 0 5.85728 0.2048 6.79936 0.28672 15.03232 1.4336 28.0576 7.41376 38.7072 17.85856 13.23008 12.288 24.65792 30.18752 34.36544 54.19008 8.84736 21.83168 14.90944 44.19584 17.94048 66.51904 2.49856 20.43904-1.51552 37.19168-11.83744 50.33984-9.216 11.42784-18.80064 18.75968-29.65504 22.7328-16.26112 5.77536-29.696 15.5648-41.32864 30.02368-10.73152 13.312-15.93344 28.0576-15.93344 44.97408 0 16.7936 4.3008 30.96576 13.18912 43.25376 9.13408 12.45184 20.80768 21.25824 35.6352 26.624 1.55648 0.6144 3.072 1.2288 4.5056 2.08896 6.30784 3.56352 11.71456 7.24992 16.22016 10.77248 13.06624 10.6496 21.7088 23.7568 26.17344 39.48544 2.78528 15.44192 2.41664 28.672-0.45056 43.8272-2.29376 13.23008-6.30784 27.32032-12.00128 41.3696-5.7344 14.21312-12.77952 27.2384-21.01248 38.7072-9.50272 13.47584-20.97152 23.67488-33.91488 30.14656-23.92064 12.04224-43.66336 11.96032-66.72384 3.4816-4.096-1.14688-11.50976-2.6624-20.35712-4.21888-7.49568-1.2288-15.52384-1.4336-23.63392-0.73728-8.192 0.8192-16.7936 2.58048-25.27232 5.3248-5.48864 1.72032-10.15808 4.7104-13.9264 8.88832-12.65664 13.1072-19.37408 26.54208-21.2992 41.7792-2.00704 16.384 0.24576 31.58016 6.88128 46.36672 11.10016 22.24128 9.4208 47.63648-5.36576 70.4512-7.45472 10.0352-16.384 17.94048-28.50816 25.92768-9.95328 6.51264-21.25824 12.65664-33.54624 18.2272-11.96032 5.48864-25.14944 9.95328-39.19872 13.27104C667.4432 1019.86304 655.03232 1021.46048 643.85024 1021.46048zM164.49536 725.27872c12.6976 0 25.88672 1.51552 39.19872 4.54656 19.8656 4.46464 36.94592 14.25408 50.74944 29.04064 20.60288 22.24128 32.19456 47.26784 34.48832 74.38336 2.12992 25.76384-1.76128 49.27488-11.71456 69.91872-4.38272 9.29792-4.75136 12.94336-4.75136 13.1072 2.00704 2.78528 6.10304 7.3728 14.41792 13.23008 7.9872 5.7344 16.91648 10.69056 26.74688 14.82752 10.93632 4.62848 21.79072 8.47872 32.60416 11.59168 14.78656 4.25984 28.22144 4.25984 31.90784 2.2528 10.93632-27.40224 27.48416-50.01216 50.70848-68.97664 49.47968-40.46848 119.27552-39.48544 166.2976 0.4096 20.31616 17.2032 35.4304 37.6832 45.056 60.94848 1.26976 1.8432 2.41664 3.85024 3.2768 5.98016 0.16384 0.32768 0.73728 1.51552 2.62144 3.31776 6.06208-0.2048 13.47584-1.31072 21.99552-3.23584 9.8304-2.33472 19.29216-5.5296 27.648-9.33888 9.17504-4.17792 17.65376-8.68352 25.35424-13.7216 8.35584-5.5296 11.22304-8.88832 11.8784-9.74848 2.58048-4.096 1.51552-6.22592 0.16384-8.92928-11.75552-26.13248-15.7696-52.71552-12.32896-80.24064 3.56352-28.50816 16.1792-54.14912 37.39648-76.1856 10.48576-11.59168 24.20736-20.35712 40.05888-25.43616 12.65664-4.01408 25.51808-6.67648 38.33856-7.90528 13.96736-1.2288 26.46016-0.86016 39.44448 1.26976 12.00128 2.048 21.83168 4.21888 29.696 6.5536 6.7584 2.41664 9.95328 2.78528 11.75552 2.78528-0.04096 0 2.41664-0.16384 7.90528-2.94912 3.85024-1.92512 7.74144-5.69344 11.42784-10.89536 5.44768-7.61856 10.15808-16.30208 14.09024-26.09152 4.096-9.99424 6.92224-19.74272 8.51968-29.16352 1.92512-10.28096 1.6384-16.26112 1.06496-19.57888-0.24576-0.16384-1.92512-2.70336-4.58752-4.9152-1.51552-1.14688-3.6864-2.6624-6.18496-4.17792-25.02656-9.66656-45.75232-25.55904-61.60384-47.18592-16.62976-22.97856-24.94464-49.64352-24.94464-79.38048 0-31.04768 9.91232-59.14624 29.4912-83.51744 18.6368-23.1424 41.49248-39.69024 67.95264-49.152l0 0c-0.24576 0 0.73728-0.77824 2.33472-2.70336-0.24576 0.28672-0.16384-1.51552-0.57344-4.87424-2.29376-16.71168-7.00416-34.11968-13.9264-51.24096-7.74144-19.08736-15.03232-28.34432-19.74272-32.768l-4.05504-1.14688c-27.97568 13.35296-55.37792 18.06336-84.5824 15.9744-31.58016-2.29376-58.65472-14.45888-80.40448-36.08576-21.21728-21.2992-34.16064-46.36672-38.58432-74.62912-4.3008-28.01664-0.77824-54.8864 10.6496-80.11776 0.65536-1.55648 1.06496-3.23584 1.51552-5.16096-3.6864-5.36576-8.27392-10.19904-14.04928-14.86848-7.168-5.85728-14.90944-10.56768-23.26528-14.17216-9.50272-4.21888-19.0464-7.41376-28.54912-9.70752-7.53664-1.8432-14.5408-2.90816-20.97152-3.19488-4.79232 4.9152-6.3488 7.53664-6.84032 8.51968-8.35584 23.26528-25.23136 45.21984-48.82432 62.21824-47.59552 34.28352-116.69504 35.06176-162.28352-2.17088C407.1424 115.3024 391.61856 94.78144 382.1568 71.68 380.68224 67.50208 379.12576 65.00352 376.75008 62.30016c-0.86016 1.67936-7.24992 2.048-19.74272 4.66944C346.80832 69.14048 336.24064 72.2944 325.67296 76.34944 315.55584 80.2816 305.9712 85.31968 297.24672 91.17696 292.2496 94.53568 288.768 97.93536 286.84288 101.41696c0.65536 3.15392 1.35168 5.98016 2.17088 8.43776C289.5872 111.49312 289.9968 113.17248 290.28352 114.85184c0.73728 4.5056 1.72032 11.91936 2.74432 22.48704 1.26976 11.10016 1.31072 23.9616 0 37.6832-1.06496 13.14816-3.85024 26.95168-8.43776 41.7792C279.22432 233.6768 270.62272 248.0128 258.94912 259.72736 236.50304 281.14944 210.82112 293.76512 182.02624 297.69728 154.46016 301.50656 127.3856 298.31168 101.94944 288.11264c-1.72032-0.53248-4.096-1.18784-6.59456-1.72032C93.06112 288.03072 90.112 290.73408 86.50752 295.97696 81.75616 302.98112 77.45536 310.8864 73.80992 319.16032 70.00064 328.00768 66.88768 337.14176 64.67584 346.15296 62.50496 354.75456 61.44 362.33216 61.44 368.64c0 3.072 0.90112 6.38976 2.74432 9.91232 0.8192 1.47456-0.45056 0.4096-2.53952-0.24576 26.91072 10.73152 49.39776 26.46016 68.85376 47.47264 21.87264 23.63392 32.9728 51.73248 32.9728 83.59936 0 30.88384-10.89536 58.9824-32.3584 83.51744-19.70176 22.48704-42.3936 38.912-67.46112 48.9472-0.16384-0.2048-1.10592 0.86016-1.59744 4.42368-0.45056 2.82624-0.94208 8.72448 1.6384 20.72576 2.37568 10.73152 5.7344 21.2992 10.07616 31.37536 4.58752 10.56768 9.66656 20.0704 14.99136 28.18048 3.85024 5.7344 6.18496 7.04512 6.18496 7.08608 3.31776 1.31072 5.12 1.76128 6.7584 1.76128 20.02944-5.85728 37.64224-9.13408 54.55872-9.8304C158.80192 725.36064 161.62816 725.27872 164.49536 725.27872zM510.7712 765.37856c-34.93888 0-68.36224-6.71744-99.328-19.94752-30.88384-13.312-58.08128-31.78496-80.97792-55.00928-22.9376-23.26528-41.20576-50.46272-54.35392-80.85504-13.312-30.9248-20.0704-64.18432-20.0704-99.04128 0-34.93888 6.7584-68.23936 20.0704-99.04128 13.23008-30.59712 31.58016-57.71264 54.59968-80.60928 22.85568-22.85568 50.05312-41.12384 80.6912-54.272 61.89056-26.50112 136.76544-26.50112 199.0656-0.04096 30.80192 12.94336 58.24512 31.25248 81.42848 54.31296 23.01952 22.89664 41.3696 50.01216 54.55872 80.65024 13.27104 30.72 19.98848 64.02048 19.98848 99.04128 0 34.93888-6.71744 68.23936-19.98848 99.00032-13.06624 30.35136-31.37536 57.58976-54.31296 80.896-23.18336 23.42912-50.66752 41.90208-81.75616 55.05024C579.3792 758.62016 545.75104 765.37856 510.7712 765.37856zM510.7712 318.01344c-26.624 0-51.89632 5.07904-75.12064 15.03232-23.47008 10.0352-44.19584 23.92064-61.52192 41.28768-17.48992 17.408-31.45728 38.05184-41.5744 61.44-9.99424 23.10144-15.03232 48.20992-15.03232 74.71104 0 26.4192 5.07904 51.52768 15.03232 74.71104 10.11712 23.3472 24.1664 44.2368 41.73824 62.09536 17.24416 17.53088 37.92896 31.5392 61.44 41.69728 46.53056 19.90656 103.91552 19.82464 150.69184-0.08192 23.7568-9.99424 44.56448-24.00256 62.01344-41.65632 17.85856-18.06336 31.45728-38.37952 41.69728-62.0544 9.91232-23.06048 14.9504-48.20992 14.9504-74.71104 0-26.54208-5.03808-51.69152-14.9504-74.71104-10.07616-23.42912-24.08448-44.07296-41.49248-61.39904-17.57184-17.44896-38.46144-31.37536-62.09536-41.28768C562.87232 323.09248 537.43616 318.01344 510.7712 318.01344z" p-id="1866"></path></svg>