<?xml version="1.0" standalone="no"?><!DOCTYPE svg PUBLIC "-//W3C//DTD SVG 1.1//EN" "http://www.w3.org/Graphics/SVG/1.1/DTD/svg11.dtd"><svg t="1536561432546" class="icon" style="" viewBox="0 0 1024 1024" version="1.1" xmlns="http://www.w3.org/2000/svg" p-id="2256" xmlns:xlink="http://www.w3.org/1999/xlink" width="128" height="128"><defs><style type="text/css"></style></defs><path d="M152.496793 273.509776c-28.007596 0-57.427943-11.701093-80.311322-34.584472L9.912669 176.64452a95.117275 95.117275 0 0 1-4.373942-4.725134c-6.959995-7.861921-7.119628-20.36916 0.311285-27.800073L110.992234 38.969109a19.874298 19.874298 0 0 1 27.257321-0.790183l0.638531 0.566697c1.564403 1.388806 3.120824 2.785594 4.621373 4.286144l62.288765 62.288765c42.087219 42.087219 46.365381 106.291579 9.538067 143.126875-16.817328 16.817328-39.333551 25.062368-62.839498 25.062369zM47.809524 158.342606l52.471341 52.487304c26.602826 26.594844 65.601148 30.865025 86.944069 9.530085 21.33494-21.342921 17.064759-60.341243-9.530085-86.944069l-52.479322-52.479322-77.406003 77.406002z" p-id="2257"></path><path d="M335.308412 388.301808a19.802464 19.802464 0 0 1-14.047697-5.81862L198.279514 259.51795a19.874298 19.874298 0 0 1 28.095394-28.095393l122.981201 122.973219a19.874298 19.874298 0 0 1-14.047697 33.906032zM891.317851 1024c-3.208622 0-6.441188-0.135688-9.705682-0.407064-30.138695-2.498255-59.303629-16.434209-82.115174-39.253735L582.428152 767.278339a19.874298 19.874298 0 0 1 28.095394-28.095393l217.068843 217.060861c16.170815 16.170815 36.531994 26.028147 57.308218 27.744202 19.547051 1.644219 37.082727-4.270181 49.382444-16.58586 12.323661-12.31568 18.214116-29.859338 16.593842-49.390426-1.716054-20.776224-11.573387-41.129422-27.744202-57.308218L738.557129 676.143906a19.874298 19.874298 0 0 1 28.095393-28.095394l184.567581 184.567581c22.819526 22.819526 36.75548 51.98446 39.253735 82.115174 2.602017 31.37585-7.383023 60.061886-28.095394 80.774257-18.549345 18.549345-43.49997 28.494476-71.060593 28.494476z" p-id="2258"></path><path d="M155.457983 1015.778905c-37.569608 0-74.325087-15.069348-104.615433-45.367676-31.695116-31.687134-46.437216-70.525824-42.645935-112.30974 3.464034-38.128323 22.98714-76.735544 54.961614-108.710018l384.827079-376.047268c-24.735121-116.324508-2.394494-222.368656 60.588674-285.351824C581.805584 14.77674 685.926155-15.314065 787.181316 7.465553a19.866317 19.866317 0 0 1 9.681736 33.435115l-65.609129 65.617111c-24.519616 24.519616-38.01658 57.116658-38.01658 91.780947s13.504945 67.26133 38.01658 91.780947c50.619599 50.611617 132.958258 50.611617 183.569875 0l65.60913-65.60913a19.874298 19.874298 0 0 1 33.427133 9.681737c22.803562 101.231216-7.311188 205.383714-80.534808 278.607333-89.115077 89.123059-235.243051 70.054907-293.062094 57.970695l-366.644889 391.72322c-35.486398 35.49438-77.302241 53.325377-118.160287 53.325377zM720.406866 39.743329c-68.290963 0-134.17945 26.786404-183.73749 76.344444C454.945303 197.811845 479.624552 335.096156 489.130692 375.21989a19.850353 19.850353 0 0 1-5.451464 18.788795L91.086009 777.646498c-25.245946 25.253928-40.690431 55.153174-43.316393 84.054713-2.689815 29.651815 8.085407 57.531704 31.168328 80.614624 47.442904 47.442904 114.20139 44.433823 166.129978-7.486784L618.992072 535.2918a19.898243 19.898243 0 0 1 19.092097-5.754767c86.832326 20.60861 202.646009 19.618886 267.14569-44.880795 54.530605-54.530605 81.492605-128.831747 75.538298-204.338118l-37.848965 37.856946c-66.103992 66.09601-173.656671 66.103992-239.760663 0-32.022364-32.022364-49.661801-74.596463-49.661801-119.87634s17.639438-87.853977 49.661801-119.884322l37.848965-37.856947a262.117253 262.117253 0 0 0-20.600628-0.814128z" p-id="2259"></path></svg>