<?xml version="1.0" standalone="no"?><!DOCTYPE svg PUBLIC "-//W3C//DTD SVG 1.1//EN" "http://www.w3.org/Graphics/SVG/1.1/DTD/svg11.dtd"><svg t="1539338000155" class="icon" style="" viewBox="0 0 1024 1024" version="1.1" xmlns="http://www.w3.org/2000/svg" p-id="1561" xmlns:xlink="http://www.w3.org/1999/xlink" width="128" height="128"><defs><style type="text/css"></style></defs><path d="M96.256 717.312l0.512-531.456C108.544 64.512 195.584 0 332.8 0c136.192 0 224.768 62.976 242.688 182.272l0.512 9.728V819.2c24.576 53.76 60.416 76.8 115.2 76.8 54.272 0 87.552-22.528 109.056-75.776V306.688c-56.32-24.576-96.256-80.896-96.256-146.432 0-88.064 71.68-159.744 159.744-159.744S1024 71.68 1024 159.744c0 65.536-39.424 121.856-96.256 146.432v536.064l-3.584 10.24C885.76 963.584 804.352 1024 691.2 1024c-112.128 0-195.072-59.392-238.592-168.448l-4.608-11.264V197.12C439.296 148.992 407.552 128 332.8 128c-76.288 0-103.936 20.992-108.544 64v525.312c56.32 24.576 96.256 80.896 96.256 146.432 0 88.064-71.68 159.744-159.744 159.744S0 952.32 0 864.256c0-65.536 39.424-122.368 96.256-146.944z" p-id="1562"></path></svg>