<?xml version="1.0" standalone="no"?><!DOCTYPE svg PUBLIC "-//W3C//DTD SVG 1.1//EN" "http://www.w3.org/Graphics/SVG/1.1/DTD/svg11.dtd"><svg t="1536802177655" class="icon" style="" viewBox="0 0 1029 1024" version="1.1" xmlns="http://www.w3.org/2000/svg" p-id="1877" xmlns:xlink="http://www.w3.org/1999/xlink" width="128.625" height="128"><defs><style type="text/css"></style></defs><path d="M1024 151.04L876.373333 2.56c-6.826667-6.826667-17.066667-6.826667-23.893333 0L460.8 393.386667c-6.826667 6.826667-6.826667 17.066667 0 23.893333l148.48 148.48c6.826667 6.826667 17.066667 6.826667 23.893333 0L1024 174.933333c6.826667-6.826667 6.826667-17.066667 0-23.893333zM395.093333 486.4l-51.2 192c-0.853333 3.413333 1.706667 5.973333 5.12 5.12L541.013333 631.466667c3.413333-0.853333 4.266667-5.12 1.706667-6.826667L402.773333 484.693333c-2.56-2.56-6.826667-1.706667-7.68 1.706667z" p-id="1878"></path><path d="M916.48 472.746667c-9.386667 0-17.066667 7.68-17.066667 17.066666v452.266667c0 23.893333-19.626667 42.666667-42.666666 42.666667H76.8c-23.893333 0-42.666667-19.626667-42.666667-42.666667V162.986667c0-23.893333 19.626667-42.666667 42.666667-42.666667h453.12c9.386667 0 17.066667-7.68 17.066667-17.066667s-7.68-17.066667-17.066667-17.066666H76.8c-42.666667 0-76.8 34.133333-76.8 76.8v779.093333c0 42.666667 34.133333 76.8 76.8 76.8h779.093333c42.666667 0 76.8-34.133333 76.8-76.8v-452.266667c0.853333-9.386667-6.826667-17.066667-16.213333-17.066666z" p-id="1879"></path></svg>