<?xml version="1.0" encoding="UTF-8"?>
<svg width="28px" height="28px" viewBox="0 0 28 28" version="1.1" xmlns="http://www.w3.org/2000/svg" xmlns:xlink="http://www.w3.org/1999/xlink">
    <!-- Generator: Sketch 52.5 (67469) - http://www.bohemiancoding.com/sketch -->
    <title>kh</title>
    <desc>Created with Sketch.</desc>
    <g id="页面-1" stroke="none" stroke-width="1" fill="none" fill-rule="evenodd">
        <g id="1" transform="translate(-288.000000, -208.000000)">
            <g id="kh" transform="translate(288.000000, 208.000000)">
                <rect id="Rectangle-2" fill="#FFCE3D" x="0" y="0" width="28" height="28" rx="4"></rect>
                <g id="kehu" transform="translate(6.000000, 6.000000)" fill="#FFFFFF" fill-rule="nonzero">
                    <path d="M12.4932443,4.29354423 C12.4932443,4.19456309 12.4899958,4.09550138 12.4834988,3.99885648 C12.3317444,1.63300309 10.4239559,-0.152766027 8.2234785,0.0103407172 C6.02190159,0.173420608 4.36234779,2.22358699 4.51412726,4.58825884 C4.66585675,6.95413908 6.57367018,8.73988134 8.77412261,8.5767746 C10.9020088,8.49524808 12.5658856,6.57902579 12.4932443,4.29354423 Z M11.6885433,9.60068967 L10.6251624,9.60068967 L10.305386,10.2879722 L8.50599721,12.2251669 L6.68599298,10.2728538 L6.37488755,9.60071652 L5.31150671,9.60071652 C2.37717031,9.60071652 0,10.9927362 0,14.1460616 L0,14.7168547 C0,15.9784212 0.950633235,17 2.12461268,17 L14.8743128,17 C16.0493418,17 17,15.9784212 17,14.7168547 L17,14.1460616 C17,10.9927093 14.6228547,9.60068967 11.6885433,9.60068967 Z" id="形状"></path>
                </g>
            </g>
        </g>
    </g>
</svg>