<?xml version="1.0" encoding="UTF-8"?>
<svg width="24px" height="22px" viewBox="0 0 24 22" version="1.1" xmlns="http://www.w3.org/2000/svg" xmlns:xlink="http://www.w3.org/1999/xlink">
    <!-- Generator: Sketch 52.5 (67469) - http://www.bohemiancoding.com/sketch -->
    <title>成交</title>
    <desc>Created with Sketch.</desc>
    <g id="页面-1" stroke="none" stroke-width="1" fill="none" fill-rule="evenodd">
        <g id="1" transform="translate(-1114.000000, -779.000000)" fill="#007AFF" fill-rule="nonzero">
            <g id="成交" transform="translate(1114.000000, 779.000000)">
                <path d="M22.4094292,12.8104492 C21.3822837,11.7912484 20.1395379,11 18.6938709,11 C17.2427144,11 15.7618246,11.7913034 14.7403916,12.8104492 C13.7133854,13.829705 12.8571429,15.3241387 12.8571429,16.7587731 C12.8571429,18.1989887 13.7134412,19.4077053 14.7403916,20.4213523 C15.7673979,21.4406081 17.1292435,22 18.574799,22 C20.0261227,22 21.3878847,21.4405531 22.4094292,20.4213523 C23.436324,19.4020966 24,18.0505764 24,16.6159695 C23.9943711,15.1812801 23.430695,13.8241512 22.4094292,12.8104492 M22.1246374,14.6715698 L17.1795697,19.5792951 C17.1739965,19.5848488 17.1683675,19.5848488 17.1683675,19.5904026 C17.1627943,19.5959564 17.1627943,19.6015102 17.1571653,19.6015102 C17.0678544,19.6901507 16.9562784,19.7289446 16.8445352,19.7289446 C16.7329035,19.7289446 16.6156707,19.6845969 16.5319609,19.6015102 L14.4165872,17.502237 C14.2435943,17.3304273 14.2435943,17.0535358 14.4165872,16.8762547 C14.5896638,16.7045 14.8686594,16.7045 15.0473371,16.8762547 L16.8501363,18.6653961 L21.5106908,14.0401712 C21.6837673,13.868444 21.9626515,13.868444 22.1413849,14.0401712 C22.2976024,14.2229235 22.2976024,14.49998 22.124498,14.6716523 L22.1246374,14.6715698" id="形状"></path>
                <path d="M19.3379918,5.67920062e-05 L18.2926883,0 L18.2926883,5.67920062e-05 L16.7247467,5.67920062e-05 C16.0430473,5.67920062e-05 15.1568051,5.67920062e-05 15.1568051,5.67920062e-05 L6.27176627,0 L6.27176627,5.67920062e-05 L4.7038247,5.67920062e-05 C4.02212529,5.67920062e-05 3.13588313,5.67920062e-05 3.13588313,5.67920062e-05 L3.13588313,0 L1.56794157,0 C0.660893779,0 0,1.21006528 0,2.61142659 L0,18.3068153 C0,19.7081482 0.919646422,21.0833333 2.09060707,21.0833333 L14.6341946,21.0833333 C14.2933174,21.0147984 14.3657528,20.7091733 14.2943055,20.6405247 C13.7225355,20.0457127 13.2771637,19.3535208 12.9638444,18.5871727 C12.7549374,18.0723655 12.6223359,17.2892952 12.5435875,16.7585608 L5.22649023,16.7585608 C5.00144377,16.7585608 4.7038522,16.4391095 4.7038522,16.2179749 C4.7038522,15.9968687 5.00138889,15.677389 5.22649023,15.677389 L12.5435875,15.677389 C12.5435875,14.831689 12.6449805,14.3487077 12.9692791,13.5537134 C13.2001445,12.9874907 13.2199345,12.9551538 13.588891,12.4338168 L5.2264353,12.4338168 C5.00619226,12.4338168 4.70379726,12.1445447 4.70379726,11.8932309 C4.70379726,11.642059 5.00613738,11.3526449 5.2264353,11.3526449 L14.6663636,11.3415158 C15.1288081,10.9019154 15.7125455,10.3507114 16.2733638,10.1046214 C17.0430067,9.76717044 17.8566763,9.59560587 18.6923317,9.59560587 C19.5333669,9.59560587 20.3470914,9.76719882 21.1112173,10.1046214 C21.1332306,10.116148 21.4010136,10.2600033 21.4285714,10.2714447 L21.4285714,2.16237206 C21.4285714,0.761039129 20.2450396,5.67920062e-05 19.3379918,5.67920062e-05 Z M2.61612711,16.762422 C2.32465641,16.762422 2.09337927,16.5166727 2.09337927,16.2185711 C2.09337927,15.9152457 2.3296245,15.6746635 2.61612711,15.6746635 C2.90265714,15.6746635 3.13887496,15.9204696 3.13887496,16.2185711 C3.14389795,16.5166727 2.90765272,16.762422 2.61612711,16.762422 Z M2.61612711,12.4332489 C2.32465641,12.4332489 2.09337927,12.1875565 2.09337927,11.8893413 C2.09337927,11.5861295 2.3296245,11.3454905 2.61612711,11.3454905 C2.90265714,11.3454905 3.13887496,11.5912965 3.13887496,11.8893413 C3.14389795,12.1875565 2.90765272,12.4332489 2.61612711,12.4332489 Z M2.61612711,7.0233867 C2.32465641,7.0233867 2.09337927,6.78104431 2.09337927,6.48717295 C2.09337927,6.1932448 2.3296245,5.9509592 2.61612711,5.9509592 C2.90265714,5.9509592 3.13887496,6.1932448 3.13887496,6.48717295 C3.13887496,6.78104431 2.90765272,7.0233867 2.61612711,7.0233867 Z M19.3454577,6.53435817 C19.3454577,6.80054869 19.1611716,7.02029214 18.9374701,7.02029214 L5.10371513,7.02029214 C4.88012344,7.02029214 4.69572754,6.80060548 4.69572754,6.53435817 L4.69572754,6.44120852 C4.69572754,6.17496121 4.88012344,5.95533135 5.10371513,5.95533135 L18.9374701,5.95533135 C19.1611716,5.95533135 19.3454577,6.17493283 19.3454577,6.44120852 L19.3454577,6.53435817 Z" id="形状"></path>
            </g>
        </g>
    </g>
</svg>