<?xml version="1.0" standalone="no"?><!DOCTYPE svg PUBLIC "-//W3C//DTD SVG 1.1//EN" "http://www.w3.org/Graphics/SVG/1.1/DTD/svg11.dtd"><svg t="1536801394092" class="icon" style="" viewBox="0 0 1024 1024" version="1.1" xmlns="http://www.w3.org/2000/svg" p-id="6227" xmlns:xlink="http://www.w3.org/1999/xlink" width="250" height="250"><defs><style type="text/css"></style></defs><path d="M690.898109 0l0 63.892182 0 530.30511-63.892182 108.616709L627.005927 63.892182 64.754726 63.892182l0 766.706183 562.251201 0-31.946091 63.892182L64.754726 894.490547 0.862544 894.490547 0.862544 0l63.892182 0L690.898109 0z" p-id="6228"></path><path d="M141.425345 479.191365l415.299183 0L556.724527 415.299183 141.425345 415.299183 141.425345 479.191365zM141.425345 619.754165l415.299183 0L556.724527 549.472765 141.425345 549.472765 141.425345 619.754165zM141.425345 345.017782l415.299183 0L556.724527 274.736382 141.425345 274.736382 141.425345 345.017782z" p-id="6229"></path><path d="M967.980533 924.689586l-33.693143-58.651026 0-122.29363c0-24.957884-8.735259-52.411556-26.205778-74.873651-17.470519-23.709989-41.180508-42.428402-67.386286-52.411556 0 0 0 0 0 0 0 0-2.495788-1.247894-6.239471-1.247894L834.455856 611.468148c0-22.462095-17.470519-39.932614-39.932614-39.932614-22.462095 0-39.932614 17.470519-39.932614 39.932614l0 3.743683c-2.495788 1.247894-4.991577 1.247894-4.991577 1.247894 0 0 0 0 0 0-26.205778 9.983153-51.163661 28.701566-68.63418 52.411556-17.470519 23.709989-26.205778 49.915767-26.205778 76.121545l0 122.29363-34.941037 62.394709c-3.743683 7.487365-3.743683 16.222624 0 23.709989 3.743683 7.487365 12.478942 12.478942 21.214201 12.478942l87.352593 0c4.991577 32.445249 33.693143 57.403132 67.386286 57.403132 33.693143 0 62.394709-24.957884 67.386286-57.403132l87.352593 0c13.726836 0 23.709989-11.231048 23.709989-23.709989C974.220004 934.67274 972.97211 928.433269 967.980533 924.689586L967.980533 924.689586 967.980533 924.689586zM795.771136 591.501841c9.983153 0 18.718413 7.487365 18.718413 17.470519-2.495788 0-3.743683-1.247894-6.239471-1.247894-1.247894 0-1.247894 0-2.495788 0 0 0-1.247894 0-1.247894 0-2.495788 0-6.239471-1.247894-8.735259-1.247894-3.743683 0-6.239471 0-8.735259 1.247894 0 0-1.247894 0-1.247894 0-1.247894 0-2.495788 0-2.495788 0-2.495788 0-3.743683 0-6.239471 1.247894C777.052724 600.2371 785.787983 591.501841 795.771136 591.501841L795.771136 591.501841 795.771136 591.501841zM795.771136 997.067449c-21.214201 0-38.68472-14.97473-42.428402-33.693143l84.856804 0C834.455856 983.340613 816.985337 997.067449 795.771136 997.067449L795.771136 997.067449 795.771136 997.067449zM935.535284 928.433269 656.006988 928.433269c-1.247894 0-2.495788 0-2.495788-1.247894 0-1.247894 0-2.495788 0-3.743683l34.941037-56.155238c1.247894-1.247894 1.247894-3.743683 1.247894-4.991577l0-118.549947c0-42.428402 26.205778-81.113122 69.882074-97.335746 1.247894 0 12.478942-3.743683 23.709989-6.239471 1.247894 0 1.247894 0 2.495788 0 1.247894 0 2.495788 0 3.743683 0 2.495788 0 3.743683 0 4.991577 0 1.247894 0 3.743683 0 4.991577 0 1.247894 0 2.495788 0 3.743683 0 1.247894 0 1.247894 0 1.247894 0 11.231048 2.495788 23.709989 6.239471 24.957884 6.239471 42.428402 16.222624 68.63418 54.907344 68.63418 96.087852l0 118.549947c0 1.247894 0 3.743683 1.247894 4.991577l32.445249 52.411556c0 1.247894 1.247894 1.247894 1.247894 2.495788 0 0 1.247894 1.247894 1.247894 2.495788C938.031073 927.185375 936.783178 928.433269 935.535284 928.433269L935.535284 928.433269 935.535284 928.433269z" p-id="6230"></path></svg>