<?xml version="1.0" standalone="no"?><!DOCTYPE svg PUBLIC "-//W3C//DTD SVG 1.1//EN" "http://www.w3.org/Graphics/SVG/1.1/DTD/svg11.dtd"><svg t="1539846009344" class="icon" style="" viewBox="0 0 1024 1024" version="1.1" xmlns="http://www.w3.org/2000/svg" p-id="2041" xmlns:xlink="http://www.w3.org/1999/xlink" width="200" height="200"><defs><style type="text/css"></style></defs><path d="M541.9 626.8l124-137.8c6.6-7.3 10.6-17 10.6-27.6 0-22.8-18.5-41.3-41.3-41.3-12.2 0-23.2 5.3-30.7 13.7l-51.9 57.7V220.3c0-22.8-18.5-41.3-41.3-41.3-22.8 0-41.3 18.5-41.3 41.3v271.1l-51.9-57.7c-7.6-8.4-18.5-13.7-30.7-13.7-22.8 0-41.3 18.5-41.3 41.3 0 10.6 4 20.3 10.6 27.6l124 137.8c7.6 8.4 18.5 13.7 30.7 13.7 12 0.1 22.9-5.2 30.5-13.6z m244.8-30.2v165.3h-551V596.6c0-22.8-18.5-41.3-41.3-41.3-22.8 0-41.3 18.5-41.3 41.3v206.6c0 22.8 18.5 41.3 41.3 41.3H828c22.8 0 41.3-18.5 41.3-41.3V596.6c0-22.8-18.5-41.3-41.3-41.3-22.8-0.1-41.3 18.5-41.3 41.3z m0 0" fill="" p-id="2042"></path></svg>