<?xml version="1.0" standalone="no"?><!DOCTYPE svg PUBLIC "-//W3C//DTD SVG 1.1//EN" "http://www.w3.org/Graphics/SVG/1.1/DTD/svg11.dtd"><svg t="1536561565534" class="icon" style="" viewBox="0 0 1176 1024" version="1.1" xmlns="http://www.w3.org/2000/svg" p-id="2979" xmlns:xlink="http://www.w3.org/1999/xlink" width="147" height="128"><defs><style type="text/css"></style></defs><path d="M1100.272986 333.520249h-13.753412V215.928574a73.580756 73.580756 0 0 0-73.580756-73.580756H550.136493v-68.767062A73.580756 73.580756 0 0 0 481.369432 0H73.580756A73.580756 73.580756 0 0 0 0 73.580756v876.780036a73.580756 73.580756 0 0 0 73.580756 73.580756H1010.875806a73.580756 73.580756 0 0 0 76.331439-68.767062L1176.604425 412.60237A73.580756 73.580756 0 0 0 1100.272986 336.270931zM55.70132 112.777981c0-40.572566 14.441083-55.013649 55.013649-55.013649h330.081896c40.572566 0 55.013649 14.441083 55.01365 55.013649v85.271157h481.369431c40.572566 0 55.013649 14.441083 55.013649 55.013649v80.457462H162.977936A73.580756 73.580756 0 0 0 89.39718 407.101005L55.70132 633.344638zM1031.505925 915.289591c0 40.572566-14.441083 55.013649-55.01365 55.013649H110.027299c-40.572566 0-55.013649-14.441083-55.01365-55.013649l89.39718-471.742043c0-40.572566 14.441083-55.013649 55.01365-55.01365h864.401965c40.572566 0 55.013649 14.441083 55.013649 55.01365z" p-id="2980"></path></svg>
