<?xml version="1.0" encoding="UTF-8"?>
<svg width="22px" height="22px" viewBox="0 0 22 22" version="1.1" xmlns="http://www.w3.org/2000/svg" xmlns:xlink="http://www.w3.org/1999/xlink">
    <!-- Generator: Sketch 52.5 (67469) - http://www.bohemiancoding.com/sketch -->
    <title>zijin</title>
    <desc>Created with Sketch.</desc>
    <g id="页面-1" stroke="none" stroke-width="1" fill="none" fill-rule="evenodd">
        <g id="1" transform="translate(-296.000000, -441.000000)" fill="#007AFF" fill-rule="nonzero">
            <g id="zijin" transform="translate(296.000000, 441.000000)">
                <path d="M21.1423002,2.57309942 L5.91812865,2.57309942 C5.69065252,2.57309942 5.47249322,2.48273488 5.3116433,2.32188496 C5.15079339,2.16103505 5.06042885,1.94287575 5.06042885,1.71539962 L5.06042885,0.857699799 C5.06042885,0.38400528 5.44443413,5.07741521e-16 5.91812865,0 L21.1423002,0 C21.6159947,1.71190642e-15 22,0.38400528 22,0.857699799 L22,1.71539962 C22,2.18909414 21.6159947,2.57309942 21.1423002,2.57309942 Z M21.1423002,19.4269006 L16.1309747,19.4269006 C15.28077,20.4955455 14.2142828,21.3724106 13.0014425,22 L21.1423002,22 C21.6159947,22 22,21.6159947 22,21.1423002 L22,20.2846004 C22,19.8109059 21.6159947,19.4269006 21.1423002,19.4269006 Z M21.1423002,14.5701754 L18.1583626,14.5701754 C18.0537774,15.4550991 17.8263724,16.321129 17.4827096,17.1432748 L21.1423002,17.1432748 C21.6159947,17.1432748 22,16.7592696 22,16.285575 L22,15.4278752 C22,14.9541807 21.6159947,14.5701754 21.1423002,14.5701754 Z M21.1423002,9.71345029 L17.4869981,9.71345029 C17.8297525,10.5357201 18.0562199,11.4017524 18.1598635,12.2865497 L21.1423002,12.2865497 C21.6159947,12.2865497 22,11.9025444 22,11.4288499 L22,10.5711501 C22,10.0974556 21.6159947,9.71345029 21.1423002,9.71345029 Z M21.1423002,4.85672516 L13.0222417,4.85672516 C14.2306021,5.48585746 15.2927918,6.3626133 16.1395517,7.42982455 L21.1423002,7.42982455 C21.3697763,7.42982455 21.5879356,7.33946001 21.7487855,7.1786101 C21.9096355,7.01776018 22,6.79960088 22,6.57212475 L22,5.71442496 C22,5.24073044 21.6159947,4.85672516 21.1423002,4.85672516 Z M8.57699805,4.84600389 C3.84013646,4.84600389 0,8.68614035 0,13.4230019 C0,18.1598635 3.84013646,22 8.57699805,22 C13.3138596,22 17.1539961,18.1598635 17.1539961,13.4230019 C17.1539961,8.68614035 13.3138596,4.84600389 8.57699805,4.84600389 Z M11.2787524,13.3093567 L11.2787524,14.0877193 L9.33177388,14.0877193 L9.31998051,14.0995127 L9.31998051,15.0783626 L11.2787524,15.0783626 L11.2787524,15.8567252 L9.32105264,15.8567252 L9.32105264,17.625731 L7.83508771,17.625731 L7.83508771,15.8567252 L5.88810915,15.8567252 L5.88810915,15.0783626 L7.8340156,15.0783626 L7.8340156,14.0995127 L7.82222222,14.0877193 L5.88810915,14.0877193 L5.88810915,13.3093567 L7.38586746,13.3093567 L5.12153995,9.20526316 L6.79727095,9.20526316 L8.57699805,12.7550682 L10.3577973,9.20526316 L12.0324561,9.20526316 L9.76812865,13.3093567 L11.2787524,13.3093567 Z" id="形状"></path>
            </g>
        </g>
    </g>
</svg>