<?xml version="1.0" standalone="no"?><!DOCTYPE svg PUBLIC "-//W3C//DTD SVG 1.1//EN" "http://www.w3.org/Graphics/SVG/1.1/DTD/svg11.dtd"><svg t="1537957172422" class="icon" style="" viewBox="0 0 1024 1024" version="1.1" xmlns="http://www.w3.org/2000/svg" p-id="16905" xmlns:xlink="http://www.w3.org/1999/xlink" width="128" height="128"><defs><style type="text/css"></style></defs><path d="M512.001707 0.005461a504.350435 504.350435 0 0 1 135.986202 18.227067 517.798869 517.798869 0 0 1 122.469502 51.472689 508.446405 508.446405 0 0 1 103.764573 80.007946 508.446405 508.446405 0 0 1 80.007946 103.764573 517.798869 517.798869 0 0 1 51.47269 122.469502A504.350435 504.350435 0 0 1 1023.997952 512.001707a504.350435 504.350435 0 0 1-18.227066 135.986202 517.798869 517.798869 0 0 1-51.472689 122.469502 508.446405 508.446405 0 0 1-80.007947 103.764573 508.446405 508.446405 0 0 1-103.764572 80.007946 517.798869 517.798869 0 0 1-122.469502 51.47269A504.350435 504.350435 0 0 1 512.001707 1023.997952a504.350435 504.350435 0 0 1-135.986203-18.227066 517.798869 517.798869 0 0 1-122.469502-51.47269 508.446405 508.446405 0 0 1-103.764572-80.007946 508.446405 508.446405 0 0 1-80.007947-103.764573A518.822862 518.822862 0 0 1 18.232528 648.534039 503.462975 503.462975 0 0 1 0.005461 512.001707a504.350435 504.350435 0 0 1 18.227067-135.986203 517.798869 517.798869 0 0 1 51.472689-122.469502 508.446405 508.446405 0 0 1 80.007946-103.764572 508.446405 508.446405 0 0 1 103.764573-80.007947A518.822862 518.822862 0 0 1 375.469375 18.232528 503.462975 503.462975 0 0 1 512.001707 0.005461z m404.477034 320.031787a427.346199 427.346199 0 0 0-46.011396-76.253308 455.403594 455.403594 0 0 0-60.00596-65.262454 464.209929 464.209929 0 0 0-71.474676-52.496682A430.554709 430.554709 0 0 0 658.500899 88.751477a425.161682 425.161682 0 0 1 32.494695 52.974545 543.535214 543.535214 0 0 1 25.736345 57.753176 602.175851 602.175851 0 0 1 19.251058 60.279025q7.987141 30.514976 13.994565 60.483823z m43.553813 191.964459a441.955159 441.955159 0 0 0-18.500131-127.999062h-181.519735q4.027704 32.016832 6.007423 63.760599t1.979718 64.238463q0 32.494695-1.979718 64.238462t-6.007423 63.760599h181.519735a441.955159 441.955159 0 0 0 18.500131-127.999061zM512.001707 960.032554a83.762586 83.762586 0 0 0 45.738331-13.653233 165.95505 165.95505 0 0 0 39.253045-35.498406 280.710475 280.710475 0 0 0 32.221631-49.766035 581.286404 581.286404 0 0 0 25.258481-56.251321q10.990853-28.466991 18.500131-55.02253t11.468716-46.011396H339.493105q4.027704 19.524123 11.468716 46.011396t18.500131 55.02253a581.286404 581.286404 0 0 0 25.258481 56.251321 280.778741 280.778741 0 0 0 32.221631 49.766035 165.95505 165.95505 0 0 0 39.253045 35.498406 83.762586 83.762586 0 0 0 45.806598 13.653233z m183.499454-319.96352q4.027704-32.016832 6.280487-63.760599t2.252784-64.238462q0-32.494695-2.252784-64.238462t-6.280487-63.7606H328.502252q-4.027704 32.016832-6.280487 63.7606t-2.184517 64.170196q0 32.494695 2.252783 64.238462t6.280488 63.760599zM64.039125 512.001707a441.955159 441.955159 0 0 0 18.500131 127.999061h181.451469q-4.027704-32.016832-6.007422-63.760599T256.003584 512.001707q0-32.494695 1.979719-64.238463t6.007422-63.760599H82.47099A441.955159 441.955159 0 0 0 64.039125 512.001707zM512.001707 64.039125a83.762586 83.762586 0 0 0-45.738332 13.653233 165.95505 165.95505 0 0 0-39.253045 35.498407 280.778741 280.778741 0 0 0-32.22163 49.766035 581.286404 581.286404 0 0 0-25.258482 56.25132q-10.990853 28.466991-18.500131 55.02253t-11.468716 46.011396h345.017203q-4.027704-19.524123-11.468715-46.011396t-18.500131-55.02253a581.35467 581.35467 0 0 0-25.258482-56.25132 280.778741 280.778741 0 0 0-32.22163-49.766035 165.95505 165.95505 0 0 0-39.253046-35.498407 83.762586 83.762586 0 0 0-45.874863-13.653233zM365.502514 88.751477a430.554709 430.554709 0 0 0-80.485809 37.478125 464.209929 464.209929 0 0 0-71.474676 52.496682 455.403594 455.403594 0 0 0-60.00596 65.262455 427.346199 427.346199 0 0 0-46.011396 76.253307h166.501179q6.007423-29.968847 13.994564-60.483823a602.175851 602.175851 0 0 1 19.251059-60.279025 543.535214 543.535214 0 0 1 25.736344-57.753176 425.161682 425.161682 0 0 1 32.494695-52.974545z m-257.977841 615.282955a427.346199 427.346199 0 0 0 46.011396 76.253307 455.403594 455.403594 0 0 0 60.00596 65.262455 464.209929 464.209929 0 0 0 71.474676 52.496682 430.554709 430.554709 0 0 0 80.485809 37.20506 425.093416 425.093416 0 0 1-32.494695-52.974545 543.535214 543.535214 0 0 1-25.80461-57.548378 602.175851 602.175851 0 0 1-19.182793-60.142492q-7.987141-30.514976-13.994564-60.483823zM658.500899 935.251936a430.554709 430.554709 0 0 0 80.48581-37.478125 464.209929 464.209929 0 0 0 71.474676-52.496682 455.403594 455.403594 0 0 0 60.00596-65.262454 427.346199 427.346199 0 0 0 46.011396-76.253308h-166.501179q-6.007423 29.968847-13.994565 60.483823a602.175851 602.175851 0 0 1-19.251058 60.279025 543.535214 543.535214 0 0 1-25.736345 57.753176 425.093416 425.093416 0 0 1-32.494695 52.974545z" p-id="16906"></path></svg>