<?xml version="1.0" standalone="no"?><!DOCTYPE svg PUBLIC "-//W3C//DTD SVG 1.1//EN" "http://www.w3.org/Graphics/SVG/1.1/DTD/svg11.dtd"><svg t="1532400029605" class="icon" style="" viewBox="0 0 1152 1024" version="1.1" xmlns="http://www.w3.org/2000/svg" p-id="1910" xmlns:xlink="http://www.w3.org/1999/xlink" width="225" height="200"><defs><style type="text/css"></style></defs><path d="M832.001792 1024 703.931008 1024C686.292864 1024 672.011968 1009.634157 672.011968 991.912992L672.011968 671.992883C672.011968 654.493802 657.818272 639.905875 640.30944 639.905875L511.728864 639.905875C494.456448 639.905875 480.026336 654.271718 480.026336 671.992883L480.026336 991.912992C480.026336 1009.412074 465.73568 1024 448.107296 1024L320.03648 1024C249.63248 1024 192.047872 966.777248 192.047872 896.189408L192.047872 608.117139C192.047872 590.292077 177.64176 575.890189 159.87088 575.890189L65.761664 575.890195C-4.996928 575.890202-21.087904 535.565418 29.396 485.822272L484.57296 37.324086C535.102112-12.463664 616.91216-12.419056 667.40192 37.32409L1122.63168 485.822272C1173.16672 535.610022 1156.844704 575.890202 1086.276608 575.890195L992.167424 575.890189C974.37776 575.890189 959.9904 590.318685 959.9904 608.117139L959.9904 896.189408C959.9904 966.791424 902.687968 1024 832.001792 1024ZM895.986176 895.969789 895.986176 607.968115C895.986176 554.84671 939.01024 511.749059 992.167424 511.749062L1057.764736 511.646176 622.486528 82.909619C596.893024 57.700752 555.086048 57.693706 529.491008 82.907011L93.447264 511.749069 159.87088 511.749062C213.010976 511.749059 256.052128 554.821862 256.052128 607.968115L256.052128 895.969789C256.052128 931.052589 284.83936 959.749062 320.03648 959.749062L416.02208 959.749062 416.02208 671.828208C416.02208 618.943536 458.929344 575.749062 511.728864 575.749062L640.30944 575.749062C693.332064 575.749062 736.016192 619.146765 736.016192 671.828208L736.016192 959.749062 832.001792 959.749062C867.367872 959.749062 895.986176 931.179763 895.986176 895.969789Z" p-id="1911"></path></svg>
