<?xml version="1.0" standalone="no"?><!DOCTYPE svg PUBLIC "-//W3C//DTD SVG 1.1//EN" "http://www.w3.org/Graphics/SVG/1.1/DTD/svg11.dtd"><svg t="1537957795091" class="icon" style="" viewBox="0 0 1024 1024" version="1.1" xmlns="http://www.w3.org/2000/svg" p-id="23625" xmlns:xlink="http://www.w3.org/1999/xlink" width="128" height="128"><defs><style type="text/css"></style></defs><path d="M887.160425 1023.653099l-682.483836 0c-75.376735 0-136.492674-61.093427-136.492674-136.443555l0-136.437415 68.24736 0 0 136.437415c0 37.678134 30.560016 68.222801 68.245314 68.222801l682.483836 0c37.690414 0 68.245314-30.550807 68.245314-68.222801L955.405739 136.789433c0-37.678134-30.562063-68.222801-68.245314-68.222801l-682.483836 0c-37.691437 0-68.245314 30.544667-68.245314 68.222801l0 136.437415L68.183915 273.226848l0-136.437415c0-75.350129 61.115939-136.443555 136.492674-136.443555l682.483836 0c75.375711 0 136.492674 61.093427 136.492674 136.443555L1023.653099 887.209544C1023.653099 962.559673 962.536136 1023.653099 887.160425 1023.653099L887.160425 1023.653099zM536.50409 299.076586c-13.296841-13.322423-13.296841-34.939767 0-48.231491 13.325493-13.326517 34.95307-13.326517 48.28368 0l235.435127 235.338936c7.095605 7.097652 10.128685 16.523325 9.664104 25.813922 0.464581 9.29469-2.568499 18.720364-9.664104 25.853831L584.78777 773.189697c-13.331633 13.3214-34.95921 13.3214-48.28368 0-13.296841-13.326517-13.296841-34.944883 0-48.236608l178.916902-178.846294L34.470069 546.106796c-18.828834 0-34.123168-15.253402-34.123168-34.109866 0-18.815531 15.295358-34.110889 34.123168-34.110889l680.950923 0L536.50409 299.076586 536.50409 299.076586zM480.201783 299.076586" p-id="23626"></path></svg>