<?xml version="1.0" encoding="UTF-8"?>
<svg width="50px" height="50px" viewBox="0 0 50 50" version="1.1" xmlns="http://www.w3.org/2000/svg" xmlns:xlink="http://www.w3.org/1999/xlink">
    <!-- Generator: Sketch 52.5 (67469) - http://www.bohemiancoding.com/sketch -->
    <title>融资融券交易系统</title>
    <desc>Created with Sketch.</desc>
    <g id="页面-1" stroke="none" stroke-width="1" fill="none" fill-rule="evenodd">
        <g id="1" transform="translate(-709.000000, -324.000000)">
            <g id="融资融券交易系统" transform="translate(709.000000, 324.000000)">
                <circle id="椭圆形-copy-2" fill="#FF884E" opacity="0.303827195" cx="25" cy="25" r="25"></circle>
                <circle id="椭圆形-copy-2" fill="#FF884E" cx="25" cy="25" r="22"></circle>
                <g id="分组-10" transform="translate(13.000000, 14.000000)" fill="#FFFFFF">
                    <path d="M0,0.511583012 L10.2497162,0.511583012 L10.2497162,1.9015444 L0,1.9015444 L0,0.511583012 Z M9.43927355,4.54247104 L9.43927355,8.52702703 C9.43927355,8.96203861 9.0764336,9.31467181 8.62883087,9.31467181 L1.62088536,9.31467181 C1.17328263,9.31467181 0.810442679,8.96203861 0.810442679,8.52702703 L0.810442679,4.54247104 C0.810442679,4.10745946 1.17328263,3.75482625 1.62088536,3.75482625 L8.62883087,3.75482625 C9.0764336,3.75482625 9.43927355,4.10745946 9.43927355,4.54247104 Z M7.7707151,5.14478764 L2.47900114,5.14478764 L2.47900114,7.92471042 L7.7707151,7.92471042 L7.7707151,5.14478764 Z M17.1265607,5.14478764 L19.3314415,5.14478764 L19.3314415,7.41505792 L21,7.41505792 L21,4.54247104 C21,4.10745946 20.63716,3.75482625 20.1895573,3.75482625 L17.1265607,3.75482625 L17.1265607,0.5 L15.4580023,0.5 L15.4580023,3.75482625 L12.3950057,3.75482625 C11.947403,3.75482625 11.584563,4.10745946 11.584563,4.54247104 L11.584563,12.6274131 L13.2531215,12.6274131 L13.2531215,5.14478764 L15.4580023,5.14478764 L15.4580023,9.97490347 L17.1265607,9.97490347 L17.1265607,5.14478764 Z M10.4880817,20.7123552 L10.4880817,11.7239382 C10.4880817,11.2889266 10.1252418,10.9362934 9.67763905,10.9362934 L0.810442679,10.9362934 C0.362839955,10.9362934 0,11.2889266 0,11.7239382 L0,20.7123552 C0,21.1473668 0.362839955,21.5 0.810442679,21.5 L1.66855846,21.5 L1.66855846,12.3262548 L8.81952327,12.3262548 L8.81952327,20.1100386 L7.96140749,20.1100386 C7.51380477,20.1100386 7.15096481,20.4626718 7.15096481,20.8976834 L7.15096481,21.5 L9.67763905,21.5 C10.1252418,21.5 10.4880817,21.1473668 10.4880817,20.7123552 Z" id="形状" fill-rule="nonzero"></path>
                    <polygon id="路径" points="3.199625 13.5 4.762975 16.4526814 3 16.4526814 3 17.7649842 4.85 17.7649842 4.85 21.5 6.15 21.5 6.15 17.7649842 8 17.7649842 8 16.4526814 6.237 16.4526814 7.800375 13.5 6.4466 13.5 5.5 15.3887571 4.5534 13.5"></polygon>
                    <polygon id="路径" points="21.0045059 10.2972292 18.9469565 13.2887812 16.5861581 11.0854803 14.1332727 14.3265091 13.8683715 14.0202725 12 14.0202725 14.1202055 16.5 16.6638972 13.1649304 19.0137391 15.4354703 24 8.5 18.9960474 8.5"></polygon>
                    <path d="M14.055747,20.2511157 L22.7667984,20.2511157 L22.7667984,14.2495349 L19.1482055,19.1402838 L16.9051304,16.8718341 L14.8046561,19.3629258 L14.1458419,20.1458472 L14.1451542,20.1450786 L14.055747,20.2511157 Z M19.0137391,17.2393013 L24,10.5 L24,20.6834061 C24,21.1344061 23.639004,21.5 23.1936759,21.5 L12.8063241,21.5 C12.360996,21.5 12,21.1344061 12,20.6834061 L12,15.8667031 L14.1202055,18.250821 L16.8299051,15.0307271 L19.0137391,17.2393253 L19.0137391,17.2393013 Z" id="形状" fill-rule="nonzero"></path>
                </g>
            </g>
        </g>
    </g>
</svg>