<?xml version="1.0" standalone="no"?><!DOCTYPE svg PUBLIC "-//W3C//DTD SVG 1.1//EN" "http://www.w3.org/Graphics/SVG/1.1/DTD/svg11.dtd"><svg t="1536806305835" class="icon" style="" viewBox="0 0 1024 1024" version="1.1" xmlns="http://www.w3.org/2000/svg" p-id="18274" xmlns:xlink="http://www.w3.org/1999/xlink" width="128" height="128"><defs><style type="text/css"></style></defs><path d="M887.458909 47.057455H136.541091C61.44 47.057455 0 108.288 0 183.133091v521.658182C0 779.636364 61.44 840.843636 136.541091 840.843636h341.317818v68.026182h-125.137454c-18.222545 0-34.141091 15.895273-34.141091 34.024727 0 18.152727 15.918545 34.024727 34.141091 34.024728h318.55709c18.222545 0 34.141091-15.872 34.141091-34.024728 0-18.152727-15.918545-34.024727-34.141091-34.024727h-125.137454v-68.026182h341.317818C962.56 840.843636 1024 779.636364 1024 704.791273V183.133091c0-74.845091-61.44-136.075636-136.541091-136.075636z m68.282182 657.733818c0 38.539636-29.579636 68.026182-68.282182 68.026182H136.541091c-38.702545 0-68.282182-29.486545-68.282182-68.026182V183.133091c0-38.562909 29.579636-68.026182 68.282182-68.026182h750.917818c38.702545 0 68.282182 29.463273 68.282182 68.026182v521.658182z m-131.979636-387.84l-182.062546 249.483636c-6.818909 9.076364-15.918545 13.614545-27.298909 13.614546s-20.48-6.818909-27.298909-15.895273l-154.763636-229.050182-177.477819 274.432c-6.818909 9.076364-18.199273 15.872-29.579636 15.872-6.818909 0-13.661091-2.280727-18.199273-4.538182-15.941818-9.076364-20.48-31.767273-11.403636-47.639273l204.8-317.509818c6.842182-9.076364 15.941818-15.895273 27.322182-15.895272 11.403636 0 22.760727 4.538182 27.322182 15.895272l154.71709 231.330909 152.48291-210.920727c11.357091-15.872 31.837091-18.152727 47.778909-6.818909 22.760727 11.357091 25.018182 31.767273 13.661091 47.639273z" p-id="18275"></path></svg>