<?xml version="1.0" standalone="no"?><!DOCTYPE svg PUBLIC "-//W3C//DTD SVG 1.1//EN" "http://www.w3.org/Graphics/SVG/1.1/DTD/svg11.dtd"><svg t="1538100470671" class="icon" style="" viewBox="0 0 1029 1024" version="1.1" xmlns="http://www.w3.org/2000/svg" p-id="1902" xmlns:xlink="http://www.w3.org/1999/xlink" width="128.625" height="128"><defs><style type="text/css"></style></defs><path d="M1029.12 273.066667L174.08 59.946667a42.666667 42.666667 0 0 0-51.626667 30.72l-40.533333 156.8-2.133333 8.533333-7.68 29.866667-24.96 100.906666a74.24 74.24 0 0 0 54.4 88.32L320 533.333333a95.36 95.36 0 0 0-26.666667 152.96 235.946667 235.946667 0 0 1-85.333333 82.346667A186.88 186.88 0 0 1 64 793.386667V672a32 32 0 0 0-64 0v256a32 32 0 0 0 64 0v-69.12a232.32 232.32 0 0 0 42.666667 4.053333 265.6 265.6 0 0 0 135.466666-39.68 298.666667 298.666667 0 0 0 110.08-109.653333 93.866667 93.866667 0 0 0 10.453334 0 95.786667 95.786667 0 0 0 79.146666-149.333333l320 84.266666h1.92a117.76 117.76 0 0 0 77.013334 28.586667 142.72 142.72 0 0 0 90.453333-35.2 233.173333 233.173333 0 0 0 73.813333-119.68 213.333333 213.333333 0 0 0-25.6-180.906667zM362.666667 650.666667a32 32 0 1 1 32-32 32 32 0 0 1-32 32zM117.973333 413.226667a10.24 10.24 0 0 1-8.533333-11.093334l24.746667-99.413333 579.413333 156.373333a234.666667 234.666667 0 0 0 2.133333 111.36zM746.666667 401.92L149.333333 240.64 179.2 128l742.826667 185.173333L896 349.226667a139.306667 139.306667 0 0 1-149.333333 52.693333z m196.48 104.32a168.746667 168.746667 0 0 1-52.693334 86.826667 74.453333 74.453333 0 0 1-64 18.773333 74.453333 74.453333 0 0 1-46.08-48.213333 165.76 165.76 0 0 1-3.413333-94.293334h5.546667A203.733333 203.733333 0 0 0 938.666667 397.653333a165.12 165.12 0 0 1 4.693333 108.373334z" p-id="1903"></path></svg>