<?xml version="1.0" standalone="no"?><!DOCTYPE svg PUBLIC "-//W3C//DTD SVG 1.1//EN" "http://www.w3.org/Graphics/SVG/1.1/DTD/svg11.dtd"><svg t="1536806331057" class="icon" style="" viewBox="0 0 1024 1024" version="1.1" xmlns="http://www.w3.org/2000/svg" p-id="18752" xmlns:xlink="http://www.w3.org/1999/xlink" width="128" height="128"><defs><style type="text/css"></style></defs><path d="M599.6544 597.86752L509.05088 335.57504 410.10688 545.1264 354.88256 481.18784l-93.44512 65.54112 26.35264 17.1008 59.88352-42.0096 72.24832 83.7376 83.6608-177.13664 92.50304 267.94496 78.88384-186.93632 32.14848 76.99968 35.24608-6.65088-67.2-160.88064-75.50976 178.9696z m275.7632 203.264V182.70208c0-20.33664-13.47072-36.78208-30.11072-36.78208H175.37536c-16.63488 0-30.09536 16.44032-30.09536 36.78208v618.43456H46.54592v44.95872c0 20.34176 13.4912 36.7872 30.1056 36.7872h870.67648c16.64 0 30.1312-16.4352 30.1312-36.7872v-44.9536h-102.0416v-0.01024z m-301.76256 15.4368H450.33984v-23.87456h123.3152v23.87456z m239.83104-60.11904H207.24224V221.7472h606.24384v534.70208z" fill="" p-id="18753"></path></svg>