<?xml version="1.0" standalone="no"?><!DOCTYPE svg PUBLIC "-//W3C//DTD SVG 1.1//EN" "http://www.w3.org/Graphics/SVG/1.1/DTD/svg11.dtd"><svg t="1536307904550" class="icon" style="" viewBox="0 0 1024 1024" version="1.1" xmlns="http://www.w3.org/2000/svg" p-id="1853" xmlns:xlink="http://www.w3.org/1999/xlink" width="128" height="128"><defs><style type="text/css"></style></defs><path d="M975.811765 492.423529c0 88.847059-191.247059 278.588235-465.317647 278.588236C243.952941 771.011765 45.176471 584.282353 45.176471 492.423529s198.776471-278.588235 465.317647-278.588235c275.576471 0 465.317647 186.729412 465.317647 278.588235zM510.494118 265.035294c-123.482353 0-224.376471 102.4-224.376471 227.388235s100.894118 227.388235 224.376471 227.388236S734.870588 617.411765 734.870588 492.423529s-99.388235-227.388235-224.37647-227.388235z m0 82.82353c-78.305882 0-143.058824 64.752941-143.058824 144.564705s63.247059 144.564706 143.058824 144.564706c78.305882 0 143.058824-64.752941 143.058823-144.564706s-64.752941-144.564706-143.058823-144.564705z m0 0" p-id="1854"></path></svg>