<?xml version="1.0" standalone="no"?><!DOCTYPE svg PUBLIC "-//W3C//DTD SVG 1.1//EN" "http://www.w3.org/Graphics/SVG/1.1/DTD/svg11.dtd"><svg t="1537957653055" class="icon" style="" viewBox="0 0 1024 1024" version="1.1" xmlns="http://www.w3.org/2000/svg" p-id="22960" xmlns:xlink="http://www.w3.org/1999/xlink" width="128" height="128"><defs><style type="text/css"></style></defs><path d="M398.7 448.2H79.4c-8.5 0-15.4-6.9-15.4-15.4V113.5c0-8.5 6.9-15.4 15.4-15.4h319.3c8.5 0 15.4 6.9 15.4 15.4v319.3c-0.1 8.5-7 15.4-15.4 15.4z m545.7-214.7H544.3c-8.2 0-15-6.7-15-15v-105c0-8.2 6.7-15 15-15h400.1c8.2 0 15 6.7 15 15v105.1c-0.1 8.2-6.8 14.9-15 14.9z m0 214.8H544.3c-8.2 0-15-6.7-15-15v-105c0-8.2 6.7-15 15-15h400.1c8.2 0 15 6.7 15 15v105.1c-0.1 8.2-6.8 14.9-15 14.9zM398.7 927.4H79.4c-8.5 0-15.4-6.9-15.4-15.4V592.7c0-8.5 6.9-15.4 15.4-15.4h319.3c8.5 0 15.4 6.9 15.4 15.4V912c-0.1 8.5-7 15.4-15.4 15.4z m545.7-214.7H544.3c-8.2 0-15-6.7-15-15v-105c0-8.2 6.7-15 15-15h400.1c8.2 0 15 6.7 15 15v105.1c-0.1 8.2-6.8 14.9-15 14.9z m0 214.8H544.3c-8.2 0-15-6.7-15-15v-105c0-8.2 6.7-15 15-15h400.1c8.2 0 15 6.7 15 15v105.1c-0.1 8.2-6.8 14.9-15 14.9z" p-id="22961"></path></svg>