<?xml version="1.0" standalone="no"?><!DOCTYPE svg PUBLIC "-//W3C//DTD SVG 1.1//EN" "http://www.w3.org/Graphics/SVG/1.1/DTD/svg11.dtd"><svg t="1532518060967" class="icon" style="" viewBox="0 0 1024 1024" version="1.1" xmlns="http://www.w3.org/2000/svg" p-id="9497" xmlns:xlink="http://www.w3.org/1999/xlink" width="200" height="200"><defs><style type="text/css"></style></defs><path d="M418.4 867.8c-3.8 0-7.7-1.5-10.6-4.4-5.9-5.9-5.9-15.4 0-21.2l311.7-311.7-224-224-311.7 311.7c-5.9 5.9-15.4 5.9-21.2 0-5.9-5.9-5.9-15.4 0-21.2l322.3-322.3c5.9-5.9 15.4-5.9 21.2 0l245.2 245.2c5.9 5.9 5.9 15.4 0 21.2L429 863.4c-2.9 2.9-6.7 4.4-10.6 4.4z" p-id="9498"></path><path d="M740.7 545.5c-4 0-7.8-1.6-10.6-4.4L484.9 295.9c-5.9-5.9-5.9-15.4 0-21.2l56.3-56.3c2.8-2.8 6.6-4.4 10.6-4.4s7.8 1.6 10.6 4.4l245.2 245.2c5.9 5.9 5.9 15.4 0 21.2l-56.3 56.3c-2.8 2.9-6.6 4.4-10.6 4.4z m-224-260.2l224 224 35.1-35.1-224-224-35.1 35.1z" p-id="9499"></path><path d="M797.2 489.1c-4 0-7.8-1.6-10.6-4.4L541.3 239.5c-5.9-5.9-5.9-15.4 0-21.2l35.6-35.6c36-36 94.7-36 130.7 0l135.7 135.7c17.5 17.5 27.1 40.7 27.1 65.4 0 24.7-9.6 47.9-27.1 65.4l-35.6 35.6c-2.8 2.7-6.6 4.3-10.5 4.3z m-224-260.2l224 224 25-25c24.3-24.3 24.3-64 0-88.3L686.5 203.9c-24.3-24.3-64-24.3-88.3 0l-25 25zM418.4 867.8h-0.2l-249.9-2.7c-4 0-7.8-1.7-10.6-4.6-2.8-2.9-4.3-6.7-4.2-10.7l4.7-242.5c0.1-5 2.7-9.7 6.9-12.4 4.2-2.7 9.5-3.1 14.1-1.1l97.6 43.1c4.1 1.8 7.2 5.4 8.4 9.7l18.9 67.2 83.4 18.9c5.2 1.2 9.3 5 11 10l34.2 105.4c1.5 4.6 0.7 9.6-2.2 13.5-2.8 3.9-7.3 6.2-12.1 6.2z m-234.5-32.5l213.9 2.3-25.1-77.5-83.8-19c-5.4-1.2-9.6-5.3-11.1-10.6l-19.4-69-70.5-31.1-4 204.9z" p-id="9500"></path><path d="M267 853.4L172.6 759l-1.8 93.4zM271.6 666.5c-3.8 0-7.7-1.5-10.6-4.4-5.9-5.9-5.9-15.4 0-21.2l287-287.1c5.9-5.9 15.4-5.9 21.2 0 5.9 5.9 5.9 15.4 0 21.2l-287 287.1c-3 2.9-6.8 4.4-10.6 4.4zM381.2 763.2c-3.8 0-7.7-1.5-10.6-4.4-5.9-5.9-5.9-15.4 0-21.2l287.1-287.1c5.9-5.9 15.4-5.9 21.2 0 5.9 5.9 5.9 15.4 0 21.2L391.8 758.8c-2.9 2.9-6.8 4.4-10.6 4.4z" p-id="9501"></path></svg>
