<?xml version="1.0" standalone="no"?><!DOCTYPE svg PUBLIC "-//W3C//DTD SVG 1.1//EN" "http://www.w3.org/Graphics/SVG/1.1/DTD/svg11.dtd"><svg t="1540447323892" class="icon" style="" viewBox="0 0 1024 1024" version="1.1" xmlns="http://www.w3.org/2000/svg" p-id="4003" xmlns:xlink="http://www.w3.org/1999/xlink" width="200" height="200"><defs><style type="text/css"></style></defs><path d="M568.888889 68.266667h56.888889v369.777777h-56.888889z" p-id="4004"></path><path d="M568.888889 398.222222h364.088889v56.888889H568.888889zM455.111111 113.777778h56.888889v398.222222H455.111111zM455.111111 512h455.111111v56.888889H455.111111z" p-id="4005"></path><path d="M512 910.222222c-221.866667 0-398.222222-176.355556-398.222222-398.222222s176.355556-398.222222 398.222222-398.222222V56.888889C261.688889 56.888889 56.888889 261.688889 56.888889 512s204.8 455.111111 455.111111 455.111111 455.111111-204.8 455.111111-455.111111h-56.888889c0 221.866667-176.355556 398.222222-398.222222 398.222222z" p-id="4006"></path><path d="M568.888889 56.888889v56.888889c187.733333 0 341.333333 153.6 341.333333 341.333333h56.888889c0-221.866667-176.355556-398.222222-398.222222-398.222222z" p-id="4007"></path></svg>
