<?xml version="1.0" standalone="no"?><!DOCTYPE svg PUBLIC "-//W3C//DTD SVG 1.1//EN" "http://www.w3.org/Graphics/SVG/1.1/DTD/svg11.dtd"><svg t="1536562681561" class="icon" style="" viewBox="0 0 1024 1024" version="1.1" xmlns="http://www.w3.org/2000/svg" p-id="5348" xmlns:xlink="http://www.w3.org/1999/xlink" width="128" height="128"><defs><style type="text/css"></style></defs><path d="M814.8946149 124.28972305m-93.96359441 0a91.76132267 91.76132267 0 1 0 187.92718882 0 91.76132267 91.76132267 0 1 0-187.92718882 0Z" p-id="5349"></path><path d="M730.13114865 266.58039884L730.11375005 266.56300025 533.71096027 462.96579004 570.53508525 499.79240053 730.13114865 340.19633713 730.13114865 613.75940745 576.19087118 613.75940745 576.19087118 613.92220858 301.95546946 972.75206163 226.69909228 972.75206163 226.69909228 994.51770319 431.20217051 994.51770319 431.20217051 972.75206163 621.75778983 724.64064937 908.85820931 725.46956812 908.85820931 609.62227026 908.85820931 266.56300025 730.13114865 266.56300025Z" p-id="5350"></path><path d="M118.74702799 506.53684137L118.74702799 994.51770319 534.00797913 506.53684137Z" p-id="5351"></path><path d="M534.00797913 473.15018153L127.22138621 139.67877977 206.00097875 473.15018153Z" p-id="5352"></path></svg>