<?xml version="1.0" standalone="no"?><!DOCTYPE svg PUBLIC "-//W3C//DTD SVG 1.1//EN" "http://www.w3.org/Graphics/SVG/1.1/DTD/svg11.dtd"><svg t="1536812190153" class="icon" style="" viewBox="0 0 1024 1024" version="1.1" xmlns="http://www.w3.org/2000/svg" p-id="23610" xmlns:xlink="http://www.w3.org/1999/xlink" width="128" height="128"><defs><style type="text/css"></style></defs><path d="M949.248 197.632s-89.6-5.632-136.704-48.64c-49.152-44.544-55.296-126.464-55.296-126.464s-121.856-22.016-245.76-22.016c-121.856 0-245.76 22.016-245.76 22.016s-8.192 82.432-54.784 124.928c-49.152 45.056-137.216 50.176-137.216 50.176s-9.216 160.256 4.096 299.52c13.312 137.216 47.104 272.896 173.056 375.296 102.912 83.968 257.024 151.04 257.024 151.04s120.832-52.736 208.384-110.08c96.256-62.976 186.88-149.504 214.528-313.856 28.16-173.568 18.432-401.92 18.432-401.92z m-269.312 646.656c-58.368 37.888-134.144 73.728-161.792 86.528v-422.4h-365.568c-0.512-3.072-0.512-6.144-1.024-8.704-11.264-115.2-3.584-248.32-3.584-248.32s72.704-4.608 113.664-41.984c38.4-35.328 45.568-103.424 45.568-103.424s102.912-17.92 203.776-17.92h7.68v420.352l349.184 0.512c-2.56 25.6-5.632 51.2-9.728 75.264-23.552 136.192-98.304 207.872-178.176 260.096z" p-id="23611"></path></svg>