<?xml version="1.0" standalone="no"?><!DOCTYPE svg PUBLIC "-//W3C//DTD SVG 1.1//EN" "http://www.w3.org/Graphics/SVG/1.1/DTD/svg11.dtd"><svg t="1537957074647" class="icon" style="" viewBox="0 0 1024 1024" version="1.1" xmlns="http://www.w3.org/2000/svg" p-id="15649" xmlns:xlink="http://www.w3.org/1999/xlink" width="128" height="128"><defs><style type="text/css"></style></defs><path d="M448 128L320 0H0l0.32 1024H1024V128H448zM288 64l128 128h544v768H64V64h224z m524.096 444.416H752.96c-5.504-19.712-13.12-38.144-22.848-55.488l41.728-41.856c7.616-7.616 7.616-19.968 0-27.904l-67.392-67.264c-4.032-3.968-9.024-5.824-14.016-5.824s-10.112 1.856-14.016 5.824l-41.664 41.792c-17.28-9.664-35.904-17.408-55.424-22.784v-59.328c0-10.816-8.96-19.584-19.648-19.584h-95.616c-10.688 0-19.648 8.832-19.648 19.584v59.136c-19.392 5.504-38.08 13.12-55.296 22.848l-41.728-41.6c-3.968-3.968-8.832-5.824-13.888-5.824-5.056 0-10.112 1.856-14.016 5.824l-67.52 67.456c-7.552 7.744-7.552 20.096 0 27.84l41.792 41.664c-9.792 17.408-17.344 36.096-22.912 55.616h-59.136c-10.88 0-19.712 8.832-19.712 19.776v95.488c0 10.816 8.832 19.648 19.712 19.648h59.2c5.376 19.584 13.056 38.144 22.912 55.36l-41.92 41.856c-7.552 7.68-7.552 20.16 0 27.904l67.648 67.52c3.776 3.968 8.768 5.824 13.824 5.824 4.992 0 10.112-1.856 13.952-5.824l41.792-41.728c17.344 9.664 35.904 17.344 55.552 22.72v59.392c-0.064 10.624 8.704 19.52 19.584 19.52h95.488c10.688 0 19.584-8.896 19.584-19.584v-59.392c19.584-5.376 38.08-13.056 55.424-22.72l41.856 41.728c3.776 3.968 8.896 5.824 13.888 5.824s9.984-1.856 14.016-5.824l67.648-67.52c7.744-7.68 7.744-20.032 0-27.904l-41.856-41.856c9.728-17.152 17.344-35.84 22.848-55.36h59.136c11.008 0 19.776-8.832 19.776-19.648V528.32c-0.32-11.008-9.216-19.904-19.968-19.904z m-20.352 94.848H722.496l-8 29.248c-4.608 16.384-11.264 32.064-19.264 46.592l-14.976 26.304 21.504 21.568 27.52 27.392-38.848 38.784-27.52-27.392-21.504-21.504-26.496 14.912c-14.336 8.064-29.952 14.656-46.592 19.2l-29.184 8.128v69.184H484.48v-69.184l-29.376-8.128c-16.256-4.544-32.064-11.136-46.464-19.2l-26.432-15.04-21.44 21.568-27.456 27.392-38.72-38.72 27.392-27.52 21.44-21.44-14.912-26.432c-8.064-14.464-14.592-30.08-19.136-46.528L301.12 603.2H232v-54.912h69.12l8.192-29.12c4.48-16.512 11.072-32.192 19.136-46.656l14.976-26.432-21.44-21.44-27.52-27.456 38.848-38.72 27.392 27.456 21.632 21.44 26.432-14.976c14.4-8.128 30.016-14.592 46.464-19.136l29.248-8.128V296h54.848v69.12l29.184 8.32c16.448 4.544 32.128 11.008 46.592 19.136l26.368 14.912 21.504-21.568 27.392-27.264 38.976 38.72-27.52 27.52-21.504 21.44 14.848 26.432c8.128 14.4 14.848 29.952 19.392 46.464l8.128 29.312h69.056v54.72zM511.872 455.872c-66.24 0-119.936 53.696-119.936 119.936 0 66.176 53.696 119.872 119.936 119.872 66.176 0 119.872-53.696 119.872-119.872 0-66.24-53.568-119.936-119.872-119.936z m56.384 176.32c-14.912 15.296-34.944 23.552-56.256 23.552-21.44 0-41.472-8.256-56.576-23.552-15.104-14.912-23.488-35.072-23.488-56.384 0-21.376 8.32-41.408 23.36-56.448 15.232-15.168 35.136-23.488 56.64-23.488 21.312 0 41.472 8.32 56.384 23.488 15.168 15.04 23.488 35.072 23.488 56.448 0 21.312-8.32 41.472-23.552 56.384z" p-id="15650"></path></svg>
