<?xml version="1.0" standalone="no"?><!DOCTYPE svg PUBLIC "-//W3C//DTD SVG 1.1//EN" "http://www.w3.org/Graphics/SVG/1.1/DTD/svg11.dtd"><svg t="1539338600934" class="icon" style="" viewBox="0 0 1024 1024" version="1.1" xmlns="http://www.w3.org/2000/svg" p-id="2361" xmlns:xlink="http://www.w3.org/1999/xlink" width="128" height="128"><defs><style type="text/css"></style></defs><path d="M933.586588 114.789888 774.404744 114.789888c0-65.328936 0-113.675889 0-113.675889l-522.829489 0L251.575254 114.789888 92.39241 114.789888c-90.811911 10.921989-73.363928 51.14495-73.386928 51.14495l73.386928 281.292725c3.529997 51.14495 48.945952 76.694925 48.945952 76.716925L260.920245 523.944488c18.646982 58.603943 72.520929 165.087839 217.961787 179.781824l0 229.349776L365.251143 933.076089c-12.542988 0-22.753978 10.21099-22.753978 22.753978l0 45.461956c0 12.562988 10.21099 22.707978 22.753978 22.707978l295.476711 0c12.609988 0 22.753978-10.14499 22.753978-22.707978L683.481833 955.829067c0-12.542988-10.14399-22.753978-22.753978-22.753978L547.096966 933.075089 547.096966 703.792313c132.65587-14.649986 189.126815-113.563889 212.214793-179.848824l125.372878 0c0 0 45.417956-25.571975 48.901952-76.716925l73.386928-281.292725C1006.973517 165.934838 1024.4665 125.711877 933.586588 114.789888zM160.451343 442.588568l-0.422-6.392994-1.619998-6.193994L94.058408 183.359821c0.887999-0.089 1.774998-0.244 2.707997-0.356l154.809849 0 0 272.769734-85.706916 0C163.159341 452.178558 160.806343 447.648563 160.451343 442.588568zM512.999999 637.620377c-159.091845 0-189.081815-132.78987-193.210811-157.073847L319.789188 114.789888 319.789188 69.328932l386.445623 0 0 45.460956 0 21.620979 0 322.537685C701.817815 488.050523 671.449844 637.620377 512.999999 637.620377zM867.614653 430.00158l-1.621998 6.193994-0.398 6.392994c-0.378 4.994995-2.774997 9.544991-5.481995 13.185987l-85.706916 0c0-32.253969 0-160.535843 0-272.769734l154.807849 0c0.933999 0.112 1.887998 0.267 2.709997 0.356L867.614653 430.00158z" p-id="2362"></path></svg>