<?xml version="1.0" standalone="no"?><!DOCTYPE svg PUBLIC "-//W3C//DTD SVG 1.1//EN" "http://www.w3.org/Graphics/SVG/1.1/DTD/svg11.dtd"><svg t="1540446985090" class="icon" style="" viewBox="0 0 1024 1024" version="1.1" xmlns="http://www.w3.org/2000/svg" p-id="3217" xmlns:xlink="http://www.w3.org/1999/xlink" width="200" height="200"><defs><style type="text/css"></style></defs><path d="M555 743.75h-87.24a78 78 0 0 1-77.88-77.81V216.81A78 78 0 0 1 467.76 139H555a77.89 77.89 0 0 1 77.81 77.81v449.13A77.89 77.89 0 0 1 555 743.75z m-87.24-534.67a7.78 7.78 0 0 0-7.8 7.73v449.13a7.78 7.78 0 0 0 7.8 7.73H555a7.77 7.77 0 0 0 7.73-7.73V216.81a7.77 7.77 0 0 0-7.73-7.73z" p-id="3218"></path><path d="M382.15 743.75h-87.26a77.89 77.89 0 0 1-77.81-77.81V366a77.89 77.89 0 0 1 77.81-77.81h87.25A77.89 77.89 0 0 1 460 366v299.94a77.89 77.89 0 0 1-77.85 77.81z m-87.26-385.49a7.77 7.77 0 0 0-7.73 7.73v299.95a7.77 7.77 0 0 0 7.73 7.73h87.25a7.77 7.77 0 0 0 7.73-7.73V366a7.68 7.68 0 0 0-7.73-7.73zM727.8 743.75h-87.25a77.89 77.89 0 0 1-77.81-77.81V489.79A77.89 77.89 0 0 1 640.55 412h87.25a78 78 0 0 1 77.88 77.81v176.13a78 78 0 0 1-77.88 77.81z m-87.25-261.69a7.77 7.77 0 0 0-7.73 7.73v176.15a7.77 7.77 0 0 0 7.73 7.73h87.25a7.78 7.78 0 0 0 7.8-7.73V489.79a7.78 7.78 0 0 0-7.8-7.73zM871.44 885H151.32a35 35 0 1 1 0-70.08h720.12a35 35 0 0 1 0 70.08z" p-id="3219"></path></svg>
