<?xml version="1.0" standalone="no"?><!DOCTYPE svg PUBLIC "-//W3C//DTD SVG 1.1//EN" "http://www.w3.org/Graphics/SVG/1.1/DTD/svg11.dtd"><svg t="1539164983376" class="icon" style="" viewBox="0 0 1024 1024" version="1.1" xmlns="http://www.w3.org/2000/svg" p-id="4590" xmlns:xlink="http://www.w3.org/1999/xlink" width="420" height="420"><defs><style type="text/css"></style></defs><path d="M755.356 679.172c-54.336 72.836-143.059 120.391-243.23 120.391-164.395 0-298.23-128.059-299.23-285.895h97.672l-155.45-148.785L0 513.668h97.836c0.945 219.172 186.063 396.566 414.289 396.566 132.172 0 249.785-59.559 325.676-152.172l-82.445-78.89zM960.028 514.11l-0.113 0.059h-33.5v-0.059c0-0.664 0.055-1.387 0.055-2.109 0-219.949-185.504-398.234-414.344-398.234-133.227 0-251.727 60.559-327.453 154.449l82.445 79.004c54.172-74.227 143.785-122.84 245.008-122.84 165.004 0 299.23 129.004 299.23 287.621 0 0.723-0.055 1.445-0.055 2.109v0.059h-36.445l-0.055-0.059h-61.336l155.395 148.84 155.168-148.84h-64z" p-id="4591"></path></svg>