<?xml version="1.0" standalone="no"?><!DOCTYPE svg PUBLIC "-//W3C//DTD SVG 1.1//EN" "http://www.w3.org/Graphics/SVG/1.1/DTD/svg11.dtd"><svg t="1536740468318" class="icon" style="" viewBox="0 0 1024 1024" version="1.1" xmlns="http://www.w3.org/2000/svg" p-id="1853" xmlns:xlink="http://www.w3.org/1999/xlink" width="128" height="128"><defs><style type="text/css"></style></defs><path d="M977.92 453.632h-62.464c-27.136-206.848-196.608-366.08-401.408-366.08-78.336 0-151.04 23.04-212.992 63.488-12.8 7.168-20.992 20.992-20.992 37.376 0 23.552 17.92 42.496 40.448 42.496 8.704 0 16.896-3.072 23.552-8.192 49.664-32.256 107.52-50.688 169.984-50.688 160.256 0 293.376 121.856 319.488 281.6h-69.632c-8.192 0-15.36 7.168-15.36 15.872 0 3.072 1.024 6.144 2.56 8.704l53.248 96.256 53.248 97.28c2.56 4.608 7.68 7.68 12.8 7.68 5.632 0 10.24-3.072 12.8-7.68l53.76-97.28 52.736-96.256c1.536-2.56 2.56-5.632 2.56-8.704 1.024-8.704-5.632-15.872-14.336-15.872m-241.152 318.464c-10.752 0-20.48 4.608-27.648 11.776-54.272 42.496-121.856 68.096-194.56 68.096-179.2 0-324.096-152.064-324.096-339.456v-8.704h70.144c8.192 0 15.36-7.168 15.36-15.872 0-3.072-1.024-6.144-2.56-8.704L220.16 382.464l-53.76-97.28c-2.56-4.608-7.168-7.68-12.8-7.68s-10.24 3.072-12.8 7.68L87.04 382.464 33.792 478.72c-1.536 2.56-2.56 5.12-2.56 8.704 0 8.704 6.656 15.872 15.36 15.872h62.976v8.704c0 234.496 181.248 424.448 404.992 424.448 92.16 0 177.152-32.256 245.248-86.528 1.024-1.024 2.048-1.536 3.072-2.56 0.512 0 0.512-0.512 1.024-0.512 8.192-7.68 13.824-18.944 13.824-31.744-0.512-24.064-18.432-43.008-40.96-43.008" p-id="1854"></path></svg>