<?xml version="1.0" standalone="no"?><!DOCTYPE svg PUBLIC "-//W3C//DTD SVG 1.1//EN" "http://www.w3.org/Graphics/SVG/1.1/DTD/svg11.dtd"><svg t="1537957563197" class="icon" style="" viewBox="0 0 1024 1024" version="1.1" xmlns="http://www.w3.org/2000/svg" p-id="22271" xmlns:xlink="http://www.w3.org/1999/xlink" width="128" height="128"><defs><style type="text/css"></style></defs><path d="M981.184355 901.225769 85.338107 901.225769 85.338107 72.28021c0-24.091698-19.101033-43.627636-42.661635-43.627636-23.554462 0-42.655496 19.535939-42.655496 43.627636l0 872.573195c0 24.111141 19.101033 43.627636 42.655496 43.627636l938.507884 0c23.560602 0 42.661635-19.516496 42.661635-43.627636C1023.84599 920.755568 1004.744957 901.225769 981.184355 901.225769zM341.294616 813.976636c47.121204 0 85.316108-39.078017 85.316108-87.268576l0-87.249133c0-48.190559-38.194904-87.261413-85.316108-87.261413-47.121204 0-85.316108 39.071877-85.316108 87.261413l0 87.249133C255.977485 774.898619 294.172389 813.976636 341.294616 813.976636zM597.257266 813.976636c47.115064 0 85.309968-39.078017 85.309968-87.268576L682.567233 290.431695c0-48.202838-38.194904-87.261413-85.309968-87.261413-47.128367 0-85.323271 39.058574-85.323271 87.261413l0 436.277388C511.933995 774.898619 550.128899 813.976636 597.257266 813.976636zM853.212752 813.976636c47.115064 0 85.316108-39.078017 85.316108-87.268576L938.528859 464.928938c0-48.190559-38.201044-87.249133-85.316108-87.249133-47.128367 0-85.323271 39.058574-85.323271 87.249133l0 261.779122C767.890504 774.898619 806.085408 813.976636 853.212752 813.976636z" p-id="22272"></path></svg>