<?xml version="1.0" standalone="no"?><!DOCTYPE svg PUBLIC "-//W3C//DTD SVG 1.1//EN" "http://www.w3.org/Graphics/SVG/1.1/DTD/svg11.dtd"><svg t="1536812051834" class="icon" style="" viewBox="0 0 1024 1024" version="1.1" xmlns="http://www.w3.org/2000/svg" p-id="19446" xmlns:xlink="http://www.w3.org/1999/xlink" width="128" height="128"><defs><style type="text/css"></style></defs><path d="M978.297905 1.219048c-19.821714 4.388571-39.619048 8.923429-59.440762 13.336381-36.644571 8.118857-73.313524 16.213333-109.958095 24.259047-20.772571 4.559238-41.593905 8.874667-62.342096 13.482667-18.041905 3.998476-36.035048 8.289524-54.979047 12.629333l89.746285 86.698667c-19.407238 20.504381-38.180571 40.374857-56.978285 60.196571-9.898667 10.459429-19.846095 20.870095-29.817905 31.256381-23.966476 24.966095-47.88419 49.93219-71.94819 74.776381-19.577905 20.23619-39.302095 40.301714-58.977524 60.440381-0.828952 0.853333-1.633524 1.755429-2.438096 2.633143l-33.401904 35.206095-124.781715-113.761524c-15.555048 16.262095-31.134476 32.621714-46.811428 48.88381-16.505905 17.115429-33.158095 34.133333-49.737143 51.2l-48.274286 49.664-50.273524 51.736381c-15.60381 16.018286-31.085714 32.134095-46.738285 48.103619-28.476952 29.062095-57.07581 57.977905-85.552762 87.04-12.434286 12.678095-24.697905 25.6-36.985905 38.424381-0.902095 0.975238-1.365333 2.340571-1.999238 3.413333 16.067048 15.384381 31.841524 30.427429 47.518476 45.568 6.89981 6.656 6.89981 6.826667 13.799619-0.292571 8.850286-9.142857 17.481143-18.480762 26.282667-27.648 13.653333-14.214095 27.37981-28.355048 41.081905-42.520381l43.641904-45.056 40.057905-41.496381c14.531048-15.018667 29.013333-30.110476 43.641905-45.056 25.429333-25.965714 50.93181-51.858286 76.385524-77.799619l2.535619-2.584381 34.206476-36.205714 127.561143 113.859047c11.361524-12.068571 22.137905-23.649524 33.03619-35.059809 21.552762-22.601143 43.154286-45.104762 64.75581-67.657143l65.80419-68.656762c21.601524-22.552381 43.105524-45.153524 64.804572-67.608381 19.21219-19.894857 38.66819-39.570286 57.904762-59.440762 5.753905-5.973333 11.117714-12.312381 16.969143-18.797714l98.133333 92.501333c1.80419-9.581714 3.413333-17.627429 4.803047-25.721905 3.657143-20.967619 7.192381-41.935238 10.849524-62.902857 3.096381-17.700571 6.339048-35.352381 9.411048-53.077333 3.608381-20.72381 7.070476-41.496381 10.654476-62.220191 3.657143-21.211429 7.289905-42.422857 11.142095-63.561142 1.706667-9.362286 3.900952-18.651429 5.87581-27.964953V0c-3.047619 0.390095-6.168381 0.536381-9.167238 1.219048zM816.798476 1024h170.666667V438.857143h-170.666667v585.142857zM524.227048 1024h170.666666V585.142857h-170.666666v438.857143zM256.036571 1024h170.666667V658.285714H256.036571v365.714286zM36.608 1024h170.666667V780.190476H36.608v243.809524z"  p-id="19447"></path></svg>
