<?xml version="1.0" standalone="no"?><!DOCTYPE svg PUBLIC "-//W3C//DTD SVG 1.1//EN" "http://www.w3.org/Graphics/SVG/1.1/DTD/svg11.dtd"><svg t="1539164784534" class="icon" style="" viewBox="0 0 1134 1024" version="1.1" xmlns="http://www.w3.org/2000/svg" p-id="3813" xmlns:xlink="http://www.w3.org/1999/xlink" width="465.1171875" height="420"><defs><style type="text/css"></style></defs><path d="M 765.624 487.815 l -263.837 -192.488 a 29.0788 29.0788 0 0 0 -33.4761 -1.06386 a 40.143 40.143 0 0 0 -17.0927 33.6889 v 384.975 c 0 13.972 6.59593 26.8093 17.0927 33.6889 a 29.0788 29.0788 0 0 0 33.4761 -1.06386 l 263.908 -192.488 c 9.64566 -7.02147 15.4614 -19.2913 15.4614 -32.625 s -5.81576 -25.5326 -15.5323 -32.625 Z" fill="#2aa515" p-id="3814"></path><path d="M 1035.28 497.248 l -44.4693 -11.9152 l -24.4688 -6.59593 l -94.7544 -31.9158 a 46.0296 46.0296 0 0 1 23.8304 -88.8677 l 47.59 19.2913 a 396.252 396.252 0 0 0 -269.795 -246.886 A 398.593 398.593 0 0 0 185.112 412.21 a 46.1006 46.1006 0 1 1 -88.9386 -23.7595 A 490.51 490.51 0 0 1 697.041 41.6324 a 488.879 488.879 0 0 1 331.782 301.71 l 14.3266 -42.7671 c 10.4967 -31.2775 32.9796 -39.0791 57.5193 -32.4832 a 45.9587 45.9587 0 0 1 32.5541 56.3136 l -41.6324 140.288 a 46.1006 46.1006 0 0 1 -56.3136 32.5541 Z m -930.38 36.4549 l 155.182 45.5332 a 45.9587 45.9587 0 0 1 32.3413 56.3136 c -6.525 24.5397 -24.4688 37.8734 -48.9375 31.3484 l -46.9517 -13.4046 a 398.167 398.167 0 0 0 572.853 207.169 a 398.522 398.522 0 0 0 185.679 -242.063 a 46.1715 46.1715 0 0 1 88.9386 23.8304 a 490.723 490.723 0 0 1 -600.868 346.96 a 488.17 488.17 0 0 1 -331.64 -302.42 l -21.6318 40.994 a 46.1715 46.1715 0 0 1 -55.7462 30.1427 c -23.6177 -6.38316 -38.1571 -23.9723 -33.1924 -47.9446 l 47.6609 -143.976 a 46.0296 46.0296 0 0 1 56.3136 -32.4832 Z" fill="" p-id="3815"></path></svg>