<?xml version="1.0" encoding="UTF-8"?>
<svg width="34px" height="34px" viewBox="0 0 34 34" version="1.1" xmlns="http://www.w3.org/2000/svg" xmlns:xlink="http://www.w3.org/1999/xlink">
    <!-- Generator: Sketch 55 (78076) - https://sketchapp.com -->
    <title>融-</title>
    <desc>Created with Sketch.</desc>
    <g id="单客户查询" stroke="none" stroke-width="1" fill="none" fill-rule="evenodd">
        <g id="1.1-单客户查询(两个个系统)" transform="translate(-1027.000000, -221.000000)">
            <g id="融-" transform="translate(1027.000000, 221.000000)">
                <circle id="椭圆形" fill="#FFFFFF" cx="17" cy="17" r="17"></circle>
                <g id="分组-10" transform="translate(8.000000, 9.000000)" fill="#FF884E">
                    <path d="M0,0.397573083 L7.78978434,0.397573083 L7.78978434,1.47777165 L0,1.47777165 L0,0.397573083 Z M7.1738479,3.53014892 L7.1738479,6.62671815 C7.1738479,6.96478429 6.89808953,7.23883067 6.55791146,7.23883067 L1.23187287,7.23883067 C0.891694801,7.23883067 0.615936436,6.96478429 0.615936436,6.62671815 L0.615936436,3.53014892 C0.615936436,3.19208278 0.891694801,2.9180364 1.23187287,2.9180364 L6.55791146,2.9180364 C6.89808953,2.9180364 7.1738479,3.19208278 7.1738479,3.53014892 Z M5.90574347,3.99823497 L1.88404086,3.99823497 L1.88404086,6.1586321 L5.90574347,6.1586321 L5.90574347,3.99823497 Z M13.0161862,3.99823497 L14.6918956,3.99823497 L14.6918956,5.76255929 L15.96,5.76255929 L15.96,3.53014892 C15.96,3.19208278 15.6842416,2.9180364 15.3440636,2.9180364 L13.0161862,2.9180364 L13.0161862,0.388571429 L11.7480817,0.388571429 L11.7480817,2.9180364 L9.42020431,2.9180364 C9.08002624,2.9180364 8.80426788,3.19208278 8.80426788,3.53014892 L8.80426788,9.81330392 L10.0723723,9.81330392 L10.0723723,3.99823497 L11.7480817,3.99823497 L11.7480817,7.75192499 L13.0161862,7.75192499 L13.0161862,3.99823497 Z M7.97094211,16.0964589 L7.97094211,9.11117485 C7.97094211,8.7731087 7.69518375,8.49906233 7.35500568,8.49906233 L0.615936436,8.49906233 C0.275758365,8.49906233 0,8.7731087 0,9.11117485 L0,16.0964589 C0,16.4345251 0.275758365,16.7085714 0.615936436,16.7085714 L1.26810443,16.7085714 L1.26810443,9.57926089 L6.70283768,9.57926089 L6.70283768,15.6283729 L6.05066969,15.6283729 C5.71049162,15.6283729 5.43473326,15.9024192 5.43473326,16.2404854 L5.43473326,16.7085714 L7.35500568,16.7085714 C7.69518375,16.7085714 7.97094211,16.4345251 7.97094211,16.0964589 Z" id="形状" fill-rule="nonzero"></path>
                    <polygon id="路径" points="2.431715 10.4914286 3.619861 12.7860838 2.28 12.7860838 2.28 13.8059306 3.686 13.8059306 3.686 16.7085714 4.674 16.7085714 4.674 13.8059306 6.08 13.8059306 6.08 12.7860838 4.74012 12.7860838 5.928285 10.4914286 4.899416 10.4914286 4.18 11.9592627 3.460584 10.4914286"></polygon>
                    <polygon id="路径" points="15.9634245 8.00241812 14.399687 10.3272814 12.6054802 8.61500181 10.7412873 11.1337442 10.5399624 10.8957546 9.12 10.8957546 10.7313562 12.8228571 12.6645619 10.2310316 14.4504417 11.9955655 18.24 6.60571429 14.436996 6.60571429"></polygon>
                    <path d="M10.6823677,15.7380099 L17.3027668,15.7380099 L17.3027668,11.0739243 L14.5526362,14.8747349 L12.8478991,13.1118253 L11.2515387,15.0477595 L10.7508398,15.6562012 L10.7503172,15.6556039 L10.6823677,15.7380099 L10.6823677,15.7380099 Z M14.4504417,13.3973999 L18.24,8.16 L18.24,16.0739613 C18.24,16.4244528 17.965643,16.7085714 17.6271937,16.7085714 L9.73280632,16.7085714 C9.394357,16.7085714 9.12,16.4244528 9.12,16.0739613 L9.12,12.3306949 L10.7313562,14.1834951 L12.7907279,11.6810222 L14.4504417,13.3974185 L14.4504417,13.3973999 Z" id="形状" fill-rule="nonzero"></path>
                </g>
            </g>
        </g>
    </g>
</svg>