<?xml version="1.0" standalone="no"?><!DOCTYPE svg PUBLIC "-//W3C//DTD SVG 1.1//EN" "http://www.w3.org/Graphics/SVG/1.1/DTD/svg11.dtd"><svg t="1540176980841" class="icon" style="" viewBox="0 0 1024 1024" version="1.1" xmlns="http://www.w3.org/2000/svg" p-id="1246" xmlns:xlink="http://www.w3.org/1999/xlink" width="200" height="200"><defs><style type="text/css"></style></defs><path d="M478.061865 785.837558c8.999903 8.999903 21.218772 14.062849 33.937635 14.062849s24.936732-5.062946 33.937635-14.062849l265.123152-265.155151c18.749799-18.749799 18.749799-49.124472 0-67.874271s-49.125472-18.749799-67.87527 0L559.998984 636.018168V47.999484c0-26.499715-21.499769-48.000484-47.999484-48.000484s-47.999484 21.499769-47.999484 47.999484v588.027684l-183.218032-183.218032c-18.749799-18.749799-49.124472-18.749799-67.874271 0s-18.749799 49.124472 0 67.874271l265.154152 265.155151z" fill="" p-id="1247"></path><path d="M975.995516 463.995016c-26.499715 0-47.999484 21.499769-47.999485 48.000484 0 229.373536-186.623995 415.997531-415.997531 415.997531s-415.995531-186.623995-415.995531-415.997531c0-26.499715-21.499769-47.999484-48.000485-47.999484s-47.999484 21.499769-47.999484 47.999484c0 282.309967 229.685533 511.9965 511.9965 511.9965s511.9965-229.686533 511.9965-511.9965c0-26.499715-21.499769-47.999484-47.999484-47.999484z" fill="" p-id="1248"></path></svg>