<?xml version="1.0" standalone="no"?><!DOCTYPE svg PUBLIC "-//W3C//DTD SVG 1.1//EN" "http://www.w3.org/Graphics/SVG/1.1/DTD/svg11.dtd"><svg t="1540176987392" class="icon" style="" viewBox="0 0 1024 1024" version="1.1" xmlns="http://www.w3.org/2000/svg" p-id="1369" xmlns:xlink="http://www.w3.org/1999/xlink" width="200" height="200"><defs><style type="text/css"></style></defs><path d="M246.974 360.797c12.288 0 24.576-4.69 33.956-14.07l183.285-183.31 0.028 588.332c0 26.513 21.51 48.025 48.025 48.025s48.026-21.51 48.026-48.025l-0.028-588.333 183.31 183.31c18.76 18.76 49.15 18.76 67.91 0 18.76-18.76 18.76-49.15 0-67.91L546.192 13.523c-18.01-18.009-49.901-18.009-67.91 0L213.018 278.816c-18.76 18.76-18.76 49.15 0 67.91 9.38 9.38 21.668 14.07 33.955 14.07z" fill="" p-id="1370"></path><path d="M976.508 463.694c-26.513 0-48.025 21.51-48.025 48.025 0 229.494-186.722 416.216-416.216 416.216S96.053 741.212 96.053 511.718c0-26.513-21.511-48.025-48.026-48.025S0.003 485.205 0.003 511.718c0 282.459 229.806 512.266 512.265 512.266s512.265-229.806 512.265-512.266c0-26.513-21.511-48.024-48.025-48.024z" fill="" p-id="1371"></path></svg>
