<?xml version="1.0" standalone="no"?><!DOCTYPE svg PUBLIC "-//W3C//DTD SVG 1.1//EN" "http://www.w3.org/Graphics/SVG/1.1/DTD/svg11.dtd"><svg t="1563171946818" class="icon" viewBox="0 0 1024 1024" version="1.1" xmlns="http://www.w3.org/2000/svg" p-id="2913" xmlns:xlink="http://www.w3.org/1999/xlink" width="200" height="200"><defs><style type="text/css"></style></defs><path d="M946.176 879.488L739.264 672.576c49.664-63.872 79.232-144.128 79.232-231.296C818.496 232.96 649.6 64 441.216 64 232.896 64 64 232.96 64 441.28c0 208.384 168.896 377.28 377.216 377.28 87.168 0 167.488-29.568 231.36-79.232l206.912 206.848C888.64 955.392 900.736 960 912.832 960s24.128-4.608 33.344-13.888c18.432-18.368 18.432-48.256 0-66.624zM158.336 441.28c0-156.032 126.848-282.944 282.88-282.944 156.096 0 282.944 126.912 282.944 282.944S597.312 724.224 441.216 724.224c-156.032-0.064-282.88-126.912-282.88-282.944z m0 0" fill="" p-id="2914"></path></svg>