<?xml version="1.0" standalone="no"?><!DOCTYPE svg PUBLIC "-//W3C//DTD SVG 1.1//EN" "http://www.w3.org/Graphics/SVG/1.1/DTD/svg11.dtd"><svg t="1539337945195" class="icon" style="" viewBox="0 0 1092 1024" version="1.1" xmlns="http://www.w3.org/2000/svg" p-id="1366" xmlns:xlink="http://www.w3.org/1999/xlink" width="136.5" height="128"><defs><style type="text/css"></style></defs><path d="M983.2448 910.336h-109.226667v18.090667a54.613333 54.613333 0 0 1-109.226666 0v-18.090667H327.68v18.090667a54.613333 54.613333 0 0 1-109.226667 0v-18.090667H109.226667C68.949333 910.336 0 841.3184 0 801.041067V400.5888C0 360.379733 32.5632 327.68 72.772267 327.68h72.840533c40.277333 0 72.772267 32.494933 72.772267 72.840533v291.293867H873.813333V400.5888c0-40.209067 32.5632-72.840533 72.772267-72.840533h72.840533c40.277333 0 72.772267 32.494933 72.772267 72.840533v400.520533c0.273067 40.209067-68.744533 109.226667-109.021867 109.226667z m-72.772267-655.496533a109.226667 109.226667 0 0 0-109.226666 109.294933v254.907733h-509.952V364.1344a109.226667 109.226667 0 0 0-109.226667-109.226667c-12.834133 0-25.053867-4.096-36.4544 0V109.226667A109.226667 109.226667 0 0 1 254.839467 0h582.724266a109.226667 109.226667 0 0 1 109.226667 109.226667v145.749333c-11.4688-4.232533-23.552-0.136533-36.317867-0.136533z" p-id="1367"></path></svg>