<?xml version="1.0" standalone="no"?><!DOCTYPE svg PUBLIC "-//W3C//DTD SVG 1.1//EN" "http://www.w3.org/Graphics/SVG/1.1/DTD/svg11.dtd"><svg t="1537955857006" class="icon" style="" viewBox="0 0 1024 1024" version="1.1" xmlns="http://www.w3.org/2000/svg" p-id="4519" xmlns:xlink="http://www.w3.org/1999/xlink" width="128" height="128"><defs><style type="text/css"></style></defs><path d="M822.1 958.2H201.9c-59.3 0-107.6-48.3-107.6-107.6V173.4c0-59.3 48.3-107.6 107.6-107.6h620.2c59.3 0 107.6 48.3 107.6 107.6v677.3c0 59.3-48.3 107.5-107.6 107.5zM201.9 121.9c-28.4 0-51.5 23.1-51.5 51.5v677.3c0 28.4 23.1 51.5 51.5 51.5h620.2c28.4 0 51.5-23.1 51.5-51.5V173.4c0-28.4-23.1-51.5-51.5-51.5H201.9z" p-id="4520"></path><path d="M901.6 665.4H122.4c-7.7 0-14-6.3-14-14s6.3-14 14-14h779.3c7.7 0 14 6.3 14 14s-6.3 14-14.1 14zM901.6 388H122.4c-7.7 0-14-6.3-14-14s6.3-14 14-14h779.3c7.7 0 14 6.3 14 14s-6.3 14-14.1 14z" p-id="4521"></path><path d="M295.6 244.6m-36.5 0a36.5 36.5 0 1 0 73 0 36.5 36.5 0 1 0-73 0Z" p-id="4522"></path><path d="M728.3 281.1H580.9c-20.1 0-36.5-16.4-36.5-36.5s16.4-36.5 36.5-36.5h147.4c20.1 0 36.5 16.4 36.5 36.5s-16.4 36.5-36.5 36.5z" p-id="4523"></path><path d="M295.6 512.7m-36.5 0a36.5 36.5 0 1 0 73 0 36.5 36.5 0 1 0-73 0Z" p-id="4524"></path><path d="M763.1 549.2H546.2c-1 0-1.7-0.8-1.7-1.7V478c0-1 0.8-1.7 1.7-1.7h216.9c1 0 1.7 0.8 1.7 1.7v69.5c0 0.9-0.7 1.7-1.7 1.7z" p-id="4525"></path><path d="M295.6 790.1m-36.5 0a36.5 36.5 0 1 0 73 0 36.5 36.5 0 1 0-73 0Z" p-id="4526"></path><path d="M413.5 244.6m-36.5 0a36.5 36.5 0 1 0 73 0 36.5 36.5 0 1 0-73 0Z" p-id="4527"></path><path d="M413.5 512.7m-36.5 0a36.5 36.5 0 1 0 73 0 36.5 36.5 0 1 0-73 0Z" p-id="4528"></path><path d="M413.5 790.1m-36.5 0a36.5 36.5 0 1 0 73 0 36.5 36.5 0 1 0-73 0Z" p-id="4529"></path><path d="M728.3 826.6H580.9c-20.1 0-36.5-16.4-36.5-36.5s16.4-36.5 36.5-36.5h147.4c20.1 0 36.5 16.4 36.5 36.5s-16.4 36.5-36.5 36.5z" p-id="4530"></path></svg>