<?xml version="1.0" standalone="no"?><!DOCTYPE svg PUBLIC "-//W3C//DTD SVG 1.1//EN" "http://www.w3.org/Graphics/SVG/1.1/DTD/svg11.dtd"><svg t="1534744328435" class="icon" style="" viewBox="0 0 1024 1024" version="1.1" xmlns="http://www.w3.org/2000/svg" p-id="1927" xmlns:xlink="http://www.w3.org/1999/xlink" width="200" height="200"><defs><style type="text/css"></style></defs><path d="M272.2 63.6c-114.9 0-208 93.1-208 208s93.1 208 208 208h208v-208c0-114.9-93.1-208-208-208z m144 352h-144c-79.4 0-144-64.6-144-144s64.6-144 144-144 144 64.6 144 144v144z m544-144c0-114.9-93.1-208-208-208s-208 93.1-208 208v208h208c114.9 0 208-93.2 208-208z m-352 0c0-79.4 64.6-144 144-144s144 64.6 144 144-64.6 144-144 144h-144v-144z m-544 480c0 114.9 93.1 208 208 208s208-93.1 208-208v-208h-208c-114.9 0-208 93.1-208 208z m352 0c0 79.4-64.6 144-144 144s-144-64.6-144-144 64.6-144 144-144h144v144z m336-208h-208v208c0 114.9 93.1 208 208 208s208-93.1 208-208-93.1-208-208-208z m0 352c-79.4 0-144-64.6-144-144v-144h144c79.4 0 144 64.6 144 144s-64.6 144-144 144z" p-id="1928"></path></svg>