<?xml version="1.0" standalone="no"?><!DOCTYPE svg PUBLIC "-//W3C//DTD SVG 1.1//EN" "http://www.w3.org/Graphics/SVG/1.1/DTD/svg11.dtd"><svg t="1547795017936" class="icon" style="" viewBox="0 0 1024 1024" version="1.1" xmlns="http://www.w3.org/2000/svg" p-id="1970" xmlns:xlink="http://www.w3.org/1999/xlink" width="200" height="200"><defs><style type="text/css"></style></defs><path d="M511.488 1022.976C229.522286 1022.976 0 793.6 0 511.488A512.146286 512.146286 0 0 1 511.488 0c282.038857 0 511.488 229.522286 511.488 511.488a512.146286 512.146286 0 0 1-511.488 511.488z m0-958.902857A448.073143 448.073143 0 0 0 64.073143 511.488a448.073143 448.073143 0 0 0 447.414857 447.414857 448.073143 448.073143 0 0 0 447.414857-447.414857A448.073143 448.073143 0 0 0 511.488 64.073143zM431.250286 716.214857L256 545.792l30.866286-29.988571 144.384 140.434285 305.737143-297.252571 30.793142 29.988571-336.457142 327.241143z" p-id="1971" fill="#ffffff"></path></svg>