<?xml version="1.0" encoding="UTF-8"?>
<svg width="50px" height="50px" viewBox="0 0 50 50" version="1.1" xmlns="http://www.w3.org/2000/svg" xmlns:xlink="http://www.w3.org/1999/xlink">
    <!-- Generator: Sketch 52.5 (67469) - http://www.bohemiancoding.com/sketch -->
    <title>个股期权交易系统</title>
    <desc>Created with Sketch.</desc>
    <g id="页面-1" stroke="none" stroke-width="1" fill="none" fill-rule="evenodd">
        <g id="1" transform="translate(-1123.000000, -328.000000)">
            <g id="个股期权交易系统" transform="translate(1123.000000, 328.000000)">
                <circle id="椭圆形-copy-3" fill="#FD5858" opacity="0.4" cx="25" cy="25" r="25"></circle>
                <circle id="椭圆形-copy-3" fill="#FD5858" cx="25" cy="25" r="22"></circle>
                <g id="分组-11" transform="translate(12.000000, 12.000000)" fill="#FFFFFF">
                    <path d="M7.17737455,26.5 C6.59721163,26.5 6.12253286,26.0201296 6.12253286,25.4336214 L6.12253286,21.1681069 C6.12253286,20.5815987 6.59721163,20.1017283 7.17737455,20.1017283 C7.75753747,20.1017283 8.23221624,20.5815987 8.23221624,21.1681069 L8.23221624,25.4336214 C8.23221624,26.0201296 7.75753747,26.5 7.17737455,26.5 Z M12.3988409,26.5 C11.818678,26.5 11.3439993,26.0201296 11.3439993,25.4336214 L11.3439993,19.0353497 C11.3439993,18.4488415 11.818678,17.9689711 12.3988409,17.9689711 C12.9790039,17.9689711 13.4536826,18.4488415 13.4536826,19.0353497 L13.4536826,25.4336214 C13.4536826,26.0201296 12.9790039,26.5 12.3988409,26.5 Z M17.6203073,26.5 C17.0401444,26.5 16.5654656,26.0201296 16.5654656,25.4336214 L16.5654656,15.8362139 C16.5654656,15.2497056 17.0401444,14.7698353 17.6203073,14.7698353 C18.2004703,14.7698353 18.675149,15.2497056 18.6751491,15.8362139 L18.6751491,25.4336214 C18.6751491,26.0201296 18.2004703,26.5 17.6203073,26.5 Z M21.9451583,26.5 C21.3649954,26.5 20.8903166,26.0201296 20.8903166,25.4336214 L20.8903166,9.97113149 C20.8903166,9.38462326 21.3649954,8.90475288 21.9451583,8.90475288 C22.5253212,8.90475288 23,9.38462326 23,9.97113149 L23,25.4336214 C23,26.0201296 22.5253212,26.5 21.9451583,26.5 Z M1.79768189,16.9025925 C1.32300312,16.9025925 1.05929269,16.9025925 0.953808533,16.8492735 C0.37364561,16.7959546 -0.0482910664,16.2627653 0.00445099741,15.6762571 C0.0571930889,15.0897489 0.584613921,14.6631974 1.16477687,14.7165163 C1.58671355,14.7698353 11.9241622,15.5696192 19.6772487,2.98635156 C19.9937012,2.50648118 20.6266062,2.34652439 21.154027,2.66643799 C21.6287058,2.98635159 21.786932,3.62617875 21.4704795,4.15936804 C14.2448139,15.9428517 4.69849656,16.9025925 1.79768189,16.9025925 Z" id="形状" fill-rule="nonzero"></path>
                    <path d="M21.983342,6.5 C21.5606886,6.5 21.1380352,6.21453086 20.9795402,5.70068641 L20.1342333,3.01727656 L17.386986,4.04496542 C16.8586693,4.27334073 16.2246891,3.93077776 16.0661941,3.3598395 C15.8548674,2.78890122 16.1718575,2.1037753 16.7001742,1.93249383 L20.4512234,0.562241982 C20.7153818,0.448054314 21.0323718,0.505148148 21.2436986,0.619335816 C21.507857,0.733523485 21.666352,1.0189926 21.7720153,1.30446174 L22.9343123,5.07265432 C23.145639,5.64359261 22.8286489,6.32871853 22.2475004,6.5 L21.983342,6.5 Z" id="路径"></path>
                </g>
            </g>
        </g>
    </g>
</svg>