<?xml version="1.0" encoding="UTF-8"?>
<svg width="22px" height="22px" viewBox="0 0 22 22" version="1.1" xmlns="http://www.w3.org/2000/svg" xmlns:xlink="http://www.w3.org/1999/xlink">
    <!-- Generator: Sketch 52.5 (67469) - http://www.bohemiancoding.com/sketch -->
    <title>gufen</title>
    <desc>Created with Sketch.</desc>
    <g id="页面-1" stroke="none" stroke-width="1" fill="none" fill-rule="evenodd">
        <g id="1" transform="translate(-1118.000000, -440.000000)" fill="#007AFF" fill-rule="nonzero">
            <g id="gufen" transform="translate(1118.000000, 440.000000)">
                <path d="M15.5134021,4.88888889 C18.9608247,4.88888889 21.5463918,3.68888889 22,2.53333333 C22,1.06666667 18.9608247,0 15.5134021,0 C11.8845361,3.08395285e-16 8.84536082,1.02222222 8.84536082,2.53333333 C9.29896907,3.68888889 11.8845361,4.88888889 15.5134021,4.88888889 Z M14.0164948,14.3555556 L14.0164948,17.6 L15.5134021,17.6 C19.142268,17.6 22,16.7111111 22,15.5111111 L22,12.8444444 C20.5030928,13.8666667 18.2350515,14.4888889 15.5134021,14.4888889 C15.0597938,14.4888889 14.4701031,14.4888889 14.0164948,14.3555556 Z M14.0164948,10.0444444 L14.0164948,13.2888889 C14.4701031,13.2888889 15.0597938,13.4222222 15.5134021,13.4222222 C19.0061856,13.4222222 21.5463918,12.2222222 22,11.0666667 L22,8.57777778 C20.5030928,9.6 18.2350515,10.2222222 15.5134021,10.2222222 C15.0597938,10.2222222 14.4701031,10.2222222 14.0164948,10.0444444 Z M15.3319588,9.15555556 C18.8247423,9.15555556 21.3649485,7.95555556 21.8185567,6.8 L21.8185567,4.26666667 C20.457732,5.15555556 18.1896907,5.91111111 15.4680412,5.91111111 C12.6103093,5.91111111 10.342268,5.15555556 8.8,4.26666667 L8.8,5.91111111 C11.8391753,6.22222222 14.5608247,7.24444444 14.6969072,9.15555556 L15.3319588,9.15555556 Z" id="形状"></path>
                <path d="M6.6,12.6778481 C10.1538462,12.6778481 12.7384615,11.4560127 13.2,10.2794304 C13.2,8.92183544 10.2923077,7.7 6.6,7.7 C3.09230769,7.83575949 0,8.87658228 0,10.2341772 C0.461538462,11.5917722 3.09230769,12.6778481 6.6,12.6778481 Z M0,12.3610759 L0,15.0762658 C0.461538462,16.2981013 3.09230769,17.4746835 6.6,17.4746835 C10.1538462,17.4746835 12.7384615,16.2528481 13.2,15.0762658 L13.2,12.3610759 C11.8153846,13.4018987 9.50769231,14.035443 6.6,14.035443 C3.69230769,14.035443 1.52307692,13.4018987 0,12.3610759 Z M0,17.1579114 L0,19.8731013 C0,21.0949367 3.09230769,22 6.6,22 C10.1538462,22 13.2,21.0949367 13.2,19.8731013 L13.2,17.1579114 C11.8153846,18.0629747 9.50769231,18.8322785 6.6,18.8322785 C3.83076923,18.8322785 1.38461538,18.2439873 0,17.1579114 Z" id="形状"></path>
            </g>
        </g>
    </g>
</svg>