<?xml version="1.0" standalone="no"?><!DOCTYPE svg PUBLIC "-//W3C//DTD SVG 1.1//EN" "http://www.w3.org/Graphics/SVG/1.1/DTD/svg11.dtd"><svg t="1539164710336" class="icon" style="" viewBox="0 0 1024 1024" version="1.1" xmlns="http://www.w3.org/2000/svg" p-id="3149" xmlns:xlink="http://www.w3.org/1999/xlink" width="420" height="420"><defs><style type="text/css"></style></defs><path d="M859.392 43.008H164.608c-67.07712 0-121.344 54.784-121.344 122.368v693.248c0 67.584 54.272 122.36288 121.344 122.36288h694.784c67.07712 0 121.344-54.77888 121.344-122.36288V165.888c0-67.584-54.272-122.88-121.344-122.88z m70.144 815.616c0 39.424-31.744 71.16288-70.144 71.16288H164.608c-38.91712 0-70.144-32.25088-70.144-71.16288V165.888c0-39.424 31.744-71.168 70.144-71.168h694.784c38.91712 0 70.144 32.26112 70.144 71.168v692.736z" fill="" p-id="3150"></path><path d="M325.12 317.44h143.36v389.12h-143.36zM555.52 317.44h143.36v389.12h-143.36z" fill="" p-id="3151"></path></svg>