<?xml version="1.0" standalone="no"?><!DOCTYPE svg PUBLIC "-//W3C//DTD SVG 1.1//EN" "http://www.w3.org/Graphics/SVG/1.1/DTD/svg11.dtd"><svg t="1540189765690" class="icon" style="" viewBox="0 0 1024 1024" version="1.1" xmlns="http://www.w3.org/2000/svg" p-id="8121" xmlns:xlink="http://www.w3.org/1999/xlink" width="200" height="200"><defs><style type="text/css"></style></defs><path d="M908.8 326.4l64-32c-6.4-12.8-6.4-19.2-12.8-25.6-6.4-6.4-12.8-19.2-19.2-25.6l-64 38.4c12.8 12.8 25.6 25.6 32 44.8zM633.6 934.4l19.2 70.4c25.6-6.4 44.8-12.8 70.4-25.6l-32-64c-12.8 6.4-32 12.8-57.6 19.2zM512 953.6V1024h25.6c12.8 0 19.2 0 32-6.4l6.4-70.4c-19.2 0-44.8 6.4-64 6.4zM947.2 448l70.4-12.8v-12.8c0-12.8-6.4-32-12.8-44.8l-70.4 19.2c6.4 12.8 6.4 32 12.8 51.2zM908.8 691.2l64 32c6.4-12.8 6.4-19.2 12.8-32 0-6.4 6.4-12.8 6.4-19.2l-70.4-19.2c6.4 0 0 19.2-12.8 38.4zM844.8 800l57.6 44.8c12.8-12.8 19.2-25.6 32-38.4 0-6.4 6.4-6.4 6.4-12.8l-64-38.4c-6.4 12.8-19.2 25.6-32 44.8zM953.6 512c0 19.2 0 44.8-6.4 64l70.4 12.8V576v-19.2h-64zM748.8 883.2l38.4 64c19.2-12.8 38.4-25.6 57.6-44.8l-44.8-57.6c-19.2 12.8-32 25.6-51.2 38.4z" p-id="8122"></path><path d="M70.4 512c0-243.2 198.4-441.6 441.6-441.6 128 0 243.2 57.6 326.4 147.2 0 0 6.4 0 6.4 6.4l51.2-44.8-19.2-19.2-25.6-25.6C755.2 44.8 640 0 512 0 230.4 0 0 230.4 0 512s230.4 512 512 512v-70.4c-243.2 0-441.6-198.4-441.6-441.6z" p-id="8123"></path><path d="M825.6 697.6L576 473.6l-64-256-64 262.4c-6.4 19.2-6.4 32 0 51.2v19.2c0 6.4 6.4 6.4 6.4 12.8 6.4 6.4 19.2 6.4 25.6 12.8l57.6 19.2c32 12.8 64 19.2 96 32 57.6 19.2 121.6 38.4 179.2 64 6.4 0 12.8 0 12.8 6.4z" p-id="8124"></path></svg>