<?xml version="1.0" standalone="no"?><!DOCTYPE svg PUBLIC "-//W3C//DTD SVG 1.1//EN" "http://www.w3.org/Graphics/SVG/1.1/DTD/svg11.dtd"><svg t="1536562827399" class="icon" style="" viewBox="0 0 1365 1024" version="1.1" xmlns="http://www.w3.org/2000/svg" p-id="10954" xmlns:xlink="http://www.w3.org/1999/xlink" width="170.625" height="128"><defs><style type="text/css"></style></defs><path d="M146.261211 877.225936h304.46908a37.034636 37.034636 0 0 1 36.60797 36.693302 36.522636 36.522636 0 0 1-36.60797 36.693303H109.909242a36.607969 36.607969 0 0 1-36.778636-35.83997V219.306484H36.693303A36.607969 36.607969 0 0 1 0 182.613181V36.693303A36.607969 36.607969 0 0 1 36.693303 0h146.005211a36.693303 36.693303 0 0 1 36.778636 36.693303v145.919878a36.607969 36.607969 0 0 1-36.778636 36.693303h-36.437303v267.946443h304.46908a37.034636 37.034636 0 0 1 36.60797 36.693303 36.522636 36.522636 0 0 1-36.60797 36.693303H146.261211v316.586403zM365.653029 36.693303a36.607969 36.607969 0 0 1 36.693302-36.693303h926.207229a36.607969 36.607969 0 0 1 36.693302 36.693303v145.919878a36.607969 36.607969 0 0 1-36.693302 36.693303H402.346331a36.607969 36.607969 0 0 1-36.693302-36.693303V36.693303z m268.202443 414.719654a36.522636 36.522636 0 0 1 36.778636-36.693303h657.919452a36.607969 36.607969 0 0 1 36.693302 36.693303V597.332836a36.522636 36.522636 0 0 1-36.607969 36.693302H670.634108A36.693303 36.693303 0 0 1 633.855472 597.332836V451.412957z m0 389.973009a36.522636 36.522636 0 0 1 36.778636-36.693303h657.919452a36.607969 36.607969 0 0 1 36.693302 36.693303v145.919878a36.35197 36.35197 0 0 1-36.522636 36.693303H670.634108a36.693303 36.693303 0 0 1-36.778636-36.693303V841.385966z" p-id="10955"></path></svg>