<?xml version="1.0" standalone="no"?><!DOCTYPE svg PUBLIC "-//W3C//DTD SVG 1.1//EN" "http://www.w3.org/Graphics/SVG/1.1/DTD/svg11.dtd"><svg t="1539339346977" class="icon" style="" viewBox="0 0 1024 1024" version="1.1" xmlns="http://www.w3.org/2000/svg" p-id="3852" xmlns:xlink="http://www.w3.org/1999/xlink" width="128" height="128"><defs><style type="text/css"></style></defs><path d="M498.180154 835.723953l-0.036124-45.195747-12.374903-1.264325c-45.360883-4.773472-83.115174-22.25728-101.006662-46.723258l-3.875543-5.289523 33.465907-8.483878 1.610079 1.434622c14.010785 12.411027 38.910245 22.06118 66.637666 25.90576l15.548617 2.182896 0-99.742337-11.554382-1.899068c-44.617769-7.431134-69.475946-18.505589-80.287215-24.429854l-1.862944-1.042423c-11.812407-8.349705-31.009505-25.719982-31.009505-51.362556 0-39.008295 47.259951-72.252301 112.375266-79.053853l12.338779-1.305609 0-43.998508 31.231407 0 0.041284 44.204929 12.147841 1.450103c40.551288 4.809595 74.620975 19.759593 93.477478 41.005412l4.288384 4.840558-32.165459 11.760802-1.826821-1.41398c-13.711475-10.811268-35.628161-19.176455-60.156065-23.015875l-15.765358-2.461563 0 103.282447 11.291196 2.105488c32.165459 5.981031 58.293121 13.644388 75.58599 22.195354 7.265998 3.653641 12.85483 7.250517 16.622003 10.733861 1.346893 1.290128 2.611218 2.688626 3.803296 4.009716 9.20635 10.914479 13.974661 23.294542 13.974661 35.911989 0 38.198095-45.882094 71.33373-109.129305 78.795827l-12.147841 1.450103-0.041284 45.417649L498.180154 835.729114zM529.416721 758.032475l15.837605-2.513168c35.968755-5.702364 74.249418-23.542247 74.249418-45.453772 0.108371-21.823797-38.203256-39.601754-74.321665-45.267994l-15.765358-2.461563L529.416721 758.032475zM482.564451 533.839278c-43.570186 6.037797-77.825651 26.163786-77.939183 45.861452 0 19.73379 34.255465 39.901063 77.939183 45.918218l15.58474 2.177735 0-96.12482L482.564451 533.839278z" p-id="3853"></path><path d="M528.931633 1023.989679l-33.69297 0c-230.530303 0-448.278022 0-448.278022-294.262601 0-234.911576 136.268427-448.185133 331.351187-518.646737l3.163393-1.135312 261.204374 0 3.127269 1.135312c195.08792 70.461604 331.356347 283.735161 331.356347 518.646737 0 131.737499-44.617769 215.802207-136.423242 257.029522C757.820894 1023.989679 641.456554 1023.989679 528.931633 1023.989679L528.931633 1023.989679zM512.082568 985.817386l16.849065 0c108.494562 0 220.725334 0 296.197793-33.873588 77.681157-34.890208 113.866653-105.501467 113.866653-222.221882 0-217.876732-124.450859-415.36429-303.066431-481.614917L388.194205 248.107c-178.610412 66.250627-303.066431 263.738185-303.066431 481.614917 0 243.725727 155.837081 256.095469 410.11089 256.095469L512.082568 985.817386 512.082568 985.817386z" p-id="3854"></path><path d="M617.449861 165.409827 406.679151 165.409827c-15.956297 0-30.45217-9.392128-36.975054-23.918964l-37.94523-84.29177c-5.66624-12.596805-4.587693-27.051393 2.941491-38.65222 7.493061-11.611148 20.23952-18.531391 34.033563-18.531391l286.66117 0c13.830167 0 26.540503 6.925404 34.069687 18.531391 7.493061 11.600826 8.571607 26.055415 2.905367 38.662541l-37.94523 84.312412C647.943315 156.017699 633.406158 165.409827 617.449861 165.409827L617.449861 165.409827zM368.733921 38.177453c-0.29931 0-1.269485 0-1.976475 1.078547-0.71215 1.088868-0.29931 1.986796-0.185778 2.270624l37.94523 84.317573c0.371557 0.841163 1.264325 1.388177 2.162254 1.388177l210.775871 0c0.934052 0 1.790697-0.547014 2.162254-1.367535l37.94523-84.327894c0.149655-0.29931 0.557335-1.192078-0.144494-2.280945-0.71215-1.078547-1.677166-1.078547-2.017759-1.078547L368.733921 38.177453 368.733921 38.177453z" p-id="3855"></path></svg>