<?xml version="1.0" encoding="UTF-8"?>
<svg width="50px" height="50px" viewBox="0 0 50 50" version="1.1" xmlns="http://www.w3.org/2000/svg" xmlns:xlink="http://www.w3.org/1999/xlink">
    <!-- Generator: Sketch 52.5 (67469) - http://www.bohemiancoding.com/sketch -->
    <title>交易系统</title>
    <desc>Created with Sketch.</desc>
    <g id="页面-1" stroke="none" stroke-width="1" fill="none" fill-rule="evenodd">
        <g id="1" transform="translate(-1530.000000, -328.000000)">
            <g id="交易系统" transform="translate(1530.000000, 328.000000)">
                <g id="分组-12" fill="#FFB910">
                    <circle id="椭圆形-copy-3" fill-opacity="0.4" opacity="0.4" cx="25" cy="25" r="25"></circle>
                    <circle id="椭圆形-copy-3" cx="25" cy="25" r="22"></circle>
                </g>
                <g id="tongji" transform="translate(14.000000, 15.000000)" fill="#FFFFFF" fill-rule="nonzero">
                    <path d="M4.56605457,21 L4.56605457,7.02859927 C4.56605457,6.47145752 4.15087764,6.04292882 3.65288419,6.04292882 L0.913170374,6.04292882 C0.415176929,6.04292882 2.92917631e-10,6.51427276 0,7.02859927 L0,21 L4.56605457,21 Z M10.3773967,21 L10.3773967,1.02865309 C10.3773967,0.471469501 9.96234138,0 9.46418583,0 L6.72447201,0 C6.22647856,0 5.81130164,0.471469501 5.81130164,1.02865309 L5.81130164,21 L10.3773967,21 Z M16.1886984,21 L16.1886984,12.1714043 C16.1886984,11.6142626 15.7736836,11.1429186 15.275528,11.1429186 L12.5359763,11.1429186 C12.0378207,11.1429186 11.6226032,11.6142626 11.6226032,12.1714043 L11.6226032,21 L16.1886984,21 Z M22,21 L22,7.02859927 C22,6.47145752 21.5849852,6.04292882 21.0868296,6.04292882 L18.3472779,6.04292882 C17.8491224,6.04292882 17.4341076,6.51427276 17.4341076,7.02859927 L17.4341076,21 L22,21 Z" id="形状"></path>
                </g>
            </g>
        </g>
    </g>
</svg>