<?xml version="1.0" standalone="no"?><!DOCTYPE svg PUBLIC "-//W3C//DTD SVG 1.1//EN" "http://www.w3.org/Graphics/SVG/1.1/DTD/svg11.dtd"><svg t="1539154197752" class="icon" style="" viewBox="0 0 1110 1024" version="1.1" xmlns="http://www.w3.org/2000/svg" p-id="6228" xmlns:xlink="http://www.w3.org/1999/xlink" width="455.2734375" height="420"><defs><style type="text/css"></style></defs><path d="M1092.180806 584.384494c-7.217529-37.578222-26.072016-69.782522-52.765106-97.201288-30.870627-31.713979-67.768936-52.425149-111.682108-59.551151-13.421727-2.177026-27.098422-2.817713-41.278513-4.223301 0-2.301241-0.045763-4.792073 0-7.282905 1.059094-56.6746-11.133561-110.191532-38.768067-159.844731-66.016855-118.638133-195.317841-181.628071-329.607028-160.818837-135.590173 21.011901-243.218959 127.751571-264.413913 262.41994-0.7126 4.530568-2.11165 6.151897-6.864498 6.315338-58.779713 2.039736-109.864651 22.93396-152.816793 63.225292-59.028142 55.373615-81.373717 124.463149-73.816232 203.65984 5.112416 53.556157 27.588743 99.822871 65.193115 138.420961 41.919199 43.043669 92.821084 68.298483 152.927933 70.893917 50.313499 2.170489 100.790439 0.791052 151.188927 0.895653l5.288932 0.006538v-44.396956c-43.180959 0.019613-86.361918 0.019613-129.549415-0.111139-68.847643-0.202666-125.404566-26.41851-165.486695-83.073498-32.47888-45.900608-44.364268-97.253588-31.158282-152.764492 12.297257-51.673323 40.27172-92.925686 85.610092-121.397007 37.519383-23.561571 78.307574-34.276725 122.81567-29.661168 16.795138 1.745544 17.429286 0.96103 18.318403-15.441851 1.941672-36.002656 11.205475-70.115941 27.399152-102.163338 46.567445-92.154247 122.233822-144.795138 224.174881-153.954339 93.742888-8.42045 172.455794 27.464528 232.124623 100.038613 51.294142 62.38194 71.475765 134.838347 59.263497 215.538689-1.915522 12.689514-1.23561 15.062669 12.996782 14.879616 26.895756-0.320343 53.693447-0.588386 80.216559 6.446091 77.464222 20.54773 130.608509 99.659431 119.435722 179.045712-11.1924 79.517034-78.974411 140.604525-159.086368 142.15394-49.692426 0.954492-99.411002 0.372644-149.12304 0.41187h-21.273405v44.488483c55.425916 0 110.838756-0.006538 166.264671-0.052301 9.041524-0.006538 18.154962-0.104602 27.118034-1.137546 45.822156-5.256244 85.570867-23.731549 118.723122-55.890086 57.262986-55.52398 73.273609-123.547883 58.629348-199.874559zM527.585679 515.831043l-56.628837 48.482967c-20.279687 17.376986-40.467848 34.858573-60.917514 52.032892-2.36008 1.980898-6.073446 2.758874-9.283416 3.203433-4.49788 0.621074-6.929874-1.889371-6.923336-6.518004 0.006538-14.866541-0.392257-29.746157 0.346493-44.573472 0.169978-3.386486 3.732979-7.210991 6.66837-9.747587 26.830379-23.293529 53.863425-46.345166 80.837632-69.468716l65.591909-56.21043c7.126002-6.112672 12.349558-6.099597 19.488636 0.032688 48.136473 41.2589 96.194494 82.602789 144.507483 123.63941 6.361101 5.400072 9.682211 10.813218 9.067674 19.47556-0.797589 11.081261 0.098064 22.286736-0.320343 33.41376-0.124215 3.281884-1.693243 8.825783-3.504163 9.231115-3.726442 0.82374-9.133051 0.183053-11.989989-2.137801-17.272384-14.082027-34.01522-28.811277-50.934573-43.324786-20.456203-17.540426-40.912406-35.054701-61.368609-52.575515-1.379437-1.183309-2.863476-2.24894-5.811941-4.550181v9.113438l0.02615 395.05511c0 11.852699-0.418407 12.297257-12.04229 12.297257-12.081516 0.013075-24.149957 0.02615-36.231472 0-9.669135-0.013075-10.604015-0.993718-10.604015-10.943971l0.013075-395.05511v-10.872057h0.013076z" fill="" p-id="6229"></path></svg>