<?xml version="1.0" standalone="no"?><!DOCTYPE svg PUBLIC "-//W3C//DTD SVG 1.1//EN" "http://www.w3.org/Graphics/SVG/1.1/DTD/svg11.dtd"><svg t="1536812268291" class="icon" style="" viewBox="0 0 1024 1024" version="1.1" xmlns="http://www.w3.org/2000/svg" p-id="24310" xmlns:xlink="http://www.w3.org/1999/xlink" width="128" height="128"><defs><style type="text/css"></style></defs><path d="M534.564247 11.230566c-18.71893-16.055126-47.244927-15.185172-66.137159 4.478312C360.363429 126.726708 302.487389 270.451594 305.469105 420.440606c0.299549 15.50538 0.650744 31.961052 1.220001 48.893019l-92.414818 112.768068c-7.547252 9.250434-11.592882 20.738876-11.338094 32.375371l3.016146 150.916352c0.285776 16.611759 9.53621 31.677571 24.125728 39.352218 14.541315 7.620705 32.680658 6.878145 47.298868-1.923539l93.73926-56.144165c43.92005 59.570039 103.043635 69.342675 146.356553 66.478025 3.764445-0.30414 7.508231-0.653039 11.164792-1.08113 55.368322-6.7014 99.828937-34.775204 130.856912-82.71793l91.831788 41.675155c14.943008 6.747308 33.039887 5.046422 47.269028-4.493232 2.032571-1.378383 3.884953-2.848583 5.607645-4.39453 10.984603-9.867895 17.150029-23.743545 16.891797-38.097785l-3.062054-150.878478c-0.220358-11.669778-4.684897-22.60044-12.654502-30.832867l-91.256792-94.454274c-0.09985-18.316088-0.464817-36.360173-0.842409-54.843825C710.285763 243.05493 646.822737 107.503939 534.564247 11.230566L534.564247 11.230566zM553.743403 405.344954c-28.422704 24.725973-70.515621 22.808173-94.014707-4.27976-23.580572-27.109739-19.604952-69.160191 8.76381-93.840257 28.388273-24.7627 70.499553-22.826536 94.06291 4.298123C586.053355 338.645424 582.114461 380.597175 553.743403 405.344954L553.743403 405.344954zM598.230415 849.773209l-163.496253-0.663369c-5.909489-0.047056-11.604359 3.143541-14.789217 8.344901-3.241095 5.154305-3.509656 11.458602-0.788467 16.578476l79.986412 138.924071c1.79844 2.412458 2.322938 3.848226 4.736543 6.588926 6.265275 7.116866 10.569137 5.656996 18.857801-4.035301l-3.250276 3.571632c1.197047-1.076539 5.790129-6.205595 6.676151-7.612671l85.379438-136.845592c3.188301-5.140533 3.495884-11.476965 0.711572-16.609464C609.534078 852.896092 604.174335 849.785834 598.230415 849.773209L598.230415 849.773209z" p-id="24311"></path></svg>