<?xml version="1.0" standalone="no"?><!DOCTYPE svg PUBLIC "-//W3C//DTD SVG 1.1//EN" "http://www.w3.org/Graphics/SVG/1.1/DTD/svg11.dtd"><svg t="1537956882065" class="icon" style="" viewBox="0 0 1024 1024" version="1.1" xmlns="http://www.w3.org/2000/svg" p-id="15107" xmlns:xlink="http://www.w3.org/1999/xlink" width="128" height="128"><defs><style type="text/css"></style></defs><path d="M870.4 390.4L582.4 83.2c-32-25.6-76.8-25.6-108.8 0L153.6 384c-25.6 25.6-32 57.6-19.2 83.2s38.4 44.8 70.4 44.8h96c19.2 0 32 12.8 32 25.6v32c0 12.8 12.8 25.6 25.6 25.6s25.6-12.8 25.6-25.6V473.6c0-12.8-12.8-25.6-25.6-25.6H224c-12.8 0-19.2-12.8-19.2-12.8s-6.4-12.8 6.4-25.6L512 134.4c0-6.4 6.4-6.4 12.8-6.4s12.8 0 19.2 6.4l275.2 275.2c12.8 6.4 6.4 19.2 6.4 25.6 0 0-6.4 12.8-19.2 12.8h-134.4c-19.2 0-32 12.8-32 25.6v134.4c0 19.2-12.8 32-32 32H345.6c-12.8 0-25.6 19.2-25.6 32s12.8 32 25.6 32h268.8c44.8 0 83.2-38.4 83.2-83.2V537.6c6.4-12.8 19.2-25.6 32-25.6h89.6c32 0 57.6-19.2 70.4-44.8 12.8-25.6 6.4-57.6-19.2-76.8zM672 768h-320c-19.2 0-32 12.8-32 32s12.8 32 32 32h320c19.2 0 32-12.8 32-32s-12.8-32-32-32z m-64 128h-192c-19.2 0-32 12.8-32 32s12.8 32 32 32h192c19.2 0 32-12.8 32-32s-12.8-32-32-32z" p-id="15108"></path></svg>