<?xml version="1.0" standalone="no"?><!DOCTYPE svg PUBLIC "-//W3C//DTD SVG 1.1//EN" "http://www.w3.org/Graphics/SVG/1.1/DTD/svg11.dtd"><svg t="1532078714434" class="icon" style="" viewBox="0 0 1024 1024" version="1.1" xmlns="http://www.w3.org/2000/svg" p-id="2046" xmlns:xlink="http://www.w3.org/1999/xlink" width="200" height="200"><defs><style type="text/css"></style></defs><path d="M916.804267 736.3584C853.384533 681.301333 808.055467 535.074133 808.055467 363.3152 808.055467 233.301333 724.770133 123.050667 608.9216 82.705067 601.105067 35.805867 560.759467-0.034133 511.812267-0.034133 462.865067-0.034133 422.519467 35.805867 414.702933 82.705067 298.8544 123.050667 215.569067 233.301333 215.569067 363.3152 215.569067 535.04 170.274133 681.2672 106.820267 736.324267 71.389867 767.0784 51.012267 811.758933 51.012267 858.794667 51.012267 913.544533 95.214933 957.917867 149.76 957.917867L445.969067 957.917867C445.969067 1012.6336 457.2672 1023.965867 511.812267 1023.965867 566.357333 1023.965867 577.655467 1012.6336 577.655467 957.917867L873.864533 957.917867C928.4096 957.917867 972.612267 913.544533 972.612267 858.794667 972.612267 811.793067 952.2688 767.112533 916.804267 736.3584ZM187.5456 887.466667C127.982933 887.466667 124.740267 823.227733 138.461867 811.281067 226.628267 734.788267 281.412267 563.131733 281.412267 363.3152 281.412267 254.020267 402.926933 132.096 511.812267 132.096 620.6976 132.096 742.212267 254.020267 742.212267 363.3152 742.212267 563.131733 796.996267 734.8224 885.162667 811.3152 898.9184 823.227733 906.018133 887.466667 836.078933 887.466667L187.5456 887.466667Z" p-id="2047"></path></svg>