<?xml version="1.0" standalone="no"?><!DOCTYPE svg PUBLIC "-//W3C//DTD SVG 1.1//EN" "http://www.w3.org/Graphics/SVG/1.1/DTD/svg11.dtd"><svg t="1537956669783" class="icon" style="" viewBox="0 0 1024 1024" version="1.1" xmlns="http://www.w3.org/2000/svg" p-id="12143" xmlns:xlink="http://www.w3.org/1999/xlink" width="128" height="128"><defs><style type="text/css"></style></defs><path d="M967.280184 317.462329c-24.915459-58.887178-60.544935-111.76755-105.96745-157.161413-45.393863-45.393863-98.273211-81.051991-157.160389-105.96745-60.988026-25.803689-125.735679-38.853913-192.494129-38.853913-66.729797 0-131.504056 13.0799-192.494129 38.853913-58.887178 24.916483-111.766526 60.544935-157.160389 105.96745-45.393863 45.393863-81.051991 98.274234-105.96745 157.161413-25.803689 60.988026-38.884612 125.734656-38.884612 192.464453s13.0799 131.50508 38.884612 192.464453c24.915459 58.887178 60.544935 111.737874 105.96745 157.161413 45.393863 45.393863 98.273211 81.051991 157.160389 105.96745 60.988026 25.803689 125.735679 38.853913 192.494129 38.853913 66.729797 0 131.504056-13.0799 192.494129-38.853913 58.887178-24.916483 111.766526-60.544935 157.160389-105.96745 45.393863-45.393863 81.051991-98.274234 105.96745-157.161413 25.803689-60.988026 38.853913-125.734656 38.853913-192.464453S993.084896 378.450355 967.280184 317.462329zM511.687892 951.138552c-243.302305 0-441.241446-197.909465-441.241446-441.21177S268.385587 68.715011 511.687892 68.715011c243.273652 0.029676 441.210747 197.938118 441.210747 441.21177S754.990197 951.138552 511.687892 951.138552z" p-id="12144"></path><path d="M511.657192 697.420013m-45.512566 0a44.476 44.476 0 1 0 91.025133 0 44.476 44.476 0 1 0-91.025133 0Z" p-id="12145"></path><path d="M542.729885 550.851866c0 17.162892-13.906731 31.071669-31.070646 31.071669l0 0c-17.163915 0-31.070646-13.907755-31.070646-31.071669L480.588593 307.993676c0-17.162892 13.906731-31.071669 31.070646-31.071669l0 0c17.163915 0 31.070646 13.907755 31.070646 31.071669L542.729885 550.851866z" p-id="12146"></path></svg>